M48
INCH,TZ
T1C0.0354
T2C0.0394
T3C0.0472
T4C0.1260
%
G90
G05
T1
X46260Y-64567
X45260Y-75591
X46260Y-75591
X45260Y-59055
X46260Y-59055
X40339Y-59055
X41339Y-59055
X40339Y-75591
X41339Y-75591
X45260Y-70079
X46260Y-70079
X40339Y-70079
X41339Y-70079
X40339Y-64567
X41339Y-64567
X45260Y-64567
T2
X36764Y-34961
X37309Y-33843
X37854Y-34961
X38400Y-33843
X38945Y-34961
X39490Y-33843
X40035Y-34961
X40581Y-33843
X41126Y-34961
X41671Y-33843
X42217Y-34961
X42762Y-33843
X43307Y-34961
X43852Y-33843
X44398Y-34961
X44943Y-33843
X45488Y-34961
X46033Y-33843
X46579Y-34961
X47124Y-33843
X47669Y-34961
X48215Y-33843
X48760Y-34961
X49305Y-33843
X49850Y-34961
X32382Y-41323
X32382Y-42323
T3
X44094Y-67323
X46094Y-67323
X40520Y-67323
X42520Y-67323
X44094Y-72835
X46094Y-72835
X32843Y-48425
X34843Y-48425
X40520Y-72835
X42520Y-72835
X32760Y-51181
X33760Y-51181
X34760Y-51181
X32760Y-54134
X33760Y-54134
X34760Y-54134
X40520Y-56299
X42520Y-56299
X44094Y-56299
X46094Y-56299
X44094Y-61811
X46094Y-61811
X40520Y-61811
X42520Y-61811
T4
X34035Y-34843
X52579Y-34843
T2
G00X33819Y-58839
M15
G01X33819Y-59272
M16
G05
G00X35630Y-58839
M15
G01X35630Y-59272
M16
G05
G00X37441Y-58839
M15
G01X37441Y-59272
M16
G05
G00X49173Y-69862
M15
G01X49173Y-70295
M16
G05
G00X50984Y-69862
M15
G01X50984Y-70295
M16
G05
G00X52795Y-69862
M15
G01X52795Y-70295
M16
G05
G00X33819Y-69862
M15
G01X33819Y-70295
M16
G05
G00X35630Y-69862
M15
G01X35630Y-70295
M16
G05
G00X37441Y-69862
M15
G01X37441Y-70295
M16
G05
G00X33819Y-64350
M15
G01X33819Y-64783
M16
G05
G00X35630Y-64350
M15
G01X35630Y-64783
M16
G05
G00X37441Y-64350
M15
G01X37441Y-64783
M16
G05
G00X33819Y-75374
M15
G01X33819Y-75807
M16
G05
G00X35630Y-75374
M15
G01X35630Y-75807
M16
G05
G00X37441Y-75374
M15
G01X37441Y-75807
M16
G05
G00X49173Y-58839
M15
G01X49173Y-59272
M16
G05
G00X50984Y-58839
M15
G01X50984Y-59272
M16
G05
G00X52795Y-58839
M15
G01X52795Y-59272
M16
G05
G00X49173Y-64350
M15
G01X49173Y-64783
M16
G05
G00X50984Y-64350
M15
G01X50984Y-64783
M16
G05
G00X52795Y-64350
M15
G01X52795Y-64783
M16
G05
G00X49173Y-75374
M15
G01X49173Y-75807
M16
G05
G00X50984Y-75374
M15
G01X50984Y-75807
M16
G05
G00X52795Y-75374
M15
G01X52795Y-75807
M16
G05
T0
M30
