G04 #@! TF.GenerationSoftware,KiCad,Pcbnew,5.1.5*
G04 #@! TF.CreationDate,2020-04-05T13:53:30+02:00*
G04 #@! TF.ProjectId,s7-ioboard,73372d69-6f62-46f6-9172-642e6b696361,16*
G04 #@! TF.SameCoordinates,Original*
G04 #@! TF.FileFunction,Copper,L2,Bot*
G04 #@! TF.FilePolarity,Positive*
%FSLAX46Y46*%
G04 Gerber Fmt 4.6, Leading zero omitted, Abs format (unit mm)*
G04 Created by KiCad (PCBNEW 5.1.5) date 2020-04-05 13:53:30*
%MOMM*%
%LPD*%
G04 APERTURE LIST*
%ADD10O,1.740000X2.200000*%
%ADD11C,0.100000*%
%ADD12O,2.000000X3.000000*%
%ADD13C,4.000000*%
%ADD14C,1.600000*%
%ADD15R,1.600000X1.600000*%
%ADD16O,1.700000X1.700000*%
%ADD17R,1.700000X1.700000*%
%ADD18O,2.400000X2.400000*%
%ADD19C,2.400000*%
%ADD20C,1.800000*%
%ADD21R,1.800000X1.800000*%
%ADD22C,0.500000*%
%ADD23C,0.250000*%
%ADD24C,0.254000*%
G04 APERTURE END LIST*
D10*
X88290000Y-130000000D03*
X85750000Y-130000000D03*
G04 #@! TA.AperFunction,ComponentPad*
D11*
G36*
X83854505Y-128901204D02*
G01*
X83878773Y-128904804D01*
X83902572Y-128910765D01*
X83925671Y-128919030D01*
X83947850Y-128929520D01*
X83968893Y-128942132D01*
X83988599Y-128956747D01*
X84006777Y-128973223D01*
X84023253Y-128991401D01*
X84037868Y-129011107D01*
X84050480Y-129032150D01*
X84060970Y-129054329D01*
X84069235Y-129077428D01*
X84075196Y-129101227D01*
X84078796Y-129125495D01*
X84080000Y-129149999D01*
X84080000Y-130850001D01*
X84078796Y-130874505D01*
X84075196Y-130898773D01*
X84069235Y-130922572D01*
X84060970Y-130945671D01*
X84050480Y-130967850D01*
X84037868Y-130988893D01*
X84023253Y-131008599D01*
X84006777Y-131026777D01*
X83988599Y-131043253D01*
X83968893Y-131057868D01*
X83947850Y-131070480D01*
X83925671Y-131080970D01*
X83902572Y-131089235D01*
X83878773Y-131095196D01*
X83854505Y-131098796D01*
X83830001Y-131100000D01*
X82589999Y-131100000D01*
X82565495Y-131098796D01*
X82541227Y-131095196D01*
X82517428Y-131089235D01*
X82494329Y-131080970D01*
X82472150Y-131070480D01*
X82451107Y-131057868D01*
X82431401Y-131043253D01*
X82413223Y-131026777D01*
X82396747Y-131008599D01*
X82382132Y-130988893D01*
X82369520Y-130967850D01*
X82359030Y-130945671D01*
X82350765Y-130922572D01*
X82344804Y-130898773D01*
X82341204Y-130874505D01*
X82340000Y-130850001D01*
X82340000Y-129149999D01*
X82341204Y-129125495D01*
X82344804Y-129101227D01*
X82350765Y-129077428D01*
X82359030Y-129054329D01*
X82369520Y-129032150D01*
X82382132Y-129011107D01*
X82396747Y-128991401D01*
X82413223Y-128973223D01*
X82431401Y-128956747D01*
X82451107Y-128942132D01*
X82472150Y-128929520D01*
X82494329Y-128919030D01*
X82517428Y-128910765D01*
X82541227Y-128904804D01*
X82565495Y-128901204D01*
X82589999Y-128900000D01*
X83830001Y-128900000D01*
X83854505Y-128901204D01*
G37*
G04 #@! TD.AperFunction*
D10*
X88290000Y-137500000D03*
X85750000Y-137500000D03*
G04 #@! TA.AperFunction,ComponentPad*
D11*
G36*
X83854505Y-136401204D02*
G01*
X83878773Y-136404804D01*
X83902572Y-136410765D01*
X83925671Y-136419030D01*
X83947850Y-136429520D01*
X83968893Y-136442132D01*
X83988599Y-136456747D01*
X84006777Y-136473223D01*
X84023253Y-136491401D01*
X84037868Y-136511107D01*
X84050480Y-136532150D01*
X84060970Y-136554329D01*
X84069235Y-136577428D01*
X84075196Y-136601227D01*
X84078796Y-136625495D01*
X84080000Y-136649999D01*
X84080000Y-138350001D01*
X84078796Y-138374505D01*
X84075196Y-138398773D01*
X84069235Y-138422572D01*
X84060970Y-138445671D01*
X84050480Y-138467850D01*
X84037868Y-138488893D01*
X84023253Y-138508599D01*
X84006777Y-138526777D01*
X83988599Y-138543253D01*
X83968893Y-138557868D01*
X83947850Y-138570480D01*
X83925671Y-138580970D01*
X83902572Y-138589235D01*
X83878773Y-138595196D01*
X83854505Y-138598796D01*
X83830001Y-138600000D01*
X82589999Y-138600000D01*
X82565495Y-138598796D01*
X82541227Y-138595196D01*
X82517428Y-138589235D01*
X82494329Y-138580970D01*
X82472150Y-138570480D01*
X82451107Y-138557868D01*
X82431401Y-138543253D01*
X82413223Y-138526777D01*
X82396747Y-138508599D01*
X82382132Y-138488893D01*
X82369520Y-138467850D01*
X82359030Y-138445671D01*
X82350765Y-138422572D01*
X82344804Y-138398773D01*
X82341204Y-138374505D01*
X82340000Y-138350001D01*
X82340000Y-136649999D01*
X82341204Y-136625495D01*
X82344804Y-136601227D01*
X82350765Y-136577428D01*
X82359030Y-136554329D01*
X82369520Y-136532150D01*
X82382132Y-136511107D01*
X82396747Y-136491401D01*
X82413223Y-136473223D01*
X82431401Y-136456747D01*
X82451107Y-136442132D01*
X82472150Y-136429520D01*
X82494329Y-136419030D01*
X82517428Y-136410765D01*
X82541227Y-136404804D01*
X82565495Y-136401204D01*
X82589999Y-136400000D01*
X83830001Y-136400000D01*
X83854505Y-136401204D01*
G37*
G04 #@! TD.AperFunction*
D12*
X124900000Y-192000000D03*
X129500000Y-192000000D03*
X134100000Y-192000000D03*
X124900000Y-178000000D03*
X129500000Y-178000000D03*
X134100000Y-178000000D03*
X124900000Y-164000000D03*
X129500000Y-164000000D03*
X134100000Y-164000000D03*
X124900000Y-150000000D03*
X129500000Y-150000000D03*
X134100000Y-150000000D03*
X85900000Y-192000000D03*
X90500000Y-192000000D03*
X95100000Y-192000000D03*
X85900000Y-178000000D03*
X90500000Y-178000000D03*
X95100000Y-178000000D03*
X85900000Y-164000000D03*
X90500000Y-164000000D03*
X95100000Y-164000000D03*
X85900000Y-150000000D03*
X90500000Y-150000000D03*
X95100000Y-150000000D03*
D13*
X86450000Y-88500000D03*
X133550000Y-88500000D03*
D14*
X94765000Y-85960000D03*
X97535000Y-85960000D03*
X100305000Y-85960000D03*
X103075000Y-85960000D03*
X105845000Y-85960000D03*
X108615000Y-85960000D03*
X111385000Y-85960000D03*
X114155000Y-85960000D03*
X116925000Y-85960000D03*
X119695000Y-85960000D03*
X122465000Y-85960000D03*
X125235000Y-85960000D03*
X93380000Y-88800000D03*
X96150000Y-88800000D03*
X98920000Y-88800000D03*
X101690000Y-88800000D03*
X104460000Y-88800000D03*
X107230000Y-88800000D03*
X110000000Y-88800000D03*
X112770000Y-88800000D03*
X115540000Y-88800000D03*
X118310000Y-88800000D03*
X121080000Y-88800000D03*
X123850000Y-88800000D03*
D15*
X126620000Y-88800000D03*
D16*
X82250000Y-104960000D03*
D17*
X82250000Y-107500000D03*
D18*
X88500000Y-123000000D03*
D19*
X83420000Y-123000000D03*
D18*
X108000000Y-143000000D03*
D19*
X102920000Y-143000000D03*
D18*
X108000000Y-157000000D03*
D19*
X102920000Y-157000000D03*
D18*
X108000000Y-171000000D03*
D19*
X102920000Y-171000000D03*
D18*
X108000000Y-185000000D03*
D19*
X102920000Y-185000000D03*
D18*
X112000000Y-143000000D03*
D19*
X117080000Y-143000000D03*
D18*
X112000000Y-157000000D03*
D19*
X117080000Y-157000000D03*
D18*
X112000000Y-171000000D03*
D19*
X117080000Y-171000000D03*
D18*
X112000000Y-185000000D03*
D19*
X117080000Y-185000000D03*
D20*
X102460000Y-150000000D03*
D21*
X105000000Y-150000000D03*
D20*
X102460000Y-164000000D03*
D21*
X105000000Y-164000000D03*
D20*
X102460000Y-178000000D03*
D21*
X105000000Y-178000000D03*
D20*
X102460000Y-192000000D03*
D21*
X105000000Y-192000000D03*
D20*
X114960000Y-150000000D03*
D21*
X117500000Y-150000000D03*
D20*
X114960000Y-164000000D03*
D21*
X117500000Y-164000000D03*
D20*
X114960000Y-178000000D03*
D21*
X117500000Y-178000000D03*
D20*
X114960000Y-192000000D03*
D21*
X117500000Y-192000000D03*
D22*
X101690000Y-87345000D02*
X100305000Y-85960000D01*
X101690000Y-88800000D02*
X101690000Y-87345000D01*
D23*
X103075000Y-115803640D02*
X103075000Y-85960000D01*
X98844949Y-120033691D02*
X103075000Y-115803640D01*
X98844949Y-131042890D02*
X98844949Y-120033691D01*
X97387839Y-132500000D02*
X98844949Y-131042890D01*
X88290000Y-131350000D02*
X88290000Y-130000000D01*
X89440000Y-132500000D02*
X88290000Y-131350000D01*
X97387839Y-132500000D02*
X89440000Y-132500000D01*
X129500000Y-182500000D02*
X129500000Y-192000000D01*
X131875030Y-180124970D02*
X129500000Y-182500000D01*
X131875030Y-102753670D02*
X131875030Y-180124970D01*
X130000030Y-100878670D02*
X131875030Y-102753670D01*
X130000030Y-86464668D02*
X130000030Y-100878670D01*
X108173654Y-82499976D02*
X126035338Y-82499976D01*
X105845000Y-84828630D02*
X108173654Y-82499976D01*
X126035338Y-82499976D02*
X130000030Y-86464668D01*
X105845000Y-85960000D02*
X105845000Y-84828630D01*
X131375020Y-174124980D02*
X131375020Y-102960780D01*
X129500000Y-176000000D02*
X131375020Y-174124980D01*
X131375020Y-102960780D02*
X129500020Y-101085780D01*
X129500000Y-178000000D02*
X129500000Y-176000000D01*
X129500020Y-86671778D02*
X129500020Y-101085780D01*
X125828226Y-82999984D02*
X129464121Y-86635879D01*
X108615000Y-85960000D02*
X111575016Y-82999984D01*
X111575016Y-82999984D02*
X125828226Y-82999984D01*
X130875010Y-103167890D02*
X129000010Y-101292890D01*
X130875010Y-160624990D02*
X130875010Y-103167890D01*
X129500000Y-162000000D02*
X130875010Y-160624990D01*
X129500000Y-164000000D02*
X129500000Y-162000000D01*
X129000010Y-86878888D02*
X129000010Y-101292890D01*
X125621114Y-83499992D02*
X129000010Y-86878888D01*
X113845008Y-83499992D02*
X125621114Y-83499992D01*
X111385000Y-85960000D02*
X113845008Y-83499992D01*
X129500000Y-147875000D02*
X129500000Y-150000000D01*
X130375000Y-103375000D02*
X130375000Y-147000000D01*
X130375000Y-147000000D02*
X129500000Y-147875000D01*
X128500000Y-101500000D02*
X130375000Y-103375000D01*
X128500000Y-87085998D02*
X128500000Y-101500000D01*
X114155000Y-85960000D02*
X116115000Y-84000000D01*
X125414002Y-84000000D02*
X128500000Y-87085998D01*
X116115000Y-84000000D02*
X125414002Y-84000000D01*
X99344959Y-120240801D02*
X104460000Y-115125760D01*
X104460000Y-115125760D02*
X104460000Y-88400000D01*
X99344959Y-131250000D02*
X99344959Y-120240801D01*
X93094959Y-137500000D02*
X99344959Y-131250000D01*
X93094959Y-137500000D02*
X88290000Y-137500000D01*
X99844969Y-120447911D02*
X116925000Y-103367880D01*
X102460000Y-192000000D02*
X99844969Y-189384969D01*
X99844969Y-189384969D02*
X99844969Y-120447911D01*
X118310000Y-101982880D02*
X116896440Y-103396440D01*
X118310000Y-88400000D02*
X118310000Y-101982880D01*
X100344979Y-175884979D02*
X102460000Y-178000000D01*
X100344979Y-120655021D02*
X100344979Y-175884979D01*
X121080000Y-88400000D02*
X121080000Y-99920000D01*
X121080000Y-99920000D02*
X100344979Y-120655021D01*
X100844989Y-120862131D02*
X100844989Y-162384989D01*
X100844989Y-162384989D02*
X102460000Y-164000000D01*
X123850000Y-88400000D02*
X123850000Y-97857120D01*
X123850000Y-97857120D02*
X100844989Y-120862131D01*
X124500000Y-98000000D02*
X101344999Y-121069241D01*
X126620000Y-88400000D02*
X126620000Y-95880000D01*
X101344999Y-148884999D02*
X102460000Y-150000000D01*
X101344999Y-121069241D02*
X101344999Y-148884999D01*
X126620000Y-95880000D02*
X124500000Y-98000000D01*
D22*
X93380000Y-87345000D02*
X94765000Y-85960000D01*
X93380000Y-88800000D02*
X93380000Y-87345000D01*
X96150000Y-87345000D02*
X94765000Y-85960000D01*
X96150000Y-88800000D02*
X96150000Y-87345000D01*
D23*
X105000000Y-145080000D02*
X102920000Y-143000000D01*
X105000000Y-150000000D02*
X105000000Y-145080000D01*
X105000000Y-159080000D02*
X102920000Y-157000000D01*
X105000000Y-164000000D02*
X105000000Y-159080000D01*
X105000000Y-173080000D02*
X102920000Y-171000000D01*
X105000000Y-178000000D02*
X105000000Y-173080000D01*
X105000000Y-187080000D02*
X102920000Y-185000000D01*
X105000000Y-192000000D02*
X105000000Y-187080000D01*
X82250000Y-104960000D02*
X85182880Y-104960000D01*
X97535000Y-92607880D02*
X97535000Y-85960000D01*
X85182880Y-104960000D02*
X97535000Y-92607880D01*
X98920000Y-89931370D02*
X98920000Y-88800000D01*
X98920000Y-91930000D02*
X98920000Y-89931370D01*
X83350000Y-107500000D02*
X98920000Y-91930000D01*
X82250000Y-107500000D02*
X83350000Y-107500000D01*
D24*
G36*
X137565424Y-81169580D02*
G01*
X137628356Y-81188580D01*
X137686405Y-81219445D01*
X137737343Y-81260989D01*
X137779248Y-81311644D01*
X137810515Y-81369471D01*
X137829956Y-81432272D01*
X137842824Y-81554708D01*
X137842740Y-81566801D01*
X137843640Y-81575972D01*
X137864041Y-81770069D01*
X137876068Y-81828658D01*
X137887277Y-81887423D01*
X137889941Y-81896245D01*
X137947653Y-82082683D01*
X137970838Y-82137838D01*
X137993242Y-82193291D01*
X137997568Y-82201427D01*
X138090393Y-82373104D01*
X138123846Y-82422699D01*
X138156600Y-82472753D01*
X138162424Y-82479894D01*
X138286828Y-82630272D01*
X138329263Y-82672411D01*
X138371126Y-82715161D01*
X138378227Y-82721034D01*
X138529469Y-82844384D01*
X138579277Y-82877477D01*
X138628651Y-82911284D01*
X138636757Y-82915667D01*
X138809080Y-83007292D01*
X138864392Y-83030090D01*
X138919366Y-83053652D01*
X138928169Y-83056377D01*
X139115006Y-83112786D01*
X139173686Y-83124405D01*
X139232196Y-83136842D01*
X139241361Y-83137805D01*
X139435594Y-83156850D01*
X139435598Y-83156850D01*
X139467581Y-83160000D01*
X141467721Y-83160000D01*
X141565424Y-83169580D01*
X141628356Y-83188580D01*
X141686405Y-83219445D01*
X141737343Y-83260989D01*
X141779248Y-83311644D01*
X141810515Y-83369471D01*
X141829956Y-83432272D01*
X141840000Y-83527835D01*
X141840001Y-196467711D01*
X141830420Y-196565424D01*
X141811420Y-196628357D01*
X141780554Y-196686406D01*
X141739011Y-196737343D01*
X141688356Y-196779248D01*
X141630529Y-196810515D01*
X141567728Y-196829956D01*
X141472165Y-196840000D01*
X139467581Y-196840000D01*
X139439326Y-196842783D01*
X139433199Y-196842740D01*
X139424028Y-196843640D01*
X139229931Y-196864041D01*
X139171348Y-196876066D01*
X139112577Y-196887277D01*
X139103755Y-196889941D01*
X138917317Y-196947653D01*
X138862162Y-196970838D01*
X138806709Y-196993242D01*
X138798573Y-196997568D01*
X138626896Y-197090393D01*
X138577278Y-197123861D01*
X138527247Y-197156600D01*
X138520106Y-197162424D01*
X138369728Y-197286828D01*
X138327589Y-197329263D01*
X138284839Y-197371126D01*
X138278966Y-197378227D01*
X138155616Y-197529469D01*
X138122534Y-197579262D01*
X138088716Y-197628651D01*
X138084333Y-197636757D01*
X137992708Y-197809079D01*
X137969909Y-197864394D01*
X137946348Y-197919366D01*
X137943623Y-197928169D01*
X137887214Y-198115005D01*
X137875594Y-198173693D01*
X137863158Y-198232196D01*
X137862195Y-198241361D01*
X137843150Y-198435595D01*
X137830420Y-198565424D01*
X137811420Y-198628357D01*
X137780554Y-198686406D01*
X137739011Y-198737343D01*
X137688356Y-198779248D01*
X137630529Y-198810515D01*
X137567728Y-198829956D01*
X137472165Y-198840000D01*
X82532279Y-198840000D01*
X82434576Y-198830420D01*
X82371643Y-198811420D01*
X82313594Y-198780554D01*
X82262657Y-198739011D01*
X82220752Y-198688356D01*
X82189485Y-198630529D01*
X82170044Y-198567728D01*
X82157176Y-198445292D01*
X82157260Y-198433199D01*
X82156360Y-198424028D01*
X82135959Y-198229931D01*
X82123934Y-198171348D01*
X82112723Y-198112577D01*
X82110059Y-198103755D01*
X82052347Y-197917317D01*
X82029162Y-197862162D01*
X82006758Y-197806709D01*
X82002432Y-197798573D01*
X81909607Y-197626896D01*
X81876139Y-197577278D01*
X81843400Y-197527247D01*
X81837576Y-197520106D01*
X81713172Y-197369728D01*
X81670737Y-197327589D01*
X81628874Y-197284839D01*
X81621773Y-197278966D01*
X81470531Y-197155616D01*
X81420738Y-197122534D01*
X81371349Y-197088716D01*
X81363243Y-197084333D01*
X81190921Y-196992708D01*
X81135606Y-196969909D01*
X81080634Y-196946348D01*
X81071831Y-196943623D01*
X80884995Y-196887214D01*
X80826307Y-196875594D01*
X80767804Y-196863158D01*
X80758639Y-196862195D01*
X80564405Y-196843150D01*
X80564402Y-196843150D01*
X80532419Y-196840000D01*
X78532279Y-196840000D01*
X78434576Y-196830420D01*
X78371643Y-196811420D01*
X78313594Y-196780554D01*
X78262657Y-196739011D01*
X78220752Y-196688356D01*
X78189485Y-196630529D01*
X78170044Y-196567728D01*
X78160000Y-196472165D01*
X78160000Y-191419679D01*
X84265000Y-191419679D01*
X84265000Y-192580322D01*
X84288657Y-192820516D01*
X84382148Y-193128715D01*
X84533970Y-193412752D01*
X84738287Y-193661714D01*
X84987249Y-193866031D01*
X85271286Y-194017852D01*
X85579485Y-194111343D01*
X85900000Y-194142911D01*
X86220516Y-194111343D01*
X86528715Y-194017852D01*
X86812752Y-193866031D01*
X87061714Y-193661714D01*
X87266031Y-193412752D01*
X87417852Y-193128715D01*
X87511343Y-192820516D01*
X87535000Y-192580322D01*
X87535000Y-191419679D01*
X88865000Y-191419679D01*
X88865000Y-192580322D01*
X88888657Y-192820516D01*
X88982148Y-193128715D01*
X89133970Y-193412752D01*
X89338287Y-193661714D01*
X89587249Y-193866031D01*
X89871286Y-194017852D01*
X90179485Y-194111343D01*
X90500000Y-194142911D01*
X90820516Y-194111343D01*
X91128715Y-194017852D01*
X91412752Y-193866031D01*
X91661714Y-193661714D01*
X91866031Y-193412752D01*
X92017852Y-193128715D01*
X92111343Y-192820516D01*
X92135000Y-192580322D01*
X92135000Y-191419679D01*
X93465000Y-191419679D01*
X93465000Y-192580322D01*
X93488657Y-192820516D01*
X93582148Y-193128715D01*
X93733970Y-193412752D01*
X93938287Y-193661714D01*
X94187249Y-193866031D01*
X94471286Y-194017852D01*
X94779485Y-194111343D01*
X95100000Y-194142911D01*
X95420516Y-194111343D01*
X95728715Y-194017852D01*
X96012752Y-193866031D01*
X96261714Y-193661714D01*
X96466031Y-193412752D01*
X96617852Y-193128715D01*
X96711343Y-192820516D01*
X96735000Y-192580322D01*
X96735000Y-191419678D01*
X96711343Y-191179484D01*
X96617852Y-190871285D01*
X96466031Y-190587248D01*
X96261714Y-190338286D01*
X96012751Y-190133969D01*
X95728714Y-189982148D01*
X95420515Y-189888657D01*
X95100000Y-189857089D01*
X94779484Y-189888657D01*
X94471285Y-189982148D01*
X94187248Y-190133969D01*
X93938286Y-190338286D01*
X93733969Y-190587249D01*
X93582148Y-190871286D01*
X93488657Y-191179485D01*
X93465000Y-191419679D01*
X92135000Y-191419679D01*
X92135000Y-191419678D01*
X92111343Y-191179484D01*
X92017852Y-190871285D01*
X91866031Y-190587248D01*
X91661714Y-190338286D01*
X91412751Y-190133969D01*
X91128714Y-189982148D01*
X90820515Y-189888657D01*
X90500000Y-189857089D01*
X90179484Y-189888657D01*
X89871285Y-189982148D01*
X89587248Y-190133969D01*
X89338286Y-190338286D01*
X89133969Y-190587249D01*
X88982148Y-190871286D01*
X88888657Y-191179485D01*
X88865000Y-191419679D01*
X87535000Y-191419679D01*
X87535000Y-191419678D01*
X87511343Y-191179484D01*
X87417852Y-190871285D01*
X87266031Y-190587248D01*
X87061714Y-190338286D01*
X86812751Y-190133969D01*
X86528714Y-189982148D01*
X86220515Y-189888657D01*
X85900000Y-189857089D01*
X85579484Y-189888657D01*
X85271285Y-189982148D01*
X84987248Y-190133969D01*
X84738286Y-190338286D01*
X84533969Y-190587249D01*
X84382148Y-190871286D01*
X84288657Y-191179485D01*
X84265000Y-191419679D01*
X78160000Y-191419679D01*
X78160000Y-184761818D01*
X85081701Y-184761818D01*
X85081701Y-185238182D01*
X85174635Y-185705392D01*
X85356931Y-186145494D01*
X85621585Y-186541576D01*
X85958424Y-186878415D01*
X86354506Y-187143069D01*
X86794608Y-187325365D01*
X87261818Y-187418299D01*
X87738182Y-187418299D01*
X88205392Y-187325365D01*
X88645494Y-187143069D01*
X89041576Y-186878415D01*
X89378415Y-186541576D01*
X89643069Y-186145494D01*
X89825365Y-185705392D01*
X89918299Y-185238182D01*
X89918299Y-184761818D01*
X89825365Y-184294608D01*
X89643069Y-183854506D01*
X89378415Y-183458424D01*
X89041576Y-183121585D01*
X88645494Y-182856931D01*
X88205392Y-182674635D01*
X87738182Y-182581701D01*
X87261818Y-182581701D01*
X86794608Y-182674635D01*
X86354506Y-182856931D01*
X85958424Y-183121585D01*
X85621585Y-183458424D01*
X85356931Y-183854506D01*
X85174635Y-184294608D01*
X85081701Y-184761818D01*
X78160000Y-184761818D01*
X78160000Y-177419679D01*
X84265000Y-177419679D01*
X84265000Y-178580322D01*
X84288657Y-178820516D01*
X84382148Y-179128715D01*
X84533970Y-179412752D01*
X84738287Y-179661714D01*
X84987249Y-179866031D01*
X85271286Y-180017852D01*
X85579485Y-180111343D01*
X85900000Y-180142911D01*
X86220516Y-180111343D01*
X86528715Y-180017852D01*
X86812752Y-179866031D01*
X87061714Y-179661714D01*
X87266031Y-179412752D01*
X87417852Y-179128715D01*
X87511343Y-178820516D01*
X87535000Y-178580322D01*
X87535000Y-177419679D01*
X88865000Y-177419679D01*
X88865000Y-178580322D01*
X88888657Y-178820516D01*
X88982148Y-179128715D01*
X89133970Y-179412752D01*
X89338287Y-179661714D01*
X89587249Y-179866031D01*
X89871286Y-180017852D01*
X90179485Y-180111343D01*
X90500000Y-180142911D01*
X90820516Y-180111343D01*
X91128715Y-180017852D01*
X91412752Y-179866031D01*
X91661714Y-179661714D01*
X91866031Y-179412752D01*
X92017852Y-179128715D01*
X92111343Y-178820516D01*
X92135000Y-178580322D01*
X92135000Y-177419679D01*
X93465000Y-177419679D01*
X93465000Y-178580322D01*
X93488657Y-178820516D01*
X93582148Y-179128715D01*
X93733970Y-179412752D01*
X93938287Y-179661714D01*
X94187249Y-179866031D01*
X94471286Y-180017852D01*
X94779485Y-180111343D01*
X95100000Y-180142911D01*
X95420516Y-180111343D01*
X95728715Y-180017852D01*
X96012752Y-179866031D01*
X96261714Y-179661714D01*
X96466031Y-179412752D01*
X96617852Y-179128715D01*
X96711343Y-178820516D01*
X96735000Y-178580322D01*
X96735000Y-177419678D01*
X96711343Y-177179484D01*
X96617852Y-176871285D01*
X96466031Y-176587248D01*
X96261714Y-176338286D01*
X96012751Y-176133969D01*
X95728714Y-175982148D01*
X95420515Y-175888657D01*
X95100000Y-175857089D01*
X94779484Y-175888657D01*
X94471285Y-175982148D01*
X94187248Y-176133969D01*
X93938286Y-176338286D01*
X93733969Y-176587249D01*
X93582148Y-176871286D01*
X93488657Y-177179485D01*
X93465000Y-177419679D01*
X92135000Y-177419679D01*
X92135000Y-177419678D01*
X92111343Y-177179484D01*
X92017852Y-176871285D01*
X91866031Y-176587248D01*
X91661714Y-176338286D01*
X91412751Y-176133969D01*
X91128714Y-175982148D01*
X90820515Y-175888657D01*
X90500000Y-175857089D01*
X90179484Y-175888657D01*
X89871285Y-175982148D01*
X89587248Y-176133969D01*
X89338286Y-176338286D01*
X89133969Y-176587249D01*
X88982148Y-176871286D01*
X88888657Y-177179485D01*
X88865000Y-177419679D01*
X87535000Y-177419679D01*
X87535000Y-177419678D01*
X87511343Y-177179484D01*
X87417852Y-176871285D01*
X87266031Y-176587248D01*
X87061714Y-176338286D01*
X86812751Y-176133969D01*
X86528714Y-175982148D01*
X86220515Y-175888657D01*
X85900000Y-175857089D01*
X85579484Y-175888657D01*
X85271285Y-175982148D01*
X84987248Y-176133969D01*
X84738286Y-176338286D01*
X84533969Y-176587249D01*
X84382148Y-176871286D01*
X84288657Y-177179485D01*
X84265000Y-177419679D01*
X78160000Y-177419679D01*
X78160000Y-163419679D01*
X84265000Y-163419679D01*
X84265000Y-164580322D01*
X84288657Y-164820516D01*
X84382148Y-165128715D01*
X84533970Y-165412752D01*
X84738287Y-165661714D01*
X84987249Y-165866031D01*
X85271286Y-166017852D01*
X85579485Y-166111343D01*
X85900000Y-166142911D01*
X86220516Y-166111343D01*
X86528715Y-166017852D01*
X86812752Y-165866031D01*
X87061714Y-165661714D01*
X87266031Y-165412752D01*
X87417852Y-165128715D01*
X87511343Y-164820516D01*
X87535000Y-164580322D01*
X87535000Y-163419679D01*
X88865000Y-163419679D01*
X88865000Y-164580322D01*
X88888657Y-164820516D01*
X88982148Y-165128715D01*
X89133970Y-165412752D01*
X89338287Y-165661714D01*
X89587249Y-165866031D01*
X89871286Y-166017852D01*
X90179485Y-166111343D01*
X90500000Y-166142911D01*
X90820516Y-166111343D01*
X91128715Y-166017852D01*
X91412752Y-165866031D01*
X91661714Y-165661714D01*
X91866031Y-165412752D01*
X92017852Y-165128715D01*
X92111343Y-164820516D01*
X92135000Y-164580322D01*
X92135000Y-163419679D01*
X93465000Y-163419679D01*
X93465000Y-164580322D01*
X93488657Y-164820516D01*
X93582148Y-165128715D01*
X93733970Y-165412752D01*
X93938287Y-165661714D01*
X94187249Y-165866031D01*
X94471286Y-166017852D01*
X94779485Y-166111343D01*
X95100000Y-166142911D01*
X95420516Y-166111343D01*
X95728715Y-166017852D01*
X96012752Y-165866031D01*
X96261714Y-165661714D01*
X96466031Y-165412752D01*
X96617852Y-165128715D01*
X96711343Y-164820516D01*
X96735000Y-164580322D01*
X96735000Y-163419678D01*
X96711343Y-163179484D01*
X96617852Y-162871285D01*
X96466031Y-162587248D01*
X96261714Y-162338286D01*
X96012751Y-162133969D01*
X95728714Y-161982148D01*
X95420515Y-161888657D01*
X95100000Y-161857089D01*
X94779484Y-161888657D01*
X94471285Y-161982148D01*
X94187248Y-162133969D01*
X93938286Y-162338286D01*
X93733969Y-162587249D01*
X93582148Y-162871286D01*
X93488657Y-163179485D01*
X93465000Y-163419679D01*
X92135000Y-163419679D01*
X92135000Y-163419678D01*
X92111343Y-163179484D01*
X92017852Y-162871285D01*
X91866031Y-162587248D01*
X91661714Y-162338286D01*
X91412751Y-162133969D01*
X91128714Y-161982148D01*
X90820515Y-161888657D01*
X90500000Y-161857089D01*
X90179484Y-161888657D01*
X89871285Y-161982148D01*
X89587248Y-162133969D01*
X89338286Y-162338286D01*
X89133969Y-162587249D01*
X88982148Y-162871286D01*
X88888657Y-163179485D01*
X88865000Y-163419679D01*
X87535000Y-163419679D01*
X87535000Y-163419678D01*
X87511343Y-163179484D01*
X87417852Y-162871285D01*
X87266031Y-162587248D01*
X87061714Y-162338286D01*
X86812751Y-162133969D01*
X86528714Y-161982148D01*
X86220515Y-161888657D01*
X85900000Y-161857089D01*
X85579484Y-161888657D01*
X85271285Y-161982148D01*
X84987248Y-162133969D01*
X84738286Y-162338286D01*
X84533969Y-162587249D01*
X84382148Y-162871286D01*
X84288657Y-163179485D01*
X84265000Y-163419679D01*
X78160000Y-163419679D01*
X78160000Y-149419679D01*
X84265000Y-149419679D01*
X84265000Y-150580322D01*
X84288657Y-150820516D01*
X84382148Y-151128715D01*
X84533970Y-151412752D01*
X84738287Y-151661714D01*
X84987249Y-151866031D01*
X85271286Y-152017852D01*
X85579485Y-152111343D01*
X85900000Y-152142911D01*
X86220516Y-152111343D01*
X86528715Y-152017852D01*
X86812752Y-151866031D01*
X87061714Y-151661714D01*
X87266031Y-151412752D01*
X87417852Y-151128715D01*
X87511343Y-150820516D01*
X87535000Y-150580322D01*
X87535000Y-149419679D01*
X88865000Y-149419679D01*
X88865000Y-150580322D01*
X88888657Y-150820516D01*
X88982148Y-151128715D01*
X89133970Y-151412752D01*
X89338287Y-151661714D01*
X89587249Y-151866031D01*
X89871286Y-152017852D01*
X90179485Y-152111343D01*
X90500000Y-152142911D01*
X90820516Y-152111343D01*
X91128715Y-152017852D01*
X91412752Y-151866031D01*
X91661714Y-151661714D01*
X91866031Y-151412752D01*
X92017852Y-151128715D01*
X92111343Y-150820516D01*
X92135000Y-150580322D01*
X92135000Y-149419679D01*
X93465000Y-149419679D01*
X93465000Y-150580322D01*
X93488657Y-150820516D01*
X93582148Y-151128715D01*
X93733970Y-151412752D01*
X93938287Y-151661714D01*
X94187249Y-151866031D01*
X94471286Y-152017852D01*
X94779485Y-152111343D01*
X95100000Y-152142911D01*
X95420516Y-152111343D01*
X95728715Y-152017852D01*
X96012752Y-151866031D01*
X96261714Y-151661714D01*
X96466031Y-151412752D01*
X96617852Y-151128715D01*
X96711343Y-150820516D01*
X96735000Y-150580322D01*
X96735000Y-149419678D01*
X96711343Y-149179484D01*
X96617852Y-148871285D01*
X96466031Y-148587248D01*
X96261714Y-148338286D01*
X96012751Y-148133969D01*
X95728714Y-147982148D01*
X95420515Y-147888657D01*
X95100000Y-147857089D01*
X94779484Y-147888657D01*
X94471285Y-147982148D01*
X94187248Y-148133969D01*
X93938286Y-148338286D01*
X93733969Y-148587249D01*
X93582148Y-148871286D01*
X93488657Y-149179485D01*
X93465000Y-149419679D01*
X92135000Y-149419679D01*
X92135000Y-149419678D01*
X92111343Y-149179484D01*
X92017852Y-148871285D01*
X91866031Y-148587248D01*
X91661714Y-148338286D01*
X91412751Y-148133969D01*
X91128714Y-147982148D01*
X90820515Y-147888657D01*
X90500000Y-147857089D01*
X90179484Y-147888657D01*
X89871285Y-147982148D01*
X89587248Y-148133969D01*
X89338286Y-148338286D01*
X89133969Y-148587249D01*
X88982148Y-148871286D01*
X88888657Y-149179485D01*
X88865000Y-149419679D01*
X87535000Y-149419679D01*
X87535000Y-149419678D01*
X87511343Y-149179484D01*
X87417852Y-148871285D01*
X87266031Y-148587248D01*
X87061714Y-148338286D01*
X86812751Y-148133969D01*
X86528714Y-147982148D01*
X86220515Y-147888657D01*
X85900000Y-147857089D01*
X85579484Y-147888657D01*
X85271285Y-147982148D01*
X84987248Y-148133969D01*
X84738286Y-148338286D01*
X84533969Y-148587249D01*
X84382148Y-148871286D01*
X84288657Y-149179485D01*
X84265000Y-149419679D01*
X78160000Y-149419679D01*
X78160000Y-138600000D01*
X81701928Y-138600000D01*
X81714188Y-138724482D01*
X81750498Y-138844180D01*
X81809463Y-138954494D01*
X81888815Y-139051185D01*
X81985506Y-139130537D01*
X82095820Y-139189502D01*
X82215518Y-139225812D01*
X82340000Y-139238072D01*
X82924250Y-139235000D01*
X83083000Y-139076250D01*
X83083000Y-137627000D01*
X81863750Y-137627000D01*
X81705000Y-137785750D01*
X81701928Y-138600000D01*
X78160000Y-138600000D01*
X78160000Y-136400000D01*
X81701928Y-136400000D01*
X81705000Y-137214250D01*
X81863750Y-137373000D01*
X83083000Y-137373000D01*
X83083000Y-135923750D01*
X82924250Y-135765000D01*
X82340000Y-135761928D01*
X82215518Y-135774188D01*
X82095820Y-135810498D01*
X81985506Y-135869463D01*
X81888815Y-135948815D01*
X81809463Y-136045506D01*
X81750498Y-136155820D01*
X81714188Y-136275518D01*
X81701928Y-136400000D01*
X78160000Y-136400000D01*
X78160000Y-131100000D01*
X81701928Y-131100000D01*
X81714188Y-131224482D01*
X81750498Y-131344180D01*
X81809463Y-131454494D01*
X81888815Y-131551185D01*
X81985506Y-131630537D01*
X82095820Y-131689502D01*
X82215518Y-131725812D01*
X82340000Y-131738072D01*
X82924250Y-131735000D01*
X83083000Y-131576250D01*
X83083000Y-130127000D01*
X81863750Y-130127000D01*
X81705000Y-130285750D01*
X81701928Y-131100000D01*
X78160000Y-131100000D01*
X78160000Y-128900000D01*
X81701928Y-128900000D01*
X81705000Y-129714250D01*
X81863750Y-129873000D01*
X83083000Y-129873000D01*
X83083000Y-128423750D01*
X82924250Y-128265000D01*
X82340000Y-128261928D01*
X82215518Y-128274188D01*
X82095820Y-128310498D01*
X81985506Y-128369463D01*
X81888815Y-128448815D01*
X81809463Y-128545506D01*
X81750498Y-128655820D01*
X81714188Y-128775518D01*
X81701928Y-128900000D01*
X78160000Y-128900000D01*
X78160000Y-122819268D01*
X81585000Y-122819268D01*
X81585000Y-123180732D01*
X81655518Y-123535250D01*
X81793844Y-123869199D01*
X81994662Y-124169744D01*
X82250256Y-124425338D01*
X82550801Y-124626156D01*
X82884750Y-124764482D01*
X83239268Y-124835000D01*
X83600732Y-124835000D01*
X83955250Y-124764482D01*
X84289199Y-124626156D01*
X84589744Y-124425338D01*
X84845338Y-124169744D01*
X85046156Y-123869199D01*
X85184482Y-123535250D01*
X85255000Y-123180732D01*
X85255000Y-122819268D01*
X86665000Y-122819268D01*
X86665000Y-123180732D01*
X86735518Y-123535250D01*
X86873844Y-123869199D01*
X87074662Y-124169744D01*
X87330256Y-124425338D01*
X87630801Y-124626156D01*
X87964750Y-124764482D01*
X88319268Y-124835000D01*
X88680732Y-124835000D01*
X89035250Y-124764482D01*
X89369199Y-124626156D01*
X89669744Y-124425338D01*
X89925338Y-124169744D01*
X90126156Y-123869199D01*
X90264482Y-123535250D01*
X90335000Y-123180732D01*
X90335000Y-122819268D01*
X90264482Y-122464750D01*
X90126156Y-122130801D01*
X89925338Y-121830256D01*
X89669744Y-121574662D01*
X89369199Y-121373844D01*
X89035250Y-121235518D01*
X88680732Y-121165000D01*
X88319268Y-121165000D01*
X87964750Y-121235518D01*
X87630801Y-121373844D01*
X87330256Y-121574662D01*
X87074662Y-121830256D01*
X86873844Y-122130801D01*
X86735518Y-122464750D01*
X86665000Y-122819268D01*
X85255000Y-122819268D01*
X85184482Y-122464750D01*
X85046156Y-122130801D01*
X84845338Y-121830256D01*
X84589744Y-121574662D01*
X84289199Y-121373844D01*
X83955250Y-121235518D01*
X83600732Y-121165000D01*
X83239268Y-121165000D01*
X82884750Y-121235518D01*
X82550801Y-121373844D01*
X82250256Y-121574662D01*
X81994662Y-121830256D01*
X81793844Y-122130801D01*
X81655518Y-122464750D01*
X81585000Y-122819268D01*
X78160000Y-122819268D01*
X78160000Y-106650000D01*
X80761928Y-106650000D01*
X80761928Y-108350000D01*
X80774188Y-108474482D01*
X80810498Y-108594180D01*
X80869463Y-108704494D01*
X80948815Y-108801185D01*
X81045506Y-108880537D01*
X81155820Y-108939502D01*
X81275518Y-108975812D01*
X81400000Y-108988072D01*
X83100000Y-108988072D01*
X83224482Y-108975812D01*
X83344180Y-108939502D01*
X83454494Y-108880537D01*
X83551185Y-108801185D01*
X83630537Y-108704494D01*
X83689502Y-108594180D01*
X83725812Y-108474482D01*
X83738072Y-108350000D01*
X83738072Y-108154326D01*
X83774276Y-108134974D01*
X83890001Y-108040001D01*
X83913804Y-108010997D01*
X99431004Y-92493798D01*
X99460001Y-92470001D01*
X99554974Y-92354276D01*
X99625546Y-92222247D01*
X99669003Y-92078986D01*
X99680000Y-91967333D01*
X99680000Y-91967324D01*
X99683676Y-91930001D01*
X99680000Y-91892678D01*
X99680000Y-90018043D01*
X99834759Y-89914637D01*
X100034637Y-89714759D01*
X100191680Y-89479727D01*
X100299853Y-89218574D01*
X100305000Y-89192699D01*
X100310147Y-89218574D01*
X100418320Y-89479727D01*
X100575363Y-89714759D01*
X100775241Y-89914637D01*
X101010273Y-90071680D01*
X101271426Y-90179853D01*
X101548665Y-90235000D01*
X101831335Y-90235000D01*
X102108574Y-90179853D01*
X102315001Y-90094348D01*
X102315000Y-115488837D01*
X98333947Y-119469892D01*
X98304949Y-119493690D01*
X98281151Y-119522688D01*
X98281150Y-119522689D01*
X98209975Y-119609415D01*
X98139403Y-119741445D01*
X98117717Y-119812937D01*
X98095947Y-119884705D01*
X98090805Y-119936909D01*
X98081273Y-120033691D01*
X98084950Y-120071023D01*
X98084949Y-130728088D01*
X97073038Y-131740000D01*
X89754802Y-131740000D01*
X89334520Y-131319718D01*
X89359345Y-131299345D01*
X89547417Y-131070179D01*
X89687166Y-130808724D01*
X89773224Y-130525031D01*
X89795000Y-130303935D01*
X89795000Y-129696064D01*
X89773224Y-129474968D01*
X89687166Y-129191275D01*
X89547417Y-128929821D01*
X89359345Y-128700655D01*
X89130178Y-128512583D01*
X88868724Y-128372834D01*
X88585031Y-128286776D01*
X88290000Y-128257718D01*
X87994968Y-128286776D01*
X87711275Y-128372834D01*
X87449821Y-128512583D01*
X87220655Y-128700655D01*
X87032583Y-128929822D01*
X87020000Y-128953363D01*
X87007417Y-128929821D01*
X86819345Y-128700655D01*
X86590178Y-128512583D01*
X86328724Y-128372834D01*
X86045031Y-128286776D01*
X85750000Y-128257718D01*
X85454968Y-128286776D01*
X85171275Y-128372834D01*
X84909821Y-128512583D01*
X84682615Y-128699047D01*
X84669502Y-128655820D01*
X84610537Y-128545506D01*
X84531185Y-128448815D01*
X84434494Y-128369463D01*
X84324180Y-128310498D01*
X84204482Y-128274188D01*
X84080000Y-128261928D01*
X83495750Y-128265000D01*
X83337000Y-128423750D01*
X83337000Y-129873000D01*
X83357000Y-129873000D01*
X83357000Y-130127000D01*
X83337000Y-130127000D01*
X83337000Y-131576250D01*
X83495750Y-131735000D01*
X84080000Y-131738072D01*
X84204482Y-131725812D01*
X84324180Y-131689502D01*
X84434494Y-131630537D01*
X84531185Y-131551185D01*
X84610537Y-131454494D01*
X84669502Y-131344180D01*
X84682615Y-131300953D01*
X84909822Y-131487417D01*
X85171276Y-131627166D01*
X85454969Y-131713224D01*
X85750000Y-131742282D01*
X86045032Y-131713224D01*
X86328725Y-131627166D01*
X86590179Y-131487417D01*
X86819345Y-131299345D01*
X87007417Y-131070179D01*
X87020000Y-131046638D01*
X87032583Y-131070179D01*
X87220655Y-131299345D01*
X87449822Y-131487417D01*
X87554453Y-131543343D01*
X87579880Y-131627166D01*
X87584454Y-131642246D01*
X87655026Y-131774276D01*
X87671586Y-131794454D01*
X87749999Y-131890001D01*
X87779003Y-131913804D01*
X88876201Y-133011003D01*
X88899999Y-133040001D01*
X88928997Y-133063799D01*
X89015724Y-133134974D01*
X89147753Y-133205546D01*
X89291014Y-133249003D01*
X89440000Y-133263677D01*
X89477333Y-133260000D01*
X96260157Y-133260000D01*
X92780158Y-136740000D01*
X89701947Y-136740000D01*
X89687166Y-136691275D01*
X89547417Y-136429821D01*
X89359345Y-136200655D01*
X89130178Y-136012583D01*
X88868724Y-135872834D01*
X88585031Y-135786776D01*
X88290000Y-135757718D01*
X87994968Y-135786776D01*
X87711275Y-135872834D01*
X87449821Y-136012583D01*
X87220655Y-136200655D01*
X87032583Y-136429822D01*
X87020000Y-136453363D01*
X87007417Y-136429821D01*
X86819345Y-136200655D01*
X86590178Y-136012583D01*
X86328724Y-135872834D01*
X86045031Y-135786776D01*
X85750000Y-135757718D01*
X85454968Y-135786776D01*
X85171275Y-135872834D01*
X84909821Y-136012583D01*
X84682615Y-136199047D01*
X84669502Y-136155820D01*
X84610537Y-136045506D01*
X84531185Y-135948815D01*
X84434494Y-135869463D01*
X84324180Y-135810498D01*
X84204482Y-135774188D01*
X84080000Y-135761928D01*
X83495750Y-135765000D01*
X83337000Y-135923750D01*
X83337000Y-137373000D01*
X83357000Y-137373000D01*
X83357000Y-137627000D01*
X83337000Y-137627000D01*
X83337000Y-139076250D01*
X83495750Y-139235000D01*
X84080000Y-139238072D01*
X84204482Y-139225812D01*
X84324180Y-139189502D01*
X84434494Y-139130537D01*
X84531185Y-139051185D01*
X84610537Y-138954494D01*
X84669502Y-138844180D01*
X84682615Y-138800953D01*
X84909822Y-138987417D01*
X85171276Y-139127166D01*
X85454969Y-139213224D01*
X85750000Y-139242282D01*
X86045032Y-139213224D01*
X86328725Y-139127166D01*
X86590179Y-138987417D01*
X86819345Y-138799345D01*
X87007417Y-138570179D01*
X87020000Y-138546638D01*
X87032583Y-138570179D01*
X87220655Y-138799345D01*
X87449822Y-138987417D01*
X87711276Y-139127166D01*
X87994969Y-139213224D01*
X88290000Y-139242282D01*
X88585032Y-139213224D01*
X88868725Y-139127166D01*
X89130179Y-138987417D01*
X89359345Y-138799345D01*
X89547417Y-138570179D01*
X89687166Y-138308724D01*
X89701946Y-138260000D01*
X93057637Y-138260000D01*
X93094959Y-138263676D01*
X93132281Y-138260000D01*
X93132292Y-138260000D01*
X93243945Y-138249003D01*
X93387206Y-138205546D01*
X93519235Y-138134974D01*
X93634960Y-138040001D01*
X93658763Y-138010997D01*
X99084970Y-132584791D01*
X99084969Y-189347647D01*
X99081293Y-189384969D01*
X99084969Y-189422291D01*
X99084969Y-189422301D01*
X99095966Y-189533954D01*
X99139423Y-189677215D01*
X99209995Y-189809245D01*
X99249260Y-189857089D01*
X99304968Y-189924970D01*
X99333972Y-189948773D01*
X100976269Y-191591070D01*
X100925000Y-191848816D01*
X100925000Y-192151184D01*
X100983989Y-192447743D01*
X101099701Y-192727095D01*
X101267688Y-192978505D01*
X101481495Y-193192312D01*
X101732905Y-193360299D01*
X102012257Y-193476011D01*
X102308816Y-193535000D01*
X102611184Y-193535000D01*
X102907743Y-193476011D01*
X103187095Y-193360299D01*
X103438505Y-193192312D01*
X103504944Y-193125873D01*
X103510498Y-193144180D01*
X103569463Y-193254494D01*
X103648815Y-193351185D01*
X103745506Y-193430537D01*
X103855820Y-193489502D01*
X103975518Y-193525812D01*
X104100000Y-193538072D01*
X105900000Y-193538072D01*
X106024482Y-193525812D01*
X106144180Y-193489502D01*
X106254494Y-193430537D01*
X106351185Y-193351185D01*
X106430537Y-193254494D01*
X106489502Y-193144180D01*
X106525812Y-193024482D01*
X106538072Y-192900000D01*
X106538072Y-191848816D01*
X113425000Y-191848816D01*
X113425000Y-192151184D01*
X113483989Y-192447743D01*
X113599701Y-192727095D01*
X113767688Y-192978505D01*
X113981495Y-193192312D01*
X114232905Y-193360299D01*
X114512257Y-193476011D01*
X114808816Y-193535000D01*
X115111184Y-193535000D01*
X115407743Y-193476011D01*
X115687095Y-193360299D01*
X115938505Y-193192312D01*
X116004944Y-193125873D01*
X116010498Y-193144180D01*
X116069463Y-193254494D01*
X116148815Y-193351185D01*
X116245506Y-193430537D01*
X116355820Y-193489502D01*
X116475518Y-193525812D01*
X116600000Y-193538072D01*
X118400000Y-193538072D01*
X118524482Y-193525812D01*
X118644180Y-193489502D01*
X118754494Y-193430537D01*
X118851185Y-193351185D01*
X118930537Y-193254494D01*
X118989502Y-193144180D01*
X119025812Y-193024482D01*
X119038072Y-192900000D01*
X119038072Y-191419679D01*
X123265000Y-191419679D01*
X123265000Y-192580322D01*
X123288657Y-192820516D01*
X123382148Y-193128715D01*
X123533970Y-193412752D01*
X123738287Y-193661714D01*
X123987249Y-193866031D01*
X124271286Y-194017852D01*
X124579485Y-194111343D01*
X124900000Y-194142911D01*
X125220516Y-194111343D01*
X125528715Y-194017852D01*
X125812752Y-193866031D01*
X126061714Y-193661714D01*
X126266031Y-193412752D01*
X126417852Y-193128715D01*
X126511343Y-192820516D01*
X126535000Y-192580322D01*
X126535000Y-191419678D01*
X126511343Y-191179484D01*
X126417852Y-190871285D01*
X126266031Y-190587248D01*
X126061714Y-190338286D01*
X125812751Y-190133969D01*
X125528714Y-189982148D01*
X125220515Y-189888657D01*
X124900000Y-189857089D01*
X124579484Y-189888657D01*
X124271285Y-189982148D01*
X123987248Y-190133969D01*
X123738286Y-190338286D01*
X123533969Y-190587249D01*
X123382148Y-190871286D01*
X123288657Y-191179485D01*
X123265000Y-191419679D01*
X119038072Y-191419679D01*
X119038072Y-191100000D01*
X119025812Y-190975518D01*
X118989502Y-190855820D01*
X118930537Y-190745506D01*
X118851185Y-190648815D01*
X118754494Y-190569463D01*
X118644180Y-190510498D01*
X118524482Y-190474188D01*
X118400000Y-190461928D01*
X116600000Y-190461928D01*
X116475518Y-190474188D01*
X116355820Y-190510498D01*
X116245506Y-190569463D01*
X116148815Y-190648815D01*
X116069463Y-190745506D01*
X116010498Y-190855820D01*
X116004944Y-190874127D01*
X115938505Y-190807688D01*
X115687095Y-190639701D01*
X115407743Y-190523989D01*
X115111184Y-190465000D01*
X114808816Y-190465000D01*
X114512257Y-190523989D01*
X114232905Y-190639701D01*
X113981495Y-190807688D01*
X113767688Y-191021495D01*
X113599701Y-191272905D01*
X113483989Y-191552257D01*
X113425000Y-191848816D01*
X106538072Y-191848816D01*
X106538072Y-191100000D01*
X106525812Y-190975518D01*
X106489502Y-190855820D01*
X106430537Y-190745506D01*
X106351185Y-190648815D01*
X106254494Y-190569463D01*
X106144180Y-190510498D01*
X106024482Y-190474188D01*
X105900000Y-190461928D01*
X105760000Y-190461928D01*
X105760000Y-187117322D01*
X105763676Y-187079999D01*
X105760000Y-187042676D01*
X105760000Y-187042667D01*
X105749003Y-186931014D01*
X105705546Y-186787753D01*
X105634974Y-186655724D01*
X105540001Y-186539999D01*
X105511003Y-186516201D01*
X104639250Y-185644449D01*
X104684482Y-185535250D01*
X104709036Y-185411805D01*
X106211805Y-185411805D01*
X106284379Y-185651066D01*
X106444361Y-185973257D01*
X106664125Y-186258046D01*
X106935226Y-186494489D01*
X107247246Y-186673500D01*
X107588194Y-186788199D01*
X107873000Y-186671854D01*
X107873000Y-185127000D01*
X108127000Y-185127000D01*
X108127000Y-186671854D01*
X108411806Y-186788199D01*
X108752754Y-186673500D01*
X109064774Y-186494489D01*
X109335875Y-186258046D01*
X109555639Y-185973257D01*
X109715621Y-185651066D01*
X109788195Y-185411805D01*
X110211805Y-185411805D01*
X110284379Y-185651066D01*
X110444361Y-185973257D01*
X110664125Y-186258046D01*
X110935226Y-186494489D01*
X111247246Y-186673500D01*
X111588194Y-186788199D01*
X111873000Y-186671854D01*
X111873000Y-185127000D01*
X112127000Y-185127000D01*
X112127000Y-186671854D01*
X112411806Y-186788199D01*
X112752754Y-186673500D01*
X113064774Y-186494489D01*
X113335875Y-186258046D01*
X113555639Y-185973257D01*
X113715621Y-185651066D01*
X113788195Y-185411805D01*
X113671432Y-185127000D01*
X112127000Y-185127000D01*
X111873000Y-185127000D01*
X110328568Y-185127000D01*
X110211805Y-185411805D01*
X109788195Y-185411805D01*
X109671432Y-185127000D01*
X108127000Y-185127000D01*
X107873000Y-185127000D01*
X106328568Y-185127000D01*
X106211805Y-185411805D01*
X104709036Y-185411805D01*
X104755000Y-185180732D01*
X104755000Y-184819268D01*
X104709037Y-184588195D01*
X106211805Y-184588195D01*
X106328568Y-184873000D01*
X107873000Y-184873000D01*
X107873000Y-183328146D01*
X108127000Y-183328146D01*
X108127000Y-184873000D01*
X109671432Y-184873000D01*
X109788195Y-184588195D01*
X110211805Y-184588195D01*
X110328568Y-184873000D01*
X111873000Y-184873000D01*
X111873000Y-183328146D01*
X112127000Y-183328146D01*
X112127000Y-184873000D01*
X113671432Y-184873000D01*
X113693460Y-184819268D01*
X115245000Y-184819268D01*
X115245000Y-185180732D01*
X115315518Y-185535250D01*
X115453844Y-185869199D01*
X115654662Y-186169744D01*
X115910256Y-186425338D01*
X116210801Y-186626156D01*
X116544750Y-186764482D01*
X116899268Y-186835000D01*
X117260732Y-186835000D01*
X117615250Y-186764482D01*
X117949199Y-186626156D01*
X118249744Y-186425338D01*
X118505338Y-186169744D01*
X118706156Y-185869199D01*
X118844482Y-185535250D01*
X118915000Y-185180732D01*
X118915000Y-184819268D01*
X118844482Y-184464750D01*
X118706156Y-184130801D01*
X118505338Y-183830256D01*
X118249744Y-183574662D01*
X117949199Y-183373844D01*
X117615250Y-183235518D01*
X117260732Y-183165000D01*
X116899268Y-183165000D01*
X116544750Y-183235518D01*
X116210801Y-183373844D01*
X115910256Y-183574662D01*
X115654662Y-183830256D01*
X115453844Y-184130801D01*
X115315518Y-184464750D01*
X115245000Y-184819268D01*
X113693460Y-184819268D01*
X113788195Y-184588195D01*
X113715621Y-184348934D01*
X113555639Y-184026743D01*
X113335875Y-183741954D01*
X113064774Y-183505511D01*
X112752754Y-183326500D01*
X112411806Y-183211801D01*
X112127000Y-183328146D01*
X111873000Y-183328146D01*
X111588194Y-183211801D01*
X111247246Y-183326500D01*
X110935226Y-183505511D01*
X110664125Y-183741954D01*
X110444361Y-184026743D01*
X110284379Y-184348934D01*
X110211805Y-184588195D01*
X109788195Y-184588195D01*
X109715621Y-184348934D01*
X109555639Y-184026743D01*
X109335875Y-183741954D01*
X109064774Y-183505511D01*
X108752754Y-183326500D01*
X108411806Y-183211801D01*
X108127000Y-183328146D01*
X107873000Y-183328146D01*
X107588194Y-183211801D01*
X107247246Y-183326500D01*
X106935226Y-183505511D01*
X106664125Y-183741954D01*
X106444361Y-184026743D01*
X106284379Y-184348934D01*
X106211805Y-184588195D01*
X104709037Y-184588195D01*
X104684482Y-184464750D01*
X104546156Y-184130801D01*
X104345338Y-183830256D01*
X104089744Y-183574662D01*
X103789199Y-183373844D01*
X103455250Y-183235518D01*
X103100732Y-183165000D01*
X102739268Y-183165000D01*
X102384750Y-183235518D01*
X102050801Y-183373844D01*
X101750256Y-183574662D01*
X101494662Y-183830256D01*
X101293844Y-184130801D01*
X101155518Y-184464750D01*
X101085000Y-184819268D01*
X101085000Y-185180732D01*
X101155518Y-185535250D01*
X101293844Y-185869199D01*
X101494662Y-186169744D01*
X101750256Y-186425338D01*
X102050801Y-186626156D01*
X102384750Y-186764482D01*
X102739268Y-186835000D01*
X103100732Y-186835000D01*
X103455250Y-186764482D01*
X103564449Y-186719250D01*
X104240001Y-187394803D01*
X104240000Y-190461928D01*
X104100000Y-190461928D01*
X103975518Y-190474188D01*
X103855820Y-190510498D01*
X103745506Y-190569463D01*
X103648815Y-190648815D01*
X103569463Y-190745506D01*
X103510498Y-190855820D01*
X103504944Y-190874127D01*
X103438505Y-190807688D01*
X103187095Y-190639701D01*
X102907743Y-190523989D01*
X102611184Y-190465000D01*
X102308816Y-190465000D01*
X102051070Y-190516269D01*
X100604969Y-189070168D01*
X100604969Y-177219771D01*
X100976269Y-177591071D01*
X100925000Y-177848816D01*
X100925000Y-178151184D01*
X100983989Y-178447743D01*
X101099701Y-178727095D01*
X101267688Y-178978505D01*
X101481495Y-179192312D01*
X101732905Y-179360299D01*
X102012257Y-179476011D01*
X102308816Y-179535000D01*
X102611184Y-179535000D01*
X102907743Y-179476011D01*
X103187095Y-179360299D01*
X103438505Y-179192312D01*
X103504944Y-179125873D01*
X103510498Y-179144180D01*
X103569463Y-179254494D01*
X103648815Y-179351185D01*
X103745506Y-179430537D01*
X103855820Y-179489502D01*
X103975518Y-179525812D01*
X104100000Y-179538072D01*
X105900000Y-179538072D01*
X106024482Y-179525812D01*
X106144180Y-179489502D01*
X106254494Y-179430537D01*
X106351185Y-179351185D01*
X106430537Y-179254494D01*
X106489502Y-179144180D01*
X106525812Y-179024482D01*
X106538072Y-178900000D01*
X106538072Y-177848816D01*
X113425000Y-177848816D01*
X113425000Y-178151184D01*
X113483989Y-178447743D01*
X113599701Y-178727095D01*
X113767688Y-178978505D01*
X113981495Y-179192312D01*
X114232905Y-179360299D01*
X114512257Y-179476011D01*
X114808816Y-179535000D01*
X115111184Y-179535000D01*
X115407743Y-179476011D01*
X115687095Y-179360299D01*
X115938505Y-179192312D01*
X116004944Y-179125873D01*
X116010498Y-179144180D01*
X116069463Y-179254494D01*
X116148815Y-179351185D01*
X116245506Y-179430537D01*
X116355820Y-179489502D01*
X116475518Y-179525812D01*
X116600000Y-179538072D01*
X118400000Y-179538072D01*
X118524482Y-179525812D01*
X118644180Y-179489502D01*
X118754494Y-179430537D01*
X118851185Y-179351185D01*
X118930537Y-179254494D01*
X118989502Y-179144180D01*
X119025812Y-179024482D01*
X119038072Y-178900000D01*
X119038072Y-177419679D01*
X123265000Y-177419679D01*
X123265000Y-178580322D01*
X123288657Y-178820516D01*
X123382148Y-179128715D01*
X123533970Y-179412752D01*
X123738287Y-179661714D01*
X123987249Y-179866031D01*
X124271286Y-180017852D01*
X124579485Y-180111343D01*
X124900000Y-180142911D01*
X125220516Y-180111343D01*
X125528715Y-180017852D01*
X125812752Y-179866031D01*
X126061714Y-179661714D01*
X126266031Y-179412752D01*
X126417852Y-179128715D01*
X126511343Y-178820516D01*
X126535000Y-178580322D01*
X126535000Y-177419678D01*
X126511343Y-177179484D01*
X126417852Y-176871285D01*
X126266031Y-176587248D01*
X126061714Y-176338286D01*
X125812751Y-176133969D01*
X125528714Y-175982148D01*
X125220515Y-175888657D01*
X124900000Y-175857089D01*
X124579484Y-175888657D01*
X124271285Y-175982148D01*
X123987248Y-176133969D01*
X123738286Y-176338286D01*
X123533969Y-176587249D01*
X123382148Y-176871286D01*
X123288657Y-177179485D01*
X123265000Y-177419679D01*
X119038072Y-177419679D01*
X119038072Y-177100000D01*
X119025812Y-176975518D01*
X118989502Y-176855820D01*
X118930537Y-176745506D01*
X118851185Y-176648815D01*
X118754494Y-176569463D01*
X118644180Y-176510498D01*
X118524482Y-176474188D01*
X118400000Y-176461928D01*
X116600000Y-176461928D01*
X116475518Y-176474188D01*
X116355820Y-176510498D01*
X116245506Y-176569463D01*
X116148815Y-176648815D01*
X116069463Y-176745506D01*
X116010498Y-176855820D01*
X116004944Y-176874127D01*
X115938505Y-176807688D01*
X115687095Y-176639701D01*
X115407743Y-176523989D01*
X115111184Y-176465000D01*
X114808816Y-176465000D01*
X114512257Y-176523989D01*
X114232905Y-176639701D01*
X113981495Y-176807688D01*
X113767688Y-177021495D01*
X113599701Y-177272905D01*
X113483989Y-177552257D01*
X113425000Y-177848816D01*
X106538072Y-177848816D01*
X106538072Y-177100000D01*
X106525812Y-176975518D01*
X106489502Y-176855820D01*
X106430537Y-176745506D01*
X106351185Y-176648815D01*
X106254494Y-176569463D01*
X106144180Y-176510498D01*
X106024482Y-176474188D01*
X105900000Y-176461928D01*
X105760000Y-176461928D01*
X105760000Y-173117322D01*
X105763676Y-173079999D01*
X105760000Y-173042676D01*
X105760000Y-173042667D01*
X105749003Y-172931014D01*
X105705546Y-172787753D01*
X105634974Y-172655724D01*
X105540001Y-172539999D01*
X105511003Y-172516201D01*
X104639250Y-171644449D01*
X104684482Y-171535250D01*
X104709036Y-171411805D01*
X106211805Y-171411805D01*
X106284379Y-171651066D01*
X106444361Y-171973257D01*
X106664125Y-172258046D01*
X106935226Y-172494489D01*
X107247246Y-172673500D01*
X107588194Y-172788199D01*
X107873000Y-172671854D01*
X107873000Y-171127000D01*
X108127000Y-171127000D01*
X108127000Y-172671854D01*
X108411806Y-172788199D01*
X108752754Y-172673500D01*
X109064774Y-172494489D01*
X109335875Y-172258046D01*
X109555639Y-171973257D01*
X109715621Y-171651066D01*
X109788195Y-171411805D01*
X110211805Y-171411805D01*
X110284379Y-171651066D01*
X110444361Y-171973257D01*
X110664125Y-172258046D01*
X110935226Y-172494489D01*
X111247246Y-172673500D01*
X111588194Y-172788199D01*
X111873000Y-172671854D01*
X111873000Y-171127000D01*
X112127000Y-171127000D01*
X112127000Y-172671854D01*
X112411806Y-172788199D01*
X112752754Y-172673500D01*
X113064774Y-172494489D01*
X113335875Y-172258046D01*
X113555639Y-171973257D01*
X113715621Y-171651066D01*
X113788195Y-171411805D01*
X113671432Y-171127000D01*
X112127000Y-171127000D01*
X111873000Y-171127000D01*
X110328568Y-171127000D01*
X110211805Y-171411805D01*
X109788195Y-171411805D01*
X109671432Y-171127000D01*
X108127000Y-171127000D01*
X107873000Y-171127000D01*
X106328568Y-171127000D01*
X106211805Y-171411805D01*
X104709036Y-171411805D01*
X104755000Y-171180732D01*
X104755000Y-170819268D01*
X104709037Y-170588195D01*
X106211805Y-170588195D01*
X106328568Y-170873000D01*
X107873000Y-170873000D01*
X107873000Y-169328146D01*
X108127000Y-169328146D01*
X108127000Y-170873000D01*
X109671432Y-170873000D01*
X109788195Y-170588195D01*
X110211805Y-170588195D01*
X110328568Y-170873000D01*
X111873000Y-170873000D01*
X111873000Y-169328146D01*
X112127000Y-169328146D01*
X112127000Y-170873000D01*
X113671432Y-170873000D01*
X113693460Y-170819268D01*
X115245000Y-170819268D01*
X115245000Y-171180732D01*
X115315518Y-171535250D01*
X115453844Y-171869199D01*
X115654662Y-172169744D01*
X115910256Y-172425338D01*
X116210801Y-172626156D01*
X116544750Y-172764482D01*
X116899268Y-172835000D01*
X117260732Y-172835000D01*
X117615250Y-172764482D01*
X117949199Y-172626156D01*
X118249744Y-172425338D01*
X118505338Y-172169744D01*
X118706156Y-171869199D01*
X118844482Y-171535250D01*
X118915000Y-171180732D01*
X118915000Y-170819268D01*
X118844482Y-170464750D01*
X118706156Y-170130801D01*
X118505338Y-169830256D01*
X118249744Y-169574662D01*
X117949199Y-169373844D01*
X117615250Y-169235518D01*
X117260732Y-169165000D01*
X116899268Y-169165000D01*
X116544750Y-169235518D01*
X116210801Y-169373844D01*
X115910256Y-169574662D01*
X115654662Y-169830256D01*
X115453844Y-170130801D01*
X115315518Y-170464750D01*
X115245000Y-170819268D01*
X113693460Y-170819268D01*
X113788195Y-170588195D01*
X113715621Y-170348934D01*
X113555639Y-170026743D01*
X113335875Y-169741954D01*
X113064774Y-169505511D01*
X112752754Y-169326500D01*
X112411806Y-169211801D01*
X112127000Y-169328146D01*
X111873000Y-169328146D01*
X111588194Y-169211801D01*
X111247246Y-169326500D01*
X110935226Y-169505511D01*
X110664125Y-169741954D01*
X110444361Y-170026743D01*
X110284379Y-170348934D01*
X110211805Y-170588195D01*
X109788195Y-170588195D01*
X109715621Y-170348934D01*
X109555639Y-170026743D01*
X109335875Y-169741954D01*
X109064774Y-169505511D01*
X108752754Y-169326500D01*
X108411806Y-169211801D01*
X108127000Y-169328146D01*
X107873000Y-169328146D01*
X107588194Y-169211801D01*
X107247246Y-169326500D01*
X106935226Y-169505511D01*
X106664125Y-169741954D01*
X106444361Y-170026743D01*
X106284379Y-170348934D01*
X106211805Y-170588195D01*
X104709037Y-170588195D01*
X104684482Y-170464750D01*
X104546156Y-170130801D01*
X104345338Y-169830256D01*
X104089744Y-169574662D01*
X103789199Y-169373844D01*
X103455250Y-169235518D01*
X103100732Y-169165000D01*
X102739268Y-169165000D01*
X102384750Y-169235518D01*
X102050801Y-169373844D01*
X101750256Y-169574662D01*
X101494662Y-169830256D01*
X101293844Y-170130801D01*
X101155518Y-170464750D01*
X101104979Y-170718827D01*
X101104979Y-164734994D01*
X101267688Y-164978505D01*
X101481495Y-165192312D01*
X101732905Y-165360299D01*
X102012257Y-165476011D01*
X102308816Y-165535000D01*
X102611184Y-165535000D01*
X102907743Y-165476011D01*
X103187095Y-165360299D01*
X103438505Y-165192312D01*
X103504944Y-165125873D01*
X103510498Y-165144180D01*
X103569463Y-165254494D01*
X103648815Y-165351185D01*
X103745506Y-165430537D01*
X103855820Y-165489502D01*
X103975518Y-165525812D01*
X104100000Y-165538072D01*
X105900000Y-165538072D01*
X106024482Y-165525812D01*
X106144180Y-165489502D01*
X106254494Y-165430537D01*
X106351185Y-165351185D01*
X106430537Y-165254494D01*
X106489502Y-165144180D01*
X106525812Y-165024482D01*
X106538072Y-164900000D01*
X106538072Y-163848816D01*
X113425000Y-163848816D01*
X113425000Y-164151184D01*
X113483989Y-164447743D01*
X113599701Y-164727095D01*
X113767688Y-164978505D01*
X113981495Y-165192312D01*
X114232905Y-165360299D01*
X114512257Y-165476011D01*
X114808816Y-165535000D01*
X115111184Y-165535000D01*
X115407743Y-165476011D01*
X115687095Y-165360299D01*
X115938505Y-165192312D01*
X116004944Y-165125873D01*
X116010498Y-165144180D01*
X116069463Y-165254494D01*
X116148815Y-165351185D01*
X116245506Y-165430537D01*
X116355820Y-165489502D01*
X116475518Y-165525812D01*
X116600000Y-165538072D01*
X118400000Y-165538072D01*
X118524482Y-165525812D01*
X118644180Y-165489502D01*
X118754494Y-165430537D01*
X118851185Y-165351185D01*
X118930537Y-165254494D01*
X118989502Y-165144180D01*
X119025812Y-165024482D01*
X119038072Y-164900000D01*
X119038072Y-163419679D01*
X123265000Y-163419679D01*
X123265000Y-164580322D01*
X123288657Y-164820516D01*
X123382148Y-165128715D01*
X123533970Y-165412752D01*
X123738287Y-165661714D01*
X123987249Y-165866031D01*
X124271286Y-166017852D01*
X124579485Y-166111343D01*
X124900000Y-166142911D01*
X125220516Y-166111343D01*
X125528715Y-166017852D01*
X125812752Y-165866031D01*
X126061714Y-165661714D01*
X126266031Y-165412752D01*
X126417852Y-165128715D01*
X126511343Y-164820516D01*
X126535000Y-164580322D01*
X126535000Y-163419678D01*
X126511343Y-163179484D01*
X126417852Y-162871285D01*
X126266031Y-162587248D01*
X126061714Y-162338286D01*
X125812751Y-162133969D01*
X125528714Y-161982148D01*
X125220515Y-161888657D01*
X124900000Y-161857089D01*
X124579484Y-161888657D01*
X124271285Y-161982148D01*
X123987248Y-162133969D01*
X123738286Y-162338286D01*
X123533969Y-162587249D01*
X123382148Y-162871286D01*
X123288657Y-163179485D01*
X123265000Y-163419679D01*
X119038072Y-163419679D01*
X119038072Y-163100000D01*
X119025812Y-162975518D01*
X118989502Y-162855820D01*
X118930537Y-162745506D01*
X118851185Y-162648815D01*
X118754494Y-162569463D01*
X118644180Y-162510498D01*
X118524482Y-162474188D01*
X118400000Y-162461928D01*
X116600000Y-162461928D01*
X116475518Y-162474188D01*
X116355820Y-162510498D01*
X116245506Y-162569463D01*
X116148815Y-162648815D01*
X116069463Y-162745506D01*
X116010498Y-162855820D01*
X116004944Y-162874127D01*
X115938505Y-162807688D01*
X115687095Y-162639701D01*
X115407743Y-162523989D01*
X115111184Y-162465000D01*
X114808816Y-162465000D01*
X114512257Y-162523989D01*
X114232905Y-162639701D01*
X113981495Y-162807688D01*
X113767688Y-163021495D01*
X113599701Y-163272905D01*
X113483989Y-163552257D01*
X113425000Y-163848816D01*
X106538072Y-163848816D01*
X106538072Y-163100000D01*
X106525812Y-162975518D01*
X106489502Y-162855820D01*
X106430537Y-162745506D01*
X106351185Y-162648815D01*
X106254494Y-162569463D01*
X106144180Y-162510498D01*
X106024482Y-162474188D01*
X105900000Y-162461928D01*
X105760000Y-162461928D01*
X105760000Y-159117322D01*
X105763676Y-159079999D01*
X105760000Y-159042676D01*
X105760000Y-159042667D01*
X105749003Y-158931014D01*
X105705546Y-158787753D01*
X105634974Y-158655724D01*
X105540001Y-158539999D01*
X105511003Y-158516201D01*
X104639250Y-157644449D01*
X104684482Y-157535250D01*
X104709036Y-157411805D01*
X106211805Y-157411805D01*
X106284379Y-157651066D01*
X106444361Y-157973257D01*
X106664125Y-158258046D01*
X106935226Y-158494489D01*
X107247246Y-158673500D01*
X107588194Y-158788199D01*
X107873000Y-158671854D01*
X107873000Y-157127000D01*
X108127000Y-157127000D01*
X108127000Y-158671854D01*
X108411806Y-158788199D01*
X108752754Y-158673500D01*
X109064774Y-158494489D01*
X109335875Y-158258046D01*
X109555639Y-157973257D01*
X109715621Y-157651066D01*
X109788195Y-157411805D01*
X110211805Y-157411805D01*
X110284379Y-157651066D01*
X110444361Y-157973257D01*
X110664125Y-158258046D01*
X110935226Y-158494489D01*
X111247246Y-158673500D01*
X111588194Y-158788199D01*
X111873000Y-158671854D01*
X111873000Y-157127000D01*
X112127000Y-157127000D01*
X112127000Y-158671854D01*
X112411806Y-158788199D01*
X112752754Y-158673500D01*
X113064774Y-158494489D01*
X113335875Y-158258046D01*
X113555639Y-157973257D01*
X113715621Y-157651066D01*
X113788195Y-157411805D01*
X113671432Y-157127000D01*
X112127000Y-157127000D01*
X111873000Y-157127000D01*
X110328568Y-157127000D01*
X110211805Y-157411805D01*
X109788195Y-157411805D01*
X109671432Y-157127000D01*
X108127000Y-157127000D01*
X107873000Y-157127000D01*
X106328568Y-157127000D01*
X106211805Y-157411805D01*
X104709036Y-157411805D01*
X104755000Y-157180732D01*
X104755000Y-156819268D01*
X104709037Y-156588195D01*
X106211805Y-156588195D01*
X106328568Y-156873000D01*
X107873000Y-156873000D01*
X107873000Y-155328146D01*
X108127000Y-155328146D01*
X108127000Y-156873000D01*
X109671432Y-156873000D01*
X109788195Y-156588195D01*
X110211805Y-156588195D01*
X110328568Y-156873000D01*
X111873000Y-156873000D01*
X111873000Y-155328146D01*
X112127000Y-155328146D01*
X112127000Y-156873000D01*
X113671432Y-156873000D01*
X113693460Y-156819268D01*
X115245000Y-156819268D01*
X115245000Y-157180732D01*
X115315518Y-157535250D01*
X115453844Y-157869199D01*
X115654662Y-158169744D01*
X115910256Y-158425338D01*
X116210801Y-158626156D01*
X116544750Y-158764482D01*
X116899268Y-158835000D01*
X117260732Y-158835000D01*
X117615250Y-158764482D01*
X117949199Y-158626156D01*
X118249744Y-158425338D01*
X118505338Y-158169744D01*
X118706156Y-157869199D01*
X118844482Y-157535250D01*
X118915000Y-157180732D01*
X118915000Y-156819268D01*
X118844482Y-156464750D01*
X118706156Y-156130801D01*
X118505338Y-155830256D01*
X118249744Y-155574662D01*
X117949199Y-155373844D01*
X117615250Y-155235518D01*
X117260732Y-155165000D01*
X116899268Y-155165000D01*
X116544750Y-155235518D01*
X116210801Y-155373844D01*
X115910256Y-155574662D01*
X115654662Y-155830256D01*
X115453844Y-156130801D01*
X115315518Y-156464750D01*
X115245000Y-156819268D01*
X113693460Y-156819268D01*
X113788195Y-156588195D01*
X113715621Y-156348934D01*
X113555639Y-156026743D01*
X113335875Y-155741954D01*
X113064774Y-155505511D01*
X112752754Y-155326500D01*
X112411806Y-155211801D01*
X112127000Y-155328146D01*
X111873000Y-155328146D01*
X111588194Y-155211801D01*
X111247246Y-155326500D01*
X110935226Y-155505511D01*
X110664125Y-155741954D01*
X110444361Y-156026743D01*
X110284379Y-156348934D01*
X110211805Y-156588195D01*
X109788195Y-156588195D01*
X109715621Y-156348934D01*
X109555639Y-156026743D01*
X109335875Y-155741954D01*
X109064774Y-155505511D01*
X108752754Y-155326500D01*
X108411806Y-155211801D01*
X108127000Y-155328146D01*
X107873000Y-155328146D01*
X107588194Y-155211801D01*
X107247246Y-155326500D01*
X106935226Y-155505511D01*
X106664125Y-155741954D01*
X106444361Y-156026743D01*
X106284379Y-156348934D01*
X106211805Y-156588195D01*
X104709037Y-156588195D01*
X104684482Y-156464750D01*
X104546156Y-156130801D01*
X104345338Y-155830256D01*
X104089744Y-155574662D01*
X103789199Y-155373844D01*
X103455250Y-155235518D01*
X103100732Y-155165000D01*
X102739268Y-155165000D01*
X102384750Y-155235518D01*
X102050801Y-155373844D01*
X101750256Y-155574662D01*
X101604989Y-155719929D01*
X101604989Y-151274828D01*
X101732905Y-151360299D01*
X102012257Y-151476011D01*
X102308816Y-151535000D01*
X102611184Y-151535000D01*
X102907743Y-151476011D01*
X103187095Y-151360299D01*
X103438505Y-151192312D01*
X103504944Y-151125873D01*
X103510498Y-151144180D01*
X103569463Y-151254494D01*
X103648815Y-151351185D01*
X103745506Y-151430537D01*
X103855820Y-151489502D01*
X103975518Y-151525812D01*
X104100000Y-151538072D01*
X105900000Y-151538072D01*
X106024482Y-151525812D01*
X106144180Y-151489502D01*
X106254494Y-151430537D01*
X106351185Y-151351185D01*
X106430537Y-151254494D01*
X106489502Y-151144180D01*
X106525812Y-151024482D01*
X106538072Y-150900000D01*
X106538072Y-149848816D01*
X113425000Y-149848816D01*
X113425000Y-150151184D01*
X113483989Y-150447743D01*
X113599701Y-150727095D01*
X113767688Y-150978505D01*
X113981495Y-151192312D01*
X114232905Y-151360299D01*
X114512257Y-151476011D01*
X114808816Y-151535000D01*
X115111184Y-151535000D01*
X115407743Y-151476011D01*
X115687095Y-151360299D01*
X115938505Y-151192312D01*
X116004944Y-151125873D01*
X116010498Y-151144180D01*
X116069463Y-151254494D01*
X116148815Y-151351185D01*
X116245506Y-151430537D01*
X116355820Y-151489502D01*
X116475518Y-151525812D01*
X116600000Y-151538072D01*
X118400000Y-151538072D01*
X118524482Y-151525812D01*
X118644180Y-151489502D01*
X118754494Y-151430537D01*
X118851185Y-151351185D01*
X118930537Y-151254494D01*
X118989502Y-151144180D01*
X119025812Y-151024482D01*
X119038072Y-150900000D01*
X119038072Y-149419679D01*
X123265000Y-149419679D01*
X123265000Y-150580322D01*
X123288657Y-150820516D01*
X123382148Y-151128715D01*
X123533970Y-151412752D01*
X123738287Y-151661714D01*
X123987249Y-151866031D01*
X124271286Y-152017852D01*
X124579485Y-152111343D01*
X124900000Y-152142911D01*
X125220516Y-152111343D01*
X125528715Y-152017852D01*
X125812752Y-151866031D01*
X126061714Y-151661714D01*
X126266031Y-151412752D01*
X126417852Y-151128715D01*
X126511343Y-150820516D01*
X126535000Y-150580322D01*
X126535000Y-149419678D01*
X126511343Y-149179484D01*
X126417852Y-148871285D01*
X126266031Y-148587248D01*
X126061714Y-148338286D01*
X125812751Y-148133969D01*
X125528714Y-147982148D01*
X125220515Y-147888657D01*
X124900000Y-147857089D01*
X124579484Y-147888657D01*
X124271285Y-147982148D01*
X123987248Y-148133969D01*
X123738286Y-148338286D01*
X123533969Y-148587249D01*
X123382148Y-148871286D01*
X123288657Y-149179485D01*
X123265000Y-149419679D01*
X119038072Y-149419679D01*
X119038072Y-149100000D01*
X119025812Y-148975518D01*
X118989502Y-148855820D01*
X118930537Y-148745506D01*
X118851185Y-148648815D01*
X118754494Y-148569463D01*
X118644180Y-148510498D01*
X118524482Y-148474188D01*
X118400000Y-148461928D01*
X116600000Y-148461928D01*
X116475518Y-148474188D01*
X116355820Y-148510498D01*
X116245506Y-148569463D01*
X116148815Y-148648815D01*
X116069463Y-148745506D01*
X116010498Y-148855820D01*
X116004944Y-148874127D01*
X115938505Y-148807688D01*
X115687095Y-148639701D01*
X115407743Y-148523989D01*
X115111184Y-148465000D01*
X114808816Y-148465000D01*
X114512257Y-148523989D01*
X114232905Y-148639701D01*
X113981495Y-148807688D01*
X113767688Y-149021495D01*
X113599701Y-149272905D01*
X113483989Y-149552257D01*
X113425000Y-149848816D01*
X106538072Y-149848816D01*
X106538072Y-149100000D01*
X106525812Y-148975518D01*
X106489502Y-148855820D01*
X106430537Y-148745506D01*
X106351185Y-148648815D01*
X106254494Y-148569463D01*
X106144180Y-148510498D01*
X106024482Y-148474188D01*
X105900000Y-148461928D01*
X105760000Y-148461928D01*
X105760000Y-145117322D01*
X105763676Y-145079999D01*
X105760000Y-145042676D01*
X105760000Y-145042667D01*
X105749003Y-144931014D01*
X105705546Y-144787753D01*
X105634974Y-144655724D01*
X105540001Y-144539999D01*
X105511003Y-144516201D01*
X104639250Y-143644449D01*
X104684482Y-143535250D01*
X104709036Y-143411805D01*
X106211805Y-143411805D01*
X106284379Y-143651066D01*
X106444361Y-143973257D01*
X106664125Y-144258046D01*
X106935226Y-144494489D01*
X107247246Y-144673500D01*
X107588194Y-144788199D01*
X107873000Y-144671854D01*
X107873000Y-143127000D01*
X108127000Y-143127000D01*
X108127000Y-144671854D01*
X108411806Y-144788199D01*
X108752754Y-144673500D01*
X109064774Y-144494489D01*
X109335875Y-144258046D01*
X109555639Y-143973257D01*
X109715621Y-143651066D01*
X109788195Y-143411805D01*
X110211805Y-143411805D01*
X110284379Y-143651066D01*
X110444361Y-143973257D01*
X110664125Y-144258046D01*
X110935226Y-144494489D01*
X111247246Y-144673500D01*
X111588194Y-144788199D01*
X111873000Y-144671854D01*
X111873000Y-143127000D01*
X112127000Y-143127000D01*
X112127000Y-144671854D01*
X112411806Y-144788199D01*
X112752754Y-144673500D01*
X113064774Y-144494489D01*
X113335875Y-144258046D01*
X113555639Y-143973257D01*
X113715621Y-143651066D01*
X113788195Y-143411805D01*
X113671432Y-143127000D01*
X112127000Y-143127000D01*
X111873000Y-143127000D01*
X110328568Y-143127000D01*
X110211805Y-143411805D01*
X109788195Y-143411805D01*
X109671432Y-143127000D01*
X108127000Y-143127000D01*
X107873000Y-143127000D01*
X106328568Y-143127000D01*
X106211805Y-143411805D01*
X104709036Y-143411805D01*
X104755000Y-143180732D01*
X104755000Y-142819268D01*
X104709037Y-142588195D01*
X106211805Y-142588195D01*
X106328568Y-142873000D01*
X107873000Y-142873000D01*
X107873000Y-141328146D01*
X108127000Y-141328146D01*
X108127000Y-142873000D01*
X109671432Y-142873000D01*
X109788195Y-142588195D01*
X110211805Y-142588195D01*
X110328568Y-142873000D01*
X111873000Y-142873000D01*
X111873000Y-141328146D01*
X112127000Y-141328146D01*
X112127000Y-142873000D01*
X113671432Y-142873000D01*
X113693460Y-142819268D01*
X115245000Y-142819268D01*
X115245000Y-143180732D01*
X115315518Y-143535250D01*
X115453844Y-143869199D01*
X115654662Y-144169744D01*
X115910256Y-144425338D01*
X116210801Y-144626156D01*
X116544750Y-144764482D01*
X116899268Y-144835000D01*
X117260732Y-144835000D01*
X117615250Y-144764482D01*
X117949199Y-144626156D01*
X118249744Y-144425338D01*
X118505338Y-144169744D01*
X118706156Y-143869199D01*
X118844482Y-143535250D01*
X118915000Y-143180732D01*
X118915000Y-142819268D01*
X118844482Y-142464750D01*
X118706156Y-142130801D01*
X118505338Y-141830256D01*
X118249744Y-141574662D01*
X117949199Y-141373844D01*
X117615250Y-141235518D01*
X117260732Y-141165000D01*
X116899268Y-141165000D01*
X116544750Y-141235518D01*
X116210801Y-141373844D01*
X115910256Y-141574662D01*
X115654662Y-141830256D01*
X115453844Y-142130801D01*
X115315518Y-142464750D01*
X115245000Y-142819268D01*
X113693460Y-142819268D01*
X113788195Y-142588195D01*
X113715621Y-142348934D01*
X113555639Y-142026743D01*
X113335875Y-141741954D01*
X113064774Y-141505511D01*
X112752754Y-141326500D01*
X112411806Y-141211801D01*
X112127000Y-141328146D01*
X111873000Y-141328146D01*
X111588194Y-141211801D01*
X111247246Y-141326500D01*
X110935226Y-141505511D01*
X110664125Y-141741954D01*
X110444361Y-142026743D01*
X110284379Y-142348934D01*
X110211805Y-142588195D01*
X109788195Y-142588195D01*
X109715621Y-142348934D01*
X109555639Y-142026743D01*
X109335875Y-141741954D01*
X109064774Y-141505511D01*
X108752754Y-141326500D01*
X108411806Y-141211801D01*
X108127000Y-141328146D01*
X107873000Y-141328146D01*
X107588194Y-141211801D01*
X107247246Y-141326500D01*
X106935226Y-141505511D01*
X106664125Y-141741954D01*
X106444361Y-142026743D01*
X106284379Y-142348934D01*
X106211805Y-142588195D01*
X104709037Y-142588195D01*
X104684482Y-142464750D01*
X104546156Y-142130801D01*
X104345338Y-141830256D01*
X104089744Y-141574662D01*
X103789199Y-141373844D01*
X103455250Y-141235518D01*
X103100732Y-141165000D01*
X102739268Y-141165000D01*
X102384750Y-141235518D01*
X102104999Y-141351394D01*
X102104999Y-121384868D01*
X125010467Y-98564238D01*
X125011002Y-98563799D01*
X125036394Y-98538407D01*
X125062850Y-98512049D01*
X125063308Y-98511493D01*
X127131003Y-96443799D01*
X127160001Y-96420001D01*
X127254974Y-96304276D01*
X127325546Y-96172247D01*
X127369003Y-96028986D01*
X127380000Y-95917333D01*
X127380000Y-95917325D01*
X127383676Y-95880000D01*
X127380000Y-95842675D01*
X127380000Y-90238072D01*
X127420000Y-90238072D01*
X127544482Y-90225812D01*
X127664180Y-90189502D01*
X127740000Y-90148975D01*
X127740001Y-101462668D01*
X127736324Y-101500000D01*
X127740001Y-101537333D01*
X127748713Y-101625781D01*
X127750998Y-101648985D01*
X127794454Y-101792246D01*
X127865026Y-101924276D01*
X127931002Y-102004667D01*
X127960000Y-102040001D01*
X127988998Y-102063799D01*
X129615000Y-103689803D01*
X129615001Y-146685197D01*
X128989002Y-147311197D01*
X128959999Y-147334999D01*
X128904871Y-147402174D01*
X128865026Y-147450724D01*
X128832806Y-147511003D01*
X128794454Y-147582754D01*
X128750997Y-147726015D01*
X128740000Y-147837668D01*
X128740000Y-147837678D01*
X128736324Y-147875000D01*
X128740000Y-147912323D01*
X128740000Y-148052321D01*
X128587248Y-148133969D01*
X128338286Y-148338286D01*
X128133969Y-148587249D01*
X127982148Y-148871286D01*
X127888657Y-149179485D01*
X127865000Y-149419679D01*
X127865000Y-150580322D01*
X127888657Y-150820516D01*
X127982148Y-151128715D01*
X128133970Y-151412752D01*
X128338287Y-151661714D01*
X128587249Y-151866031D01*
X128871286Y-152017852D01*
X129179485Y-152111343D01*
X129500000Y-152142911D01*
X129820516Y-152111343D01*
X130115010Y-152022009D01*
X130115010Y-160310188D01*
X128988998Y-161436201D01*
X128960000Y-161459999D01*
X128936202Y-161488997D01*
X128936201Y-161488998D01*
X128865026Y-161575724D01*
X128794454Y-161707754D01*
X128781635Y-161750015D01*
X128750998Y-161851014D01*
X128740193Y-161960713D01*
X128736324Y-162000000D01*
X128740001Y-162037332D01*
X128740001Y-162052321D01*
X128587248Y-162133969D01*
X128338286Y-162338286D01*
X128133969Y-162587249D01*
X127982148Y-162871286D01*
X127888657Y-163179485D01*
X127865000Y-163419679D01*
X127865000Y-164580322D01*
X127888657Y-164820516D01*
X127982148Y-165128715D01*
X128133970Y-165412752D01*
X128338287Y-165661714D01*
X128587249Y-165866031D01*
X128871286Y-166017852D01*
X129179485Y-166111343D01*
X129500000Y-166142911D01*
X129820516Y-166111343D01*
X130128715Y-166017852D01*
X130412752Y-165866031D01*
X130615020Y-165700035D01*
X130615020Y-173810178D01*
X128988998Y-175436201D01*
X128960000Y-175459999D01*
X128936202Y-175488997D01*
X128936201Y-175488998D01*
X128865026Y-175575724D01*
X128794454Y-175707754D01*
X128785888Y-175735994D01*
X128750998Y-175851014D01*
X128743976Y-175922312D01*
X128736324Y-176000000D01*
X128740001Y-176037332D01*
X128740001Y-176052321D01*
X128587248Y-176133969D01*
X128338286Y-176338286D01*
X128133969Y-176587249D01*
X127982148Y-176871286D01*
X127888657Y-177179485D01*
X127865000Y-177419679D01*
X127865000Y-178580322D01*
X127888657Y-178820516D01*
X127982148Y-179128715D01*
X128133970Y-179412752D01*
X128338287Y-179661714D01*
X128587249Y-179866031D01*
X128871286Y-180017852D01*
X129179485Y-180111343D01*
X129500000Y-180142911D01*
X129820516Y-180111343D01*
X130128715Y-180017852D01*
X130412752Y-179866031D01*
X130661714Y-179661714D01*
X130866031Y-179412752D01*
X131017852Y-179128715D01*
X131111343Y-178820516D01*
X131115031Y-178783071D01*
X131115031Y-179810167D01*
X128989003Y-181936196D01*
X128959999Y-181959999D01*
X128904871Y-182027174D01*
X128865026Y-182075724D01*
X128794455Y-182207753D01*
X128794454Y-182207754D01*
X128750997Y-182351015D01*
X128740000Y-182462668D01*
X128740000Y-182462678D01*
X128736324Y-182500000D01*
X128740000Y-182537322D01*
X128740001Y-190052321D01*
X128587248Y-190133969D01*
X128338286Y-190338286D01*
X128133969Y-190587249D01*
X127982148Y-190871286D01*
X127888657Y-191179485D01*
X127865000Y-191419679D01*
X127865000Y-192580322D01*
X127888657Y-192820516D01*
X127982148Y-193128715D01*
X128133970Y-193412752D01*
X128338287Y-193661714D01*
X128587249Y-193866031D01*
X128871286Y-194017852D01*
X129179485Y-194111343D01*
X129500000Y-194142911D01*
X129820516Y-194111343D01*
X130128715Y-194017852D01*
X130412752Y-193866031D01*
X130661714Y-193661714D01*
X130866031Y-193412752D01*
X131017852Y-193128715D01*
X131111343Y-192820516D01*
X131135000Y-192580322D01*
X131135000Y-191419679D01*
X132465000Y-191419679D01*
X132465000Y-192580322D01*
X132488657Y-192820516D01*
X132582148Y-193128715D01*
X132733970Y-193412752D01*
X132938287Y-193661714D01*
X133187249Y-193866031D01*
X133471286Y-194017852D01*
X133779485Y-194111343D01*
X134100000Y-194142911D01*
X134420516Y-194111343D01*
X134728715Y-194017852D01*
X135012752Y-193866031D01*
X135261714Y-193661714D01*
X135466031Y-193412752D01*
X135617852Y-193128715D01*
X135711343Y-192820516D01*
X135735000Y-192580322D01*
X135735000Y-191419678D01*
X135711343Y-191179484D01*
X135617852Y-190871285D01*
X135466031Y-190587248D01*
X135261714Y-190338286D01*
X135012751Y-190133969D01*
X134728714Y-189982148D01*
X134420515Y-189888657D01*
X134100000Y-189857089D01*
X133779484Y-189888657D01*
X133471285Y-189982148D01*
X133187248Y-190133969D01*
X132938286Y-190338286D01*
X132733969Y-190587249D01*
X132582148Y-190871286D01*
X132488657Y-191179485D01*
X132465000Y-191419679D01*
X131135000Y-191419679D01*
X131135000Y-191419678D01*
X131111343Y-191179484D01*
X131017852Y-190871285D01*
X130866031Y-190587248D01*
X130661714Y-190338286D01*
X130412751Y-190133969D01*
X130260000Y-190052322D01*
X130260000Y-185911482D01*
X130356931Y-186145494D01*
X130621585Y-186541576D01*
X130958424Y-186878415D01*
X131354506Y-187143069D01*
X131794608Y-187325365D01*
X132261818Y-187418299D01*
X132738182Y-187418299D01*
X133205392Y-187325365D01*
X133645494Y-187143069D01*
X134041576Y-186878415D01*
X134378415Y-186541576D01*
X134643069Y-186145494D01*
X134825365Y-185705392D01*
X134918299Y-185238182D01*
X134918299Y-184761818D01*
X134825365Y-184294608D01*
X134643069Y-183854506D01*
X134378415Y-183458424D01*
X134041576Y-183121585D01*
X133645494Y-182856931D01*
X133205392Y-182674635D01*
X132738182Y-182581701D01*
X132261818Y-182581701D01*
X131794608Y-182674635D01*
X131354506Y-182856931D01*
X130958424Y-183121585D01*
X130621585Y-183458424D01*
X130356931Y-183854506D01*
X130260000Y-184088518D01*
X130260000Y-182814801D01*
X132386033Y-180688769D01*
X132415031Y-180664971D01*
X132510004Y-180549246D01*
X132580576Y-180417217D01*
X132624033Y-180273956D01*
X132635030Y-180162303D01*
X132635030Y-180162295D01*
X132638706Y-180124970D01*
X132635030Y-180087645D01*
X132635030Y-179227650D01*
X132733970Y-179412752D01*
X132938287Y-179661714D01*
X133187249Y-179866031D01*
X133471286Y-180017852D01*
X133779485Y-180111343D01*
X134100000Y-180142911D01*
X134420516Y-180111343D01*
X134728715Y-180017852D01*
X135012752Y-179866031D01*
X135261714Y-179661714D01*
X135466031Y-179412752D01*
X135617852Y-179128715D01*
X135711343Y-178820516D01*
X135735000Y-178580322D01*
X135735000Y-177419678D01*
X135711343Y-177179484D01*
X135617852Y-176871285D01*
X135466031Y-176587248D01*
X135261714Y-176338286D01*
X135012751Y-176133969D01*
X134728714Y-175982148D01*
X134420515Y-175888657D01*
X134100000Y-175857089D01*
X133779484Y-175888657D01*
X133471285Y-175982148D01*
X133187248Y-176133969D01*
X132938286Y-176338286D01*
X132733969Y-176587249D01*
X132635030Y-176772351D01*
X132635030Y-165227650D01*
X132733970Y-165412752D01*
X132938287Y-165661714D01*
X133187249Y-165866031D01*
X133471286Y-166017852D01*
X133779485Y-166111343D01*
X134100000Y-166142911D01*
X134420516Y-166111343D01*
X134728715Y-166017852D01*
X135012752Y-165866031D01*
X135261714Y-165661714D01*
X135466031Y-165412752D01*
X135617852Y-165128715D01*
X135711343Y-164820516D01*
X135735000Y-164580322D01*
X135735000Y-163419678D01*
X135711343Y-163179484D01*
X135617852Y-162871285D01*
X135466031Y-162587248D01*
X135261714Y-162338286D01*
X135012751Y-162133969D01*
X134728714Y-161982148D01*
X134420515Y-161888657D01*
X134100000Y-161857089D01*
X133779484Y-161888657D01*
X133471285Y-161982148D01*
X133187248Y-162133969D01*
X132938286Y-162338286D01*
X132733969Y-162587249D01*
X132635030Y-162772351D01*
X132635030Y-151227650D01*
X132733970Y-151412752D01*
X132938287Y-151661714D01*
X133187249Y-151866031D01*
X133471286Y-152017852D01*
X133779485Y-152111343D01*
X134100000Y-152142911D01*
X134420516Y-152111343D01*
X134728715Y-152017852D01*
X135012752Y-151866031D01*
X135261714Y-151661714D01*
X135466031Y-151412752D01*
X135617852Y-151128715D01*
X135711343Y-150820516D01*
X135735000Y-150580322D01*
X135735000Y-149419678D01*
X135711343Y-149179484D01*
X135617852Y-148871285D01*
X135466031Y-148587248D01*
X135261714Y-148338286D01*
X135012751Y-148133969D01*
X134728714Y-147982148D01*
X134420515Y-147888657D01*
X134100000Y-147857089D01*
X133779484Y-147888657D01*
X133471285Y-147982148D01*
X133187248Y-148133969D01*
X132938286Y-148338286D01*
X132733969Y-148587249D01*
X132635030Y-148772351D01*
X132635030Y-102790992D01*
X132638706Y-102753669D01*
X132635030Y-102716346D01*
X132635030Y-102716337D01*
X132624033Y-102604684D01*
X132580576Y-102461423D01*
X132510004Y-102329394D01*
X132496841Y-102313355D01*
X132438829Y-102242666D01*
X132438825Y-102242662D01*
X132415031Y-102213669D01*
X132386039Y-102189876D01*
X130760030Y-100563869D01*
X130760030Y-96680021D01*
X130958424Y-96878415D01*
X131354506Y-97143069D01*
X131794608Y-97325365D01*
X132261818Y-97418299D01*
X132738182Y-97418299D01*
X133205392Y-97325365D01*
X133645494Y-97143069D01*
X134041576Y-96878415D01*
X134378415Y-96541576D01*
X134643069Y-96145494D01*
X134825365Y-95705392D01*
X134918299Y-95238182D01*
X134918299Y-94761818D01*
X134825365Y-94294608D01*
X134643069Y-93854506D01*
X134378415Y-93458424D01*
X134041576Y-93121585D01*
X133645494Y-92856931D01*
X133205392Y-92674635D01*
X132738182Y-92581701D01*
X132261818Y-92581701D01*
X131794608Y-92674635D01*
X131354506Y-92856931D01*
X130958424Y-93121585D01*
X130760030Y-93319979D01*
X130760030Y-88240475D01*
X130915000Y-88240475D01*
X130915000Y-88759525D01*
X131016261Y-89268601D01*
X131214893Y-89748141D01*
X131503262Y-90179715D01*
X131870285Y-90546738D01*
X132301859Y-90835107D01*
X132781399Y-91033739D01*
X133290475Y-91135000D01*
X133809525Y-91135000D01*
X134318601Y-91033739D01*
X134798141Y-90835107D01*
X135229715Y-90546738D01*
X135596738Y-90179715D01*
X135885107Y-89748141D01*
X136083739Y-89268601D01*
X136185000Y-88759525D01*
X136185000Y-88240475D01*
X136083739Y-87731399D01*
X135885107Y-87251859D01*
X135596738Y-86820285D01*
X135229715Y-86453262D01*
X134798141Y-86164893D01*
X134318601Y-85966261D01*
X133809525Y-85865000D01*
X133290475Y-85865000D01*
X132781399Y-85966261D01*
X132301859Y-86164893D01*
X131870285Y-86453262D01*
X131503262Y-86820285D01*
X131214893Y-87251859D01*
X131016261Y-87731399D01*
X130915000Y-88240475D01*
X130760030Y-88240475D01*
X130760030Y-86501990D01*
X130763706Y-86464667D01*
X130760030Y-86427344D01*
X130760030Y-86427335D01*
X130749033Y-86315682D01*
X130705576Y-86172421D01*
X130635004Y-86040392D01*
X130540031Y-85924667D01*
X130511034Y-85900870D01*
X126599142Y-81988979D01*
X126575339Y-81959975D01*
X126459614Y-81865002D01*
X126327585Y-81794430D01*
X126184324Y-81750973D01*
X126072671Y-81739976D01*
X126072660Y-81739976D01*
X126035338Y-81736300D01*
X125998016Y-81739976D01*
X108210976Y-81739976D01*
X108173653Y-81736300D01*
X108136330Y-81739976D01*
X108136321Y-81739976D01*
X108024668Y-81750973D01*
X107904269Y-81787495D01*
X107881407Y-81794430D01*
X107749377Y-81865002D01*
X107677196Y-81924240D01*
X107633653Y-81959975D01*
X107609855Y-81988973D01*
X105333998Y-84264831D01*
X105305000Y-84288629D01*
X105281202Y-84317627D01*
X105281201Y-84317628D01*
X105210026Y-84404354D01*
X105139454Y-84536384D01*
X105109548Y-84634974D01*
X105095998Y-84679644D01*
X105093447Y-84705546D01*
X105090203Y-84738480D01*
X104930241Y-84845363D01*
X104730363Y-85045241D01*
X104573320Y-85280273D01*
X104465147Y-85541426D01*
X104460000Y-85567301D01*
X104454853Y-85541426D01*
X104346680Y-85280273D01*
X104189637Y-85045241D01*
X103989759Y-84845363D01*
X103754727Y-84688320D01*
X103493574Y-84580147D01*
X103216335Y-84525000D01*
X102933665Y-84525000D01*
X102656426Y-84580147D01*
X102395273Y-84688320D01*
X102160241Y-84845363D01*
X101960363Y-85045241D01*
X101803320Y-85280273D01*
X101695147Y-85541426D01*
X101690000Y-85567301D01*
X101684853Y-85541426D01*
X101576680Y-85280273D01*
X101419637Y-85045241D01*
X101219759Y-84845363D01*
X100984727Y-84688320D01*
X100723574Y-84580147D01*
X100446335Y-84525000D01*
X100163665Y-84525000D01*
X99886426Y-84580147D01*
X99625273Y-84688320D01*
X99390241Y-84845363D01*
X99190363Y-85045241D01*
X99033320Y-85280273D01*
X98925147Y-85541426D01*
X98920000Y-85567301D01*
X98914853Y-85541426D01*
X98806680Y-85280273D01*
X98649637Y-85045241D01*
X98449759Y-84845363D01*
X98214727Y-84688320D01*
X97953574Y-84580147D01*
X97676335Y-84525000D01*
X97393665Y-84525000D01*
X97116426Y-84580147D01*
X96855273Y-84688320D01*
X96620241Y-84845363D01*
X96420363Y-85045241D01*
X96263320Y-85280273D01*
X96155147Y-85541426D01*
X96149487Y-85569882D01*
X96068603Y-85343708D01*
X96001671Y-85218486D01*
X95757702Y-85146903D01*
X94944605Y-85960000D01*
X95757702Y-86773097D01*
X96001671Y-86701514D01*
X96122571Y-86446004D01*
X96148212Y-86343711D01*
X96155147Y-86378574D01*
X96263320Y-86639727D01*
X96420363Y-86874759D01*
X96620241Y-87074637D01*
X96775001Y-87178044D01*
X96775001Y-87508198D01*
X96636004Y-87442429D01*
X96361816Y-87373700D01*
X96079488Y-87359783D01*
X95799870Y-87401213D01*
X95533708Y-87496397D01*
X95408486Y-87563329D01*
X95336903Y-87807298D01*
X96150000Y-88620395D01*
X96164143Y-88606253D01*
X96343748Y-88785858D01*
X96329605Y-88800000D01*
X96343748Y-88814143D01*
X96164143Y-88993748D01*
X96150000Y-88979605D01*
X95336903Y-89792702D01*
X95408486Y-90036671D01*
X95663996Y-90157571D01*
X95938184Y-90226300D01*
X96220512Y-90240217D01*
X96500130Y-90198787D01*
X96766292Y-90103603D01*
X96775000Y-90098948D01*
X96775000Y-92293078D01*
X84868079Y-104200000D01*
X83528178Y-104200000D01*
X83403475Y-104013368D01*
X83196632Y-103806525D01*
X82953411Y-103644010D01*
X82683158Y-103532068D01*
X82396260Y-103475000D01*
X82103740Y-103475000D01*
X81816842Y-103532068D01*
X81546589Y-103644010D01*
X81303368Y-103806525D01*
X81096525Y-104013368D01*
X80934010Y-104256589D01*
X80822068Y-104526842D01*
X80765000Y-104813740D01*
X80765000Y-105106260D01*
X80822068Y-105393158D01*
X80934010Y-105663411D01*
X81096525Y-105906632D01*
X81228380Y-106038487D01*
X81155820Y-106060498D01*
X81045506Y-106119463D01*
X80948815Y-106198815D01*
X80869463Y-106295506D01*
X80810498Y-106405820D01*
X80774188Y-106525518D01*
X80761928Y-106650000D01*
X78160000Y-106650000D01*
X78160000Y-94761818D01*
X85081701Y-94761818D01*
X85081701Y-95238182D01*
X85174635Y-95705392D01*
X85356931Y-96145494D01*
X85621585Y-96541576D01*
X85958424Y-96878415D01*
X86354506Y-97143069D01*
X86794608Y-97325365D01*
X87261818Y-97418299D01*
X87738182Y-97418299D01*
X88205392Y-97325365D01*
X88645494Y-97143069D01*
X89041576Y-96878415D01*
X89378415Y-96541576D01*
X89643069Y-96145494D01*
X89825365Y-95705392D01*
X89918299Y-95238182D01*
X89918299Y-94761818D01*
X89825365Y-94294608D01*
X89643069Y-93854506D01*
X89378415Y-93458424D01*
X89041576Y-93121585D01*
X88645494Y-92856931D01*
X88205392Y-92674635D01*
X87738182Y-92581701D01*
X87261818Y-92581701D01*
X86794608Y-92674635D01*
X86354506Y-92856931D01*
X85958424Y-93121585D01*
X85621585Y-93458424D01*
X85356931Y-93854506D01*
X85174635Y-94294608D01*
X85081701Y-94761818D01*
X78160000Y-94761818D01*
X78160000Y-88240475D01*
X83815000Y-88240475D01*
X83815000Y-88759525D01*
X83916261Y-89268601D01*
X84114893Y-89748141D01*
X84403262Y-90179715D01*
X84770285Y-90546738D01*
X85201859Y-90835107D01*
X85681399Y-91033739D01*
X86190475Y-91135000D01*
X86709525Y-91135000D01*
X87218601Y-91033739D01*
X87698141Y-90835107D01*
X88129715Y-90546738D01*
X88496738Y-90179715D01*
X88755332Y-89792702D01*
X92566903Y-89792702D01*
X92638486Y-90036671D01*
X92893996Y-90157571D01*
X93168184Y-90226300D01*
X93450512Y-90240217D01*
X93730130Y-90198787D01*
X93996292Y-90103603D01*
X94121514Y-90036671D01*
X94193097Y-89792702D01*
X93380000Y-88979605D01*
X92566903Y-89792702D01*
X88755332Y-89792702D01*
X88785107Y-89748141D01*
X88983739Y-89268601D01*
X89062923Y-88870512D01*
X91939783Y-88870512D01*
X91981213Y-89150130D01*
X92076397Y-89416292D01*
X92143329Y-89541514D01*
X92387298Y-89613097D01*
X93200395Y-88800000D01*
X93559605Y-88800000D01*
X94372702Y-89613097D01*
X94616671Y-89541514D01*
X94737571Y-89286004D01*
X94763216Y-89183695D01*
X94846397Y-89416292D01*
X94913329Y-89541514D01*
X95157298Y-89613097D01*
X95970395Y-88800000D01*
X95157298Y-87986903D01*
X94913329Y-88058486D01*
X94792429Y-88313996D01*
X94766784Y-88416305D01*
X94683603Y-88183708D01*
X94616671Y-88058486D01*
X94372702Y-87986903D01*
X93559605Y-88800000D01*
X93200395Y-88800000D01*
X92387298Y-87986903D01*
X92143329Y-88058486D01*
X92022429Y-88313996D01*
X91953700Y-88588184D01*
X91939783Y-88870512D01*
X89062923Y-88870512D01*
X89085000Y-88759525D01*
X89085000Y-88240475D01*
X88998837Y-87807298D01*
X92566903Y-87807298D01*
X93380000Y-88620395D01*
X94193097Y-87807298D01*
X94121514Y-87563329D01*
X93866004Y-87442429D01*
X93591816Y-87373700D01*
X93309488Y-87359783D01*
X93029870Y-87401213D01*
X92763708Y-87496397D01*
X92638486Y-87563329D01*
X92566903Y-87807298D01*
X88998837Y-87807298D01*
X88983739Y-87731399D01*
X88785107Y-87251859D01*
X88585217Y-86952702D01*
X93951903Y-86952702D01*
X94023486Y-87196671D01*
X94278996Y-87317571D01*
X94553184Y-87386300D01*
X94835512Y-87400217D01*
X95115130Y-87358787D01*
X95381292Y-87263603D01*
X95506514Y-87196671D01*
X95578097Y-86952702D01*
X94765000Y-86139605D01*
X93951903Y-86952702D01*
X88585217Y-86952702D01*
X88496738Y-86820285D01*
X88129715Y-86453262D01*
X87698141Y-86164893D01*
X87373717Y-86030512D01*
X93324783Y-86030512D01*
X93366213Y-86310130D01*
X93461397Y-86576292D01*
X93528329Y-86701514D01*
X93772298Y-86773097D01*
X94585395Y-85960000D01*
X93772298Y-85146903D01*
X93528329Y-85218486D01*
X93407429Y-85473996D01*
X93338700Y-85748184D01*
X93324783Y-86030512D01*
X87373717Y-86030512D01*
X87218601Y-85966261D01*
X86709525Y-85865000D01*
X86190475Y-85865000D01*
X85681399Y-85966261D01*
X85201859Y-86164893D01*
X84770285Y-86453262D01*
X84403262Y-86820285D01*
X84114893Y-87251859D01*
X83916261Y-87731399D01*
X83815000Y-88240475D01*
X78160000Y-88240475D01*
X78160000Y-84967298D01*
X93951903Y-84967298D01*
X94765000Y-85780395D01*
X95578097Y-84967298D01*
X95506514Y-84723329D01*
X95251004Y-84602429D01*
X94976816Y-84533700D01*
X94694488Y-84519783D01*
X94414870Y-84561213D01*
X94148708Y-84656397D01*
X94023486Y-84723329D01*
X93951903Y-84967298D01*
X78160000Y-84967298D01*
X78160000Y-83532279D01*
X78169580Y-83434576D01*
X78188580Y-83371644D01*
X78219445Y-83313595D01*
X78260989Y-83262657D01*
X78311644Y-83220752D01*
X78369471Y-83189485D01*
X78432272Y-83170044D01*
X78527835Y-83160000D01*
X80532419Y-83160000D01*
X80560674Y-83157217D01*
X80566801Y-83157260D01*
X80575972Y-83156360D01*
X80770069Y-83135959D01*
X80828658Y-83123932D01*
X80887423Y-83112723D01*
X80896245Y-83110059D01*
X81082683Y-83052347D01*
X81137838Y-83029162D01*
X81193291Y-83006758D01*
X81201427Y-83002432D01*
X81373104Y-82909607D01*
X81422699Y-82876154D01*
X81472753Y-82843400D01*
X81479894Y-82837576D01*
X81630272Y-82713172D01*
X81672411Y-82670737D01*
X81715161Y-82628874D01*
X81721034Y-82621773D01*
X81844384Y-82470531D01*
X81877477Y-82420723D01*
X81911284Y-82371349D01*
X81915667Y-82363243D01*
X82007292Y-82190920D01*
X82030090Y-82135608D01*
X82053652Y-82080634D01*
X82056377Y-82071831D01*
X82112786Y-81884994D01*
X82124405Y-81826314D01*
X82136842Y-81767804D01*
X82137805Y-81758639D01*
X82156850Y-81564406D01*
X82156850Y-81564404D01*
X82169580Y-81434576D01*
X82188580Y-81371644D01*
X82219445Y-81313595D01*
X82260989Y-81262657D01*
X82311644Y-81220752D01*
X82369471Y-81189485D01*
X82432272Y-81170044D01*
X82527835Y-81160000D01*
X137467721Y-81160000D01*
X137565424Y-81169580D01*
G37*
X137565424Y-81169580D02*
X137628356Y-81188580D01*
X137686405Y-81219445D01*
X137737343Y-81260989D01*
X137779248Y-81311644D01*
X137810515Y-81369471D01*
X137829956Y-81432272D01*
X137842824Y-81554708D01*
X137842740Y-81566801D01*
X137843640Y-81575972D01*
X137864041Y-81770069D01*
X137876068Y-81828658D01*
X137887277Y-81887423D01*
X137889941Y-81896245D01*
X137947653Y-82082683D01*
X137970838Y-82137838D01*
X137993242Y-82193291D01*
X137997568Y-82201427D01*
X138090393Y-82373104D01*
X138123846Y-82422699D01*
X138156600Y-82472753D01*
X138162424Y-82479894D01*
X138286828Y-82630272D01*
X138329263Y-82672411D01*
X138371126Y-82715161D01*
X138378227Y-82721034D01*
X138529469Y-82844384D01*
X138579277Y-82877477D01*
X138628651Y-82911284D01*
X138636757Y-82915667D01*
X138809080Y-83007292D01*
X138864392Y-83030090D01*
X138919366Y-83053652D01*
X138928169Y-83056377D01*
X139115006Y-83112786D01*
X139173686Y-83124405D01*
X139232196Y-83136842D01*
X139241361Y-83137805D01*
X139435594Y-83156850D01*
X139435598Y-83156850D01*
X139467581Y-83160000D01*
X141467721Y-83160000D01*
X141565424Y-83169580D01*
X141628356Y-83188580D01*
X141686405Y-83219445D01*
X141737343Y-83260989D01*
X141779248Y-83311644D01*
X141810515Y-83369471D01*
X141829956Y-83432272D01*
X141840000Y-83527835D01*
X141840001Y-196467711D01*
X141830420Y-196565424D01*
X141811420Y-196628357D01*
X141780554Y-196686406D01*
X141739011Y-196737343D01*
X141688356Y-196779248D01*
X141630529Y-196810515D01*
X141567728Y-196829956D01*
X141472165Y-196840000D01*
X139467581Y-196840000D01*
X139439326Y-196842783D01*
X139433199Y-196842740D01*
X139424028Y-196843640D01*
X139229931Y-196864041D01*
X139171348Y-196876066D01*
X139112577Y-196887277D01*
X139103755Y-196889941D01*
X138917317Y-196947653D01*
X138862162Y-196970838D01*
X138806709Y-196993242D01*
X138798573Y-196997568D01*
X138626896Y-197090393D01*
X138577278Y-197123861D01*
X138527247Y-197156600D01*
X138520106Y-197162424D01*
X138369728Y-197286828D01*
X138327589Y-197329263D01*
X138284839Y-197371126D01*
X138278966Y-197378227D01*
X138155616Y-197529469D01*
X138122534Y-197579262D01*
X138088716Y-197628651D01*
X138084333Y-197636757D01*
X137992708Y-197809079D01*
X137969909Y-197864394D01*
X137946348Y-197919366D01*
X137943623Y-197928169D01*
X137887214Y-198115005D01*
X137875594Y-198173693D01*
X137863158Y-198232196D01*
X137862195Y-198241361D01*
X137843150Y-198435595D01*
X137830420Y-198565424D01*
X137811420Y-198628357D01*
X137780554Y-198686406D01*
X137739011Y-198737343D01*
X137688356Y-198779248D01*
X137630529Y-198810515D01*
X137567728Y-198829956D01*
X137472165Y-198840000D01*
X82532279Y-198840000D01*
X82434576Y-198830420D01*
X82371643Y-198811420D01*
X82313594Y-198780554D01*
X82262657Y-198739011D01*
X82220752Y-198688356D01*
X82189485Y-198630529D01*
X82170044Y-198567728D01*
X82157176Y-198445292D01*
X82157260Y-198433199D01*
X82156360Y-198424028D01*
X82135959Y-198229931D01*
X82123934Y-198171348D01*
X82112723Y-198112577D01*
X82110059Y-198103755D01*
X82052347Y-197917317D01*
X82029162Y-197862162D01*
X82006758Y-197806709D01*
X82002432Y-197798573D01*
X81909607Y-197626896D01*
X81876139Y-197577278D01*
X81843400Y-197527247D01*
X81837576Y-197520106D01*
X81713172Y-197369728D01*
X81670737Y-197327589D01*
X81628874Y-197284839D01*
X81621773Y-197278966D01*
X81470531Y-197155616D01*
X81420738Y-197122534D01*
X81371349Y-197088716D01*
X81363243Y-197084333D01*
X81190921Y-196992708D01*
X81135606Y-196969909D01*
X81080634Y-196946348D01*
X81071831Y-196943623D01*
X80884995Y-196887214D01*
X80826307Y-196875594D01*
X80767804Y-196863158D01*
X80758639Y-196862195D01*
X80564405Y-196843150D01*
X80564402Y-196843150D01*
X80532419Y-196840000D01*
X78532279Y-196840000D01*
X78434576Y-196830420D01*
X78371643Y-196811420D01*
X78313594Y-196780554D01*
X78262657Y-196739011D01*
X78220752Y-196688356D01*
X78189485Y-196630529D01*
X78170044Y-196567728D01*
X78160000Y-196472165D01*
X78160000Y-191419679D01*
X84265000Y-191419679D01*
X84265000Y-192580322D01*
X84288657Y-192820516D01*
X84382148Y-193128715D01*
X84533970Y-193412752D01*
X84738287Y-193661714D01*
X84987249Y-193866031D01*
X85271286Y-194017852D01*
X85579485Y-194111343D01*
X85900000Y-194142911D01*
X86220516Y-194111343D01*
X86528715Y-194017852D01*
X86812752Y-193866031D01*
X87061714Y-193661714D01*
X87266031Y-193412752D01*
X87417852Y-193128715D01*
X87511343Y-192820516D01*
X87535000Y-192580322D01*
X87535000Y-191419679D01*
X88865000Y-191419679D01*
X88865000Y-192580322D01*
X88888657Y-192820516D01*
X88982148Y-193128715D01*
X89133970Y-193412752D01*
X89338287Y-193661714D01*
X89587249Y-193866031D01*
X89871286Y-194017852D01*
X90179485Y-194111343D01*
X90500000Y-194142911D01*
X90820516Y-194111343D01*
X91128715Y-194017852D01*
X91412752Y-193866031D01*
X91661714Y-193661714D01*
X91866031Y-193412752D01*
X92017852Y-193128715D01*
X92111343Y-192820516D01*
X92135000Y-192580322D01*
X92135000Y-191419679D01*
X93465000Y-191419679D01*
X93465000Y-192580322D01*
X93488657Y-192820516D01*
X93582148Y-193128715D01*
X93733970Y-193412752D01*
X93938287Y-193661714D01*
X94187249Y-193866031D01*
X94471286Y-194017852D01*
X94779485Y-194111343D01*
X95100000Y-194142911D01*
X95420516Y-194111343D01*
X95728715Y-194017852D01*
X96012752Y-193866031D01*
X96261714Y-193661714D01*
X96466031Y-193412752D01*
X96617852Y-193128715D01*
X96711343Y-192820516D01*
X96735000Y-192580322D01*
X96735000Y-191419678D01*
X96711343Y-191179484D01*
X96617852Y-190871285D01*
X96466031Y-190587248D01*
X96261714Y-190338286D01*
X96012751Y-190133969D01*
X95728714Y-189982148D01*
X95420515Y-189888657D01*
X95100000Y-189857089D01*
X94779484Y-189888657D01*
X94471285Y-189982148D01*
X94187248Y-190133969D01*
X93938286Y-190338286D01*
X93733969Y-190587249D01*
X93582148Y-190871286D01*
X93488657Y-191179485D01*
X93465000Y-191419679D01*
X92135000Y-191419679D01*
X92135000Y-191419678D01*
X92111343Y-191179484D01*
X92017852Y-190871285D01*
X91866031Y-190587248D01*
X91661714Y-190338286D01*
X91412751Y-190133969D01*
X91128714Y-189982148D01*
X90820515Y-189888657D01*
X90500000Y-189857089D01*
X90179484Y-189888657D01*
X89871285Y-189982148D01*
X89587248Y-190133969D01*
X89338286Y-190338286D01*
X89133969Y-190587249D01*
X88982148Y-190871286D01*
X88888657Y-191179485D01*
X88865000Y-191419679D01*
X87535000Y-191419679D01*
X87535000Y-191419678D01*
X87511343Y-191179484D01*
X87417852Y-190871285D01*
X87266031Y-190587248D01*
X87061714Y-190338286D01*
X86812751Y-190133969D01*
X86528714Y-189982148D01*
X86220515Y-189888657D01*
X85900000Y-189857089D01*
X85579484Y-189888657D01*
X85271285Y-189982148D01*
X84987248Y-190133969D01*
X84738286Y-190338286D01*
X84533969Y-190587249D01*
X84382148Y-190871286D01*
X84288657Y-191179485D01*
X84265000Y-191419679D01*
X78160000Y-191419679D01*
X78160000Y-184761818D01*
X85081701Y-184761818D01*
X85081701Y-185238182D01*
X85174635Y-185705392D01*
X85356931Y-186145494D01*
X85621585Y-186541576D01*
X85958424Y-186878415D01*
X86354506Y-187143069D01*
X86794608Y-187325365D01*
X87261818Y-187418299D01*
X87738182Y-187418299D01*
X88205392Y-187325365D01*
X88645494Y-187143069D01*
X89041576Y-186878415D01*
X89378415Y-186541576D01*
X89643069Y-186145494D01*
X89825365Y-185705392D01*
X89918299Y-185238182D01*
X89918299Y-184761818D01*
X89825365Y-184294608D01*
X89643069Y-183854506D01*
X89378415Y-183458424D01*
X89041576Y-183121585D01*
X88645494Y-182856931D01*
X88205392Y-182674635D01*
X87738182Y-182581701D01*
X87261818Y-182581701D01*
X86794608Y-182674635D01*
X86354506Y-182856931D01*
X85958424Y-183121585D01*
X85621585Y-183458424D01*
X85356931Y-183854506D01*
X85174635Y-184294608D01*
X85081701Y-184761818D01*
X78160000Y-184761818D01*
X78160000Y-177419679D01*
X84265000Y-177419679D01*
X84265000Y-178580322D01*
X84288657Y-178820516D01*
X84382148Y-179128715D01*
X84533970Y-179412752D01*
X84738287Y-179661714D01*
X84987249Y-179866031D01*
X85271286Y-180017852D01*
X85579485Y-180111343D01*
X85900000Y-180142911D01*
X86220516Y-180111343D01*
X86528715Y-180017852D01*
X86812752Y-179866031D01*
X87061714Y-179661714D01*
X87266031Y-179412752D01*
X87417852Y-179128715D01*
X87511343Y-178820516D01*
X87535000Y-178580322D01*
X87535000Y-177419679D01*
X88865000Y-177419679D01*
X88865000Y-178580322D01*
X88888657Y-178820516D01*
X88982148Y-179128715D01*
X89133970Y-179412752D01*
X89338287Y-179661714D01*
X89587249Y-179866031D01*
X89871286Y-180017852D01*
X90179485Y-180111343D01*
X90500000Y-180142911D01*
X90820516Y-180111343D01*
X91128715Y-180017852D01*
X91412752Y-179866031D01*
X91661714Y-179661714D01*
X91866031Y-179412752D01*
X92017852Y-179128715D01*
X92111343Y-178820516D01*
X92135000Y-178580322D01*
X92135000Y-177419679D01*
X93465000Y-177419679D01*
X93465000Y-178580322D01*
X93488657Y-178820516D01*
X93582148Y-179128715D01*
X93733970Y-179412752D01*
X93938287Y-179661714D01*
X94187249Y-179866031D01*
X94471286Y-180017852D01*
X94779485Y-180111343D01*
X95100000Y-180142911D01*
X95420516Y-180111343D01*
X95728715Y-180017852D01*
X96012752Y-179866031D01*
X96261714Y-179661714D01*
X96466031Y-179412752D01*
X96617852Y-179128715D01*
X96711343Y-178820516D01*
X96735000Y-178580322D01*
X96735000Y-177419678D01*
X96711343Y-177179484D01*
X96617852Y-176871285D01*
X96466031Y-176587248D01*
X96261714Y-176338286D01*
X96012751Y-176133969D01*
X95728714Y-175982148D01*
X95420515Y-175888657D01*
X95100000Y-175857089D01*
X94779484Y-175888657D01*
X94471285Y-175982148D01*
X94187248Y-176133969D01*
X93938286Y-176338286D01*
X93733969Y-176587249D01*
X93582148Y-176871286D01*
X93488657Y-177179485D01*
X93465000Y-177419679D01*
X92135000Y-177419679D01*
X92135000Y-177419678D01*
X92111343Y-177179484D01*
X92017852Y-176871285D01*
X91866031Y-176587248D01*
X91661714Y-176338286D01*
X91412751Y-176133969D01*
X91128714Y-175982148D01*
X90820515Y-175888657D01*
X90500000Y-175857089D01*
X90179484Y-175888657D01*
X89871285Y-175982148D01*
X89587248Y-176133969D01*
X89338286Y-176338286D01*
X89133969Y-176587249D01*
X88982148Y-176871286D01*
X88888657Y-177179485D01*
X88865000Y-177419679D01*
X87535000Y-177419679D01*
X87535000Y-177419678D01*
X87511343Y-177179484D01*
X87417852Y-176871285D01*
X87266031Y-176587248D01*
X87061714Y-176338286D01*
X86812751Y-176133969D01*
X86528714Y-175982148D01*
X86220515Y-175888657D01*
X85900000Y-175857089D01*
X85579484Y-175888657D01*
X85271285Y-175982148D01*
X84987248Y-176133969D01*
X84738286Y-176338286D01*
X84533969Y-176587249D01*
X84382148Y-176871286D01*
X84288657Y-177179485D01*
X84265000Y-177419679D01*
X78160000Y-177419679D01*
X78160000Y-163419679D01*
X84265000Y-163419679D01*
X84265000Y-164580322D01*
X84288657Y-164820516D01*
X84382148Y-165128715D01*
X84533970Y-165412752D01*
X84738287Y-165661714D01*
X84987249Y-165866031D01*
X85271286Y-166017852D01*
X85579485Y-166111343D01*
X85900000Y-166142911D01*
X86220516Y-166111343D01*
X86528715Y-166017852D01*
X86812752Y-165866031D01*
X87061714Y-165661714D01*
X87266031Y-165412752D01*
X87417852Y-165128715D01*
X87511343Y-164820516D01*
X87535000Y-164580322D01*
X87535000Y-163419679D01*
X88865000Y-163419679D01*
X88865000Y-164580322D01*
X88888657Y-164820516D01*
X88982148Y-165128715D01*
X89133970Y-165412752D01*
X89338287Y-165661714D01*
X89587249Y-165866031D01*
X89871286Y-166017852D01*
X90179485Y-166111343D01*
X90500000Y-166142911D01*
X90820516Y-166111343D01*
X91128715Y-166017852D01*
X91412752Y-165866031D01*
X91661714Y-165661714D01*
X91866031Y-165412752D01*
X92017852Y-165128715D01*
X92111343Y-164820516D01*
X92135000Y-164580322D01*
X92135000Y-163419679D01*
X93465000Y-163419679D01*
X93465000Y-164580322D01*
X93488657Y-164820516D01*
X93582148Y-165128715D01*
X93733970Y-165412752D01*
X93938287Y-165661714D01*
X94187249Y-165866031D01*
X94471286Y-166017852D01*
X94779485Y-166111343D01*
X95100000Y-166142911D01*
X95420516Y-166111343D01*
X95728715Y-166017852D01*
X96012752Y-165866031D01*
X96261714Y-165661714D01*
X96466031Y-165412752D01*
X96617852Y-165128715D01*
X96711343Y-164820516D01*
X96735000Y-164580322D01*
X96735000Y-163419678D01*
X96711343Y-163179484D01*
X96617852Y-162871285D01*
X96466031Y-162587248D01*
X96261714Y-162338286D01*
X96012751Y-162133969D01*
X95728714Y-161982148D01*
X95420515Y-161888657D01*
X95100000Y-161857089D01*
X94779484Y-161888657D01*
X94471285Y-161982148D01*
X94187248Y-162133969D01*
X93938286Y-162338286D01*
X93733969Y-162587249D01*
X93582148Y-162871286D01*
X93488657Y-163179485D01*
X93465000Y-163419679D01*
X92135000Y-163419679D01*
X92135000Y-163419678D01*
X92111343Y-163179484D01*
X92017852Y-162871285D01*
X91866031Y-162587248D01*
X91661714Y-162338286D01*
X91412751Y-162133969D01*
X91128714Y-161982148D01*
X90820515Y-161888657D01*
X90500000Y-161857089D01*
X90179484Y-161888657D01*
X89871285Y-161982148D01*
X89587248Y-162133969D01*
X89338286Y-162338286D01*
X89133969Y-162587249D01*
X88982148Y-162871286D01*
X88888657Y-163179485D01*
X88865000Y-163419679D01*
X87535000Y-163419679D01*
X87535000Y-163419678D01*
X87511343Y-163179484D01*
X87417852Y-162871285D01*
X87266031Y-162587248D01*
X87061714Y-162338286D01*
X86812751Y-162133969D01*
X86528714Y-161982148D01*
X86220515Y-161888657D01*
X85900000Y-161857089D01*
X85579484Y-161888657D01*
X85271285Y-161982148D01*
X84987248Y-162133969D01*
X84738286Y-162338286D01*
X84533969Y-162587249D01*
X84382148Y-162871286D01*
X84288657Y-163179485D01*
X84265000Y-163419679D01*
X78160000Y-163419679D01*
X78160000Y-149419679D01*
X84265000Y-149419679D01*
X84265000Y-150580322D01*
X84288657Y-150820516D01*
X84382148Y-151128715D01*
X84533970Y-151412752D01*
X84738287Y-151661714D01*
X84987249Y-151866031D01*
X85271286Y-152017852D01*
X85579485Y-152111343D01*
X85900000Y-152142911D01*
X86220516Y-152111343D01*
X86528715Y-152017852D01*
X86812752Y-151866031D01*
X87061714Y-151661714D01*
X87266031Y-151412752D01*
X87417852Y-151128715D01*
X87511343Y-150820516D01*
X87535000Y-150580322D01*
X87535000Y-149419679D01*
X88865000Y-149419679D01*
X88865000Y-150580322D01*
X88888657Y-150820516D01*
X88982148Y-151128715D01*
X89133970Y-151412752D01*
X89338287Y-151661714D01*
X89587249Y-151866031D01*
X89871286Y-152017852D01*
X90179485Y-152111343D01*
X90500000Y-152142911D01*
X90820516Y-152111343D01*
X91128715Y-152017852D01*
X91412752Y-151866031D01*
X91661714Y-151661714D01*
X91866031Y-151412752D01*
X92017852Y-151128715D01*
X92111343Y-150820516D01*
X92135000Y-150580322D01*
X92135000Y-149419679D01*
X93465000Y-149419679D01*
X93465000Y-150580322D01*
X93488657Y-150820516D01*
X93582148Y-151128715D01*
X93733970Y-151412752D01*
X93938287Y-151661714D01*
X94187249Y-151866031D01*
X94471286Y-152017852D01*
X94779485Y-152111343D01*
X95100000Y-152142911D01*
X95420516Y-152111343D01*
X95728715Y-152017852D01*
X96012752Y-151866031D01*
X96261714Y-151661714D01*
X96466031Y-151412752D01*
X96617852Y-151128715D01*
X96711343Y-150820516D01*
X96735000Y-150580322D01*
X96735000Y-149419678D01*
X96711343Y-149179484D01*
X96617852Y-148871285D01*
X96466031Y-148587248D01*
X96261714Y-148338286D01*
X96012751Y-148133969D01*
X95728714Y-147982148D01*
X95420515Y-147888657D01*
X95100000Y-147857089D01*
X94779484Y-147888657D01*
X94471285Y-147982148D01*
X94187248Y-148133969D01*
X93938286Y-148338286D01*
X93733969Y-148587249D01*
X93582148Y-148871286D01*
X93488657Y-149179485D01*
X93465000Y-149419679D01*
X92135000Y-149419679D01*
X92135000Y-149419678D01*
X92111343Y-149179484D01*
X92017852Y-148871285D01*
X91866031Y-148587248D01*
X91661714Y-148338286D01*
X91412751Y-148133969D01*
X91128714Y-147982148D01*
X90820515Y-147888657D01*
X90500000Y-147857089D01*
X90179484Y-147888657D01*
X89871285Y-147982148D01*
X89587248Y-148133969D01*
X89338286Y-148338286D01*
X89133969Y-148587249D01*
X88982148Y-148871286D01*
X88888657Y-149179485D01*
X88865000Y-149419679D01*
X87535000Y-149419679D01*
X87535000Y-149419678D01*
X87511343Y-149179484D01*
X87417852Y-148871285D01*
X87266031Y-148587248D01*
X87061714Y-148338286D01*
X86812751Y-148133969D01*
X86528714Y-147982148D01*
X86220515Y-147888657D01*
X85900000Y-147857089D01*
X85579484Y-147888657D01*
X85271285Y-147982148D01*
X84987248Y-148133969D01*
X84738286Y-148338286D01*
X84533969Y-148587249D01*
X84382148Y-148871286D01*
X84288657Y-149179485D01*
X84265000Y-149419679D01*
X78160000Y-149419679D01*
X78160000Y-138600000D01*
X81701928Y-138600000D01*
X81714188Y-138724482D01*
X81750498Y-138844180D01*
X81809463Y-138954494D01*
X81888815Y-139051185D01*
X81985506Y-139130537D01*
X82095820Y-139189502D01*
X82215518Y-139225812D01*
X82340000Y-139238072D01*
X82924250Y-139235000D01*
X83083000Y-139076250D01*
X83083000Y-137627000D01*
X81863750Y-137627000D01*
X81705000Y-137785750D01*
X81701928Y-138600000D01*
X78160000Y-138600000D01*
X78160000Y-136400000D01*
X81701928Y-136400000D01*
X81705000Y-137214250D01*
X81863750Y-137373000D01*
X83083000Y-137373000D01*
X83083000Y-135923750D01*
X82924250Y-135765000D01*
X82340000Y-135761928D01*
X82215518Y-135774188D01*
X82095820Y-135810498D01*
X81985506Y-135869463D01*
X81888815Y-135948815D01*
X81809463Y-136045506D01*
X81750498Y-136155820D01*
X81714188Y-136275518D01*
X81701928Y-136400000D01*
X78160000Y-136400000D01*
X78160000Y-131100000D01*
X81701928Y-131100000D01*
X81714188Y-131224482D01*
X81750498Y-131344180D01*
X81809463Y-131454494D01*
X81888815Y-131551185D01*
X81985506Y-131630537D01*
X82095820Y-131689502D01*
X82215518Y-131725812D01*
X82340000Y-131738072D01*
X82924250Y-131735000D01*
X83083000Y-131576250D01*
X83083000Y-130127000D01*
X81863750Y-130127000D01*
X81705000Y-130285750D01*
X81701928Y-131100000D01*
X78160000Y-131100000D01*
X78160000Y-128900000D01*
X81701928Y-128900000D01*
X81705000Y-129714250D01*
X81863750Y-129873000D01*
X83083000Y-129873000D01*
X83083000Y-128423750D01*
X82924250Y-128265000D01*
X82340000Y-128261928D01*
X82215518Y-128274188D01*
X82095820Y-128310498D01*
X81985506Y-128369463D01*
X81888815Y-128448815D01*
X81809463Y-128545506D01*
X81750498Y-128655820D01*
X81714188Y-128775518D01*
X81701928Y-128900000D01*
X78160000Y-128900000D01*
X78160000Y-122819268D01*
X81585000Y-122819268D01*
X81585000Y-123180732D01*
X81655518Y-123535250D01*
X81793844Y-123869199D01*
X81994662Y-124169744D01*
X82250256Y-124425338D01*
X82550801Y-124626156D01*
X82884750Y-124764482D01*
X83239268Y-124835000D01*
X83600732Y-124835000D01*
X83955250Y-124764482D01*
X84289199Y-124626156D01*
X84589744Y-124425338D01*
X84845338Y-124169744D01*
X85046156Y-123869199D01*
X85184482Y-123535250D01*
X85255000Y-123180732D01*
X85255000Y-122819268D01*
X86665000Y-122819268D01*
X86665000Y-123180732D01*
X86735518Y-123535250D01*
X86873844Y-123869199D01*
X87074662Y-124169744D01*
X87330256Y-124425338D01*
X87630801Y-124626156D01*
X87964750Y-124764482D01*
X88319268Y-124835000D01*
X88680732Y-124835000D01*
X89035250Y-124764482D01*
X89369199Y-124626156D01*
X89669744Y-124425338D01*
X89925338Y-124169744D01*
X90126156Y-123869199D01*
X90264482Y-123535250D01*
X90335000Y-123180732D01*
X90335000Y-122819268D01*
X90264482Y-122464750D01*
X90126156Y-122130801D01*
X89925338Y-121830256D01*
X89669744Y-121574662D01*
X89369199Y-121373844D01*
X89035250Y-121235518D01*
X88680732Y-121165000D01*
X88319268Y-121165000D01*
X87964750Y-121235518D01*
X87630801Y-121373844D01*
X87330256Y-121574662D01*
X87074662Y-121830256D01*
X86873844Y-122130801D01*
X86735518Y-122464750D01*
X86665000Y-122819268D01*
X85255000Y-122819268D01*
X85184482Y-122464750D01*
X85046156Y-122130801D01*
X84845338Y-121830256D01*
X84589744Y-121574662D01*
X84289199Y-121373844D01*
X83955250Y-121235518D01*
X83600732Y-121165000D01*
X83239268Y-121165000D01*
X82884750Y-121235518D01*
X82550801Y-121373844D01*
X82250256Y-121574662D01*
X81994662Y-121830256D01*
X81793844Y-122130801D01*
X81655518Y-122464750D01*
X81585000Y-122819268D01*
X78160000Y-122819268D01*
X78160000Y-106650000D01*
X80761928Y-106650000D01*
X80761928Y-108350000D01*
X80774188Y-108474482D01*
X80810498Y-108594180D01*
X80869463Y-108704494D01*
X80948815Y-108801185D01*
X81045506Y-108880537D01*
X81155820Y-108939502D01*
X81275518Y-108975812D01*
X81400000Y-108988072D01*
X83100000Y-108988072D01*
X83224482Y-108975812D01*
X83344180Y-108939502D01*
X83454494Y-108880537D01*
X83551185Y-108801185D01*
X83630537Y-108704494D01*
X83689502Y-108594180D01*
X83725812Y-108474482D01*
X83738072Y-108350000D01*
X83738072Y-108154326D01*
X83774276Y-108134974D01*
X83890001Y-108040001D01*
X83913804Y-108010997D01*
X99431004Y-92493798D01*
X99460001Y-92470001D01*
X99554974Y-92354276D01*
X99625546Y-92222247D01*
X99669003Y-92078986D01*
X99680000Y-91967333D01*
X99680000Y-91967324D01*
X99683676Y-91930001D01*
X99680000Y-91892678D01*
X99680000Y-90018043D01*
X99834759Y-89914637D01*
X100034637Y-89714759D01*
X100191680Y-89479727D01*
X100299853Y-89218574D01*
X100305000Y-89192699D01*
X100310147Y-89218574D01*
X100418320Y-89479727D01*
X100575363Y-89714759D01*
X100775241Y-89914637D01*
X101010273Y-90071680D01*
X101271426Y-90179853D01*
X101548665Y-90235000D01*
X101831335Y-90235000D01*
X102108574Y-90179853D01*
X102315001Y-90094348D01*
X102315000Y-115488837D01*
X98333947Y-119469892D01*
X98304949Y-119493690D01*
X98281151Y-119522688D01*
X98281150Y-119522689D01*
X98209975Y-119609415D01*
X98139403Y-119741445D01*
X98117717Y-119812937D01*
X98095947Y-119884705D01*
X98090805Y-119936909D01*
X98081273Y-120033691D01*
X98084950Y-120071023D01*
X98084949Y-130728088D01*
X97073038Y-131740000D01*
X89754802Y-131740000D01*
X89334520Y-131319718D01*
X89359345Y-131299345D01*
X89547417Y-131070179D01*
X89687166Y-130808724D01*
X89773224Y-130525031D01*
X89795000Y-130303935D01*
X89795000Y-129696064D01*
X89773224Y-129474968D01*
X89687166Y-129191275D01*
X89547417Y-128929821D01*
X89359345Y-128700655D01*
X89130178Y-128512583D01*
X88868724Y-128372834D01*
X88585031Y-128286776D01*
X88290000Y-128257718D01*
X87994968Y-128286776D01*
X87711275Y-128372834D01*
X87449821Y-128512583D01*
X87220655Y-128700655D01*
X87032583Y-128929822D01*
X87020000Y-128953363D01*
X87007417Y-128929821D01*
X86819345Y-128700655D01*
X86590178Y-128512583D01*
X86328724Y-128372834D01*
X86045031Y-128286776D01*
X85750000Y-128257718D01*
X85454968Y-128286776D01*
X85171275Y-128372834D01*
X84909821Y-128512583D01*
X84682615Y-128699047D01*
X84669502Y-128655820D01*
X84610537Y-128545506D01*
X84531185Y-128448815D01*
X84434494Y-128369463D01*
X84324180Y-128310498D01*
X84204482Y-128274188D01*
X84080000Y-128261928D01*
X83495750Y-128265000D01*
X83337000Y-128423750D01*
X83337000Y-129873000D01*
X83357000Y-129873000D01*
X83357000Y-130127000D01*
X83337000Y-130127000D01*
X83337000Y-131576250D01*
X83495750Y-131735000D01*
X84080000Y-131738072D01*
X84204482Y-131725812D01*
X84324180Y-131689502D01*
X84434494Y-131630537D01*
X84531185Y-131551185D01*
X84610537Y-131454494D01*
X84669502Y-131344180D01*
X84682615Y-131300953D01*
X84909822Y-131487417D01*
X85171276Y-131627166D01*
X85454969Y-131713224D01*
X85750000Y-131742282D01*
X86045032Y-131713224D01*
X86328725Y-131627166D01*
X86590179Y-131487417D01*
X86819345Y-131299345D01*
X87007417Y-131070179D01*
X87020000Y-131046638D01*
X87032583Y-131070179D01*
X87220655Y-131299345D01*
X87449822Y-131487417D01*
X87554453Y-131543343D01*
X87579880Y-131627166D01*
X87584454Y-131642246D01*
X87655026Y-131774276D01*
X87671586Y-131794454D01*
X87749999Y-131890001D01*
X87779003Y-131913804D01*
X88876201Y-133011003D01*
X88899999Y-133040001D01*
X88928997Y-133063799D01*
X89015724Y-133134974D01*
X89147753Y-133205546D01*
X89291014Y-133249003D01*
X89440000Y-133263677D01*
X89477333Y-133260000D01*
X96260157Y-133260000D01*
X92780158Y-136740000D01*
X89701947Y-136740000D01*
X89687166Y-136691275D01*
X89547417Y-136429821D01*
X89359345Y-136200655D01*
X89130178Y-136012583D01*
X88868724Y-135872834D01*
X88585031Y-135786776D01*
X88290000Y-135757718D01*
X87994968Y-135786776D01*
X87711275Y-135872834D01*
X87449821Y-136012583D01*
X87220655Y-136200655D01*
X87032583Y-136429822D01*
X87020000Y-136453363D01*
X87007417Y-136429821D01*
X86819345Y-136200655D01*
X86590178Y-136012583D01*
X86328724Y-135872834D01*
X86045031Y-135786776D01*
X85750000Y-135757718D01*
X85454968Y-135786776D01*
X85171275Y-135872834D01*
X84909821Y-136012583D01*
X84682615Y-136199047D01*
X84669502Y-136155820D01*
X84610537Y-136045506D01*
X84531185Y-135948815D01*
X84434494Y-135869463D01*
X84324180Y-135810498D01*
X84204482Y-135774188D01*
X84080000Y-135761928D01*
X83495750Y-135765000D01*
X83337000Y-135923750D01*
X83337000Y-137373000D01*
X83357000Y-137373000D01*
X83357000Y-137627000D01*
X83337000Y-137627000D01*
X83337000Y-139076250D01*
X83495750Y-139235000D01*
X84080000Y-139238072D01*
X84204482Y-139225812D01*
X84324180Y-139189502D01*
X84434494Y-139130537D01*
X84531185Y-139051185D01*
X84610537Y-138954494D01*
X84669502Y-138844180D01*
X84682615Y-138800953D01*
X84909822Y-138987417D01*
X85171276Y-139127166D01*
X85454969Y-139213224D01*
X85750000Y-139242282D01*
X86045032Y-139213224D01*
X86328725Y-139127166D01*
X86590179Y-138987417D01*
X86819345Y-138799345D01*
X87007417Y-138570179D01*
X87020000Y-138546638D01*
X87032583Y-138570179D01*
X87220655Y-138799345D01*
X87449822Y-138987417D01*
X87711276Y-139127166D01*
X87994969Y-139213224D01*
X88290000Y-139242282D01*
X88585032Y-139213224D01*
X88868725Y-139127166D01*
X89130179Y-138987417D01*
X89359345Y-138799345D01*
X89547417Y-138570179D01*
X89687166Y-138308724D01*
X89701946Y-138260000D01*
X93057637Y-138260000D01*
X93094959Y-138263676D01*
X93132281Y-138260000D01*
X93132292Y-138260000D01*
X93243945Y-138249003D01*
X93387206Y-138205546D01*
X93519235Y-138134974D01*
X93634960Y-138040001D01*
X93658763Y-138010997D01*
X99084970Y-132584791D01*
X99084969Y-189347647D01*
X99081293Y-189384969D01*
X99084969Y-189422291D01*
X99084969Y-189422301D01*
X99095966Y-189533954D01*
X99139423Y-189677215D01*
X99209995Y-189809245D01*
X99249260Y-189857089D01*
X99304968Y-189924970D01*
X99333972Y-189948773D01*
X100976269Y-191591070D01*
X100925000Y-191848816D01*
X100925000Y-192151184D01*
X100983989Y-192447743D01*
X101099701Y-192727095D01*
X101267688Y-192978505D01*
X101481495Y-193192312D01*
X101732905Y-193360299D01*
X102012257Y-193476011D01*
X102308816Y-193535000D01*
X102611184Y-193535000D01*
X102907743Y-193476011D01*
X103187095Y-193360299D01*
X103438505Y-193192312D01*
X103504944Y-193125873D01*
X103510498Y-193144180D01*
X103569463Y-193254494D01*
X103648815Y-193351185D01*
X103745506Y-193430537D01*
X103855820Y-193489502D01*
X103975518Y-193525812D01*
X104100000Y-193538072D01*
X105900000Y-193538072D01*
X106024482Y-193525812D01*
X106144180Y-193489502D01*
X106254494Y-193430537D01*
X106351185Y-193351185D01*
X106430537Y-193254494D01*
X106489502Y-193144180D01*
X106525812Y-193024482D01*
X106538072Y-192900000D01*
X106538072Y-191848816D01*
X113425000Y-191848816D01*
X113425000Y-192151184D01*
X113483989Y-192447743D01*
X113599701Y-192727095D01*
X113767688Y-192978505D01*
X113981495Y-193192312D01*
X114232905Y-193360299D01*
X114512257Y-193476011D01*
X114808816Y-193535000D01*
X115111184Y-193535000D01*
X115407743Y-193476011D01*
X115687095Y-193360299D01*
X115938505Y-193192312D01*
X116004944Y-193125873D01*
X116010498Y-193144180D01*
X116069463Y-193254494D01*
X116148815Y-193351185D01*
X116245506Y-193430537D01*
X116355820Y-193489502D01*
X116475518Y-193525812D01*
X116600000Y-193538072D01*
X118400000Y-193538072D01*
X118524482Y-193525812D01*
X118644180Y-193489502D01*
X118754494Y-193430537D01*
X118851185Y-193351185D01*
X118930537Y-193254494D01*
X118989502Y-193144180D01*
X119025812Y-193024482D01*
X119038072Y-192900000D01*
X119038072Y-191419679D01*
X123265000Y-191419679D01*
X123265000Y-192580322D01*
X123288657Y-192820516D01*
X123382148Y-193128715D01*
X123533970Y-193412752D01*
X123738287Y-193661714D01*
X123987249Y-193866031D01*
X124271286Y-194017852D01*
X124579485Y-194111343D01*
X124900000Y-194142911D01*
X125220516Y-194111343D01*
X125528715Y-194017852D01*
X125812752Y-193866031D01*
X126061714Y-193661714D01*
X126266031Y-193412752D01*
X126417852Y-193128715D01*
X126511343Y-192820516D01*
X126535000Y-192580322D01*
X126535000Y-191419678D01*
X126511343Y-191179484D01*
X126417852Y-190871285D01*
X126266031Y-190587248D01*
X126061714Y-190338286D01*
X125812751Y-190133969D01*
X125528714Y-189982148D01*
X125220515Y-189888657D01*
X124900000Y-189857089D01*
X124579484Y-189888657D01*
X124271285Y-189982148D01*
X123987248Y-190133969D01*
X123738286Y-190338286D01*
X123533969Y-190587249D01*
X123382148Y-190871286D01*
X123288657Y-191179485D01*
X123265000Y-191419679D01*
X119038072Y-191419679D01*
X119038072Y-191100000D01*
X119025812Y-190975518D01*
X118989502Y-190855820D01*
X118930537Y-190745506D01*
X118851185Y-190648815D01*
X118754494Y-190569463D01*
X118644180Y-190510498D01*
X118524482Y-190474188D01*
X118400000Y-190461928D01*
X116600000Y-190461928D01*
X116475518Y-190474188D01*
X116355820Y-190510498D01*
X116245506Y-190569463D01*
X116148815Y-190648815D01*
X116069463Y-190745506D01*
X116010498Y-190855820D01*
X116004944Y-190874127D01*
X115938505Y-190807688D01*
X115687095Y-190639701D01*
X115407743Y-190523989D01*
X115111184Y-190465000D01*
X114808816Y-190465000D01*
X114512257Y-190523989D01*
X114232905Y-190639701D01*
X113981495Y-190807688D01*
X113767688Y-191021495D01*
X113599701Y-191272905D01*
X113483989Y-191552257D01*
X113425000Y-191848816D01*
X106538072Y-191848816D01*
X106538072Y-191100000D01*
X106525812Y-190975518D01*
X106489502Y-190855820D01*
X106430537Y-190745506D01*
X106351185Y-190648815D01*
X106254494Y-190569463D01*
X106144180Y-190510498D01*
X106024482Y-190474188D01*
X105900000Y-190461928D01*
X105760000Y-190461928D01*
X105760000Y-187117322D01*
X105763676Y-187079999D01*
X105760000Y-187042676D01*
X105760000Y-187042667D01*
X105749003Y-186931014D01*
X105705546Y-186787753D01*
X105634974Y-186655724D01*
X105540001Y-186539999D01*
X105511003Y-186516201D01*
X104639250Y-185644449D01*
X104684482Y-185535250D01*
X104709036Y-185411805D01*
X106211805Y-185411805D01*
X106284379Y-185651066D01*
X106444361Y-185973257D01*
X106664125Y-186258046D01*
X106935226Y-186494489D01*
X107247246Y-186673500D01*
X107588194Y-186788199D01*
X107873000Y-186671854D01*
X107873000Y-185127000D01*
X108127000Y-185127000D01*
X108127000Y-186671854D01*
X108411806Y-186788199D01*
X108752754Y-186673500D01*
X109064774Y-186494489D01*
X109335875Y-186258046D01*
X109555639Y-185973257D01*
X109715621Y-185651066D01*
X109788195Y-185411805D01*
X110211805Y-185411805D01*
X110284379Y-185651066D01*
X110444361Y-185973257D01*
X110664125Y-186258046D01*
X110935226Y-186494489D01*
X111247246Y-186673500D01*
X111588194Y-186788199D01*
X111873000Y-186671854D01*
X111873000Y-185127000D01*
X112127000Y-185127000D01*
X112127000Y-186671854D01*
X112411806Y-186788199D01*
X112752754Y-186673500D01*
X113064774Y-186494489D01*
X113335875Y-186258046D01*
X113555639Y-185973257D01*
X113715621Y-185651066D01*
X113788195Y-185411805D01*
X113671432Y-185127000D01*
X112127000Y-185127000D01*
X111873000Y-185127000D01*
X110328568Y-185127000D01*
X110211805Y-185411805D01*
X109788195Y-185411805D01*
X109671432Y-185127000D01*
X108127000Y-185127000D01*
X107873000Y-185127000D01*
X106328568Y-185127000D01*
X106211805Y-185411805D01*
X104709036Y-185411805D01*
X104755000Y-185180732D01*
X104755000Y-184819268D01*
X104709037Y-184588195D01*
X106211805Y-184588195D01*
X106328568Y-184873000D01*
X107873000Y-184873000D01*
X107873000Y-183328146D01*
X108127000Y-183328146D01*
X108127000Y-184873000D01*
X109671432Y-184873000D01*
X109788195Y-184588195D01*
X110211805Y-184588195D01*
X110328568Y-184873000D01*
X111873000Y-184873000D01*
X111873000Y-183328146D01*
X112127000Y-183328146D01*
X112127000Y-184873000D01*
X113671432Y-184873000D01*
X113693460Y-184819268D01*
X115245000Y-184819268D01*
X115245000Y-185180732D01*
X115315518Y-185535250D01*
X115453844Y-185869199D01*
X115654662Y-186169744D01*
X115910256Y-186425338D01*
X116210801Y-186626156D01*
X116544750Y-186764482D01*
X116899268Y-186835000D01*
X117260732Y-186835000D01*
X117615250Y-186764482D01*
X117949199Y-186626156D01*
X118249744Y-186425338D01*
X118505338Y-186169744D01*
X118706156Y-185869199D01*
X118844482Y-185535250D01*
X118915000Y-185180732D01*
X118915000Y-184819268D01*
X118844482Y-184464750D01*
X118706156Y-184130801D01*
X118505338Y-183830256D01*
X118249744Y-183574662D01*
X117949199Y-183373844D01*
X117615250Y-183235518D01*
X117260732Y-183165000D01*
X116899268Y-183165000D01*
X116544750Y-183235518D01*
X116210801Y-183373844D01*
X115910256Y-183574662D01*
X115654662Y-183830256D01*
X115453844Y-184130801D01*
X115315518Y-184464750D01*
X115245000Y-184819268D01*
X113693460Y-184819268D01*
X113788195Y-184588195D01*
X113715621Y-184348934D01*
X113555639Y-184026743D01*
X113335875Y-183741954D01*
X113064774Y-183505511D01*
X112752754Y-183326500D01*
X112411806Y-183211801D01*
X112127000Y-183328146D01*
X111873000Y-183328146D01*
X111588194Y-183211801D01*
X111247246Y-183326500D01*
X110935226Y-183505511D01*
X110664125Y-183741954D01*
X110444361Y-184026743D01*
X110284379Y-184348934D01*
X110211805Y-184588195D01*
X109788195Y-184588195D01*
X109715621Y-184348934D01*
X109555639Y-184026743D01*
X109335875Y-183741954D01*
X109064774Y-183505511D01*
X108752754Y-183326500D01*
X108411806Y-183211801D01*
X108127000Y-183328146D01*
X107873000Y-183328146D01*
X107588194Y-183211801D01*
X107247246Y-183326500D01*
X106935226Y-183505511D01*
X106664125Y-183741954D01*
X106444361Y-184026743D01*
X106284379Y-184348934D01*
X106211805Y-184588195D01*
X104709037Y-184588195D01*
X104684482Y-184464750D01*
X104546156Y-184130801D01*
X104345338Y-183830256D01*
X104089744Y-183574662D01*
X103789199Y-183373844D01*
X103455250Y-183235518D01*
X103100732Y-183165000D01*
X102739268Y-183165000D01*
X102384750Y-183235518D01*
X102050801Y-183373844D01*
X101750256Y-183574662D01*
X101494662Y-183830256D01*
X101293844Y-184130801D01*
X101155518Y-184464750D01*
X101085000Y-184819268D01*
X101085000Y-185180732D01*
X101155518Y-185535250D01*
X101293844Y-185869199D01*
X101494662Y-186169744D01*
X101750256Y-186425338D01*
X102050801Y-186626156D01*
X102384750Y-186764482D01*
X102739268Y-186835000D01*
X103100732Y-186835000D01*
X103455250Y-186764482D01*
X103564449Y-186719250D01*
X104240001Y-187394803D01*
X104240000Y-190461928D01*
X104100000Y-190461928D01*
X103975518Y-190474188D01*
X103855820Y-190510498D01*
X103745506Y-190569463D01*
X103648815Y-190648815D01*
X103569463Y-190745506D01*
X103510498Y-190855820D01*
X103504944Y-190874127D01*
X103438505Y-190807688D01*
X103187095Y-190639701D01*
X102907743Y-190523989D01*
X102611184Y-190465000D01*
X102308816Y-190465000D01*
X102051070Y-190516269D01*
X100604969Y-189070168D01*
X100604969Y-177219771D01*
X100976269Y-177591071D01*
X100925000Y-177848816D01*
X100925000Y-178151184D01*
X100983989Y-178447743D01*
X101099701Y-178727095D01*
X101267688Y-178978505D01*
X101481495Y-179192312D01*
X101732905Y-179360299D01*
X102012257Y-179476011D01*
X102308816Y-179535000D01*
X102611184Y-179535000D01*
X102907743Y-179476011D01*
X103187095Y-179360299D01*
X103438505Y-179192312D01*
X103504944Y-179125873D01*
X103510498Y-179144180D01*
X103569463Y-179254494D01*
X103648815Y-179351185D01*
X103745506Y-179430537D01*
X103855820Y-179489502D01*
X103975518Y-179525812D01*
X104100000Y-179538072D01*
X105900000Y-179538072D01*
X106024482Y-179525812D01*
X106144180Y-179489502D01*
X106254494Y-179430537D01*
X106351185Y-179351185D01*
X106430537Y-179254494D01*
X106489502Y-179144180D01*
X106525812Y-179024482D01*
X106538072Y-178900000D01*
X106538072Y-177848816D01*
X113425000Y-177848816D01*
X113425000Y-178151184D01*
X113483989Y-178447743D01*
X113599701Y-178727095D01*
X113767688Y-178978505D01*
X113981495Y-179192312D01*
X114232905Y-179360299D01*
X114512257Y-179476011D01*
X114808816Y-179535000D01*
X115111184Y-179535000D01*
X115407743Y-179476011D01*
X115687095Y-179360299D01*
X115938505Y-179192312D01*
X116004944Y-179125873D01*
X116010498Y-179144180D01*
X116069463Y-179254494D01*
X116148815Y-179351185D01*
X116245506Y-179430537D01*
X116355820Y-179489502D01*
X116475518Y-179525812D01*
X116600000Y-179538072D01*
X118400000Y-179538072D01*
X118524482Y-179525812D01*
X118644180Y-179489502D01*
X118754494Y-179430537D01*
X118851185Y-179351185D01*
X118930537Y-179254494D01*
X118989502Y-179144180D01*
X119025812Y-179024482D01*
X119038072Y-178900000D01*
X119038072Y-177419679D01*
X123265000Y-177419679D01*
X123265000Y-178580322D01*
X123288657Y-178820516D01*
X123382148Y-179128715D01*
X123533970Y-179412752D01*
X123738287Y-179661714D01*
X123987249Y-179866031D01*
X124271286Y-180017852D01*
X124579485Y-180111343D01*
X124900000Y-180142911D01*
X125220516Y-180111343D01*
X125528715Y-180017852D01*
X125812752Y-179866031D01*
X126061714Y-179661714D01*
X126266031Y-179412752D01*
X126417852Y-179128715D01*
X126511343Y-178820516D01*
X126535000Y-178580322D01*
X126535000Y-177419678D01*
X126511343Y-177179484D01*
X126417852Y-176871285D01*
X126266031Y-176587248D01*
X126061714Y-176338286D01*
X125812751Y-176133969D01*
X125528714Y-175982148D01*
X125220515Y-175888657D01*
X124900000Y-175857089D01*
X124579484Y-175888657D01*
X124271285Y-175982148D01*
X123987248Y-176133969D01*
X123738286Y-176338286D01*
X123533969Y-176587249D01*
X123382148Y-176871286D01*
X123288657Y-177179485D01*
X123265000Y-177419679D01*
X119038072Y-177419679D01*
X119038072Y-177100000D01*
X119025812Y-176975518D01*
X118989502Y-176855820D01*
X118930537Y-176745506D01*
X118851185Y-176648815D01*
X118754494Y-176569463D01*
X118644180Y-176510498D01*
X118524482Y-176474188D01*
X118400000Y-176461928D01*
X116600000Y-176461928D01*
X116475518Y-176474188D01*
X116355820Y-176510498D01*
X116245506Y-176569463D01*
X116148815Y-176648815D01*
X116069463Y-176745506D01*
X116010498Y-176855820D01*
X116004944Y-176874127D01*
X115938505Y-176807688D01*
X115687095Y-176639701D01*
X115407743Y-176523989D01*
X115111184Y-176465000D01*
X114808816Y-176465000D01*
X114512257Y-176523989D01*
X114232905Y-176639701D01*
X113981495Y-176807688D01*
X113767688Y-177021495D01*
X113599701Y-177272905D01*
X113483989Y-177552257D01*
X113425000Y-177848816D01*
X106538072Y-177848816D01*
X106538072Y-177100000D01*
X106525812Y-176975518D01*
X106489502Y-176855820D01*
X106430537Y-176745506D01*
X106351185Y-176648815D01*
X106254494Y-176569463D01*
X106144180Y-176510498D01*
X106024482Y-176474188D01*
X105900000Y-176461928D01*
X105760000Y-176461928D01*
X105760000Y-173117322D01*
X105763676Y-173079999D01*
X105760000Y-173042676D01*
X105760000Y-173042667D01*
X105749003Y-172931014D01*
X105705546Y-172787753D01*
X105634974Y-172655724D01*
X105540001Y-172539999D01*
X105511003Y-172516201D01*
X104639250Y-171644449D01*
X104684482Y-171535250D01*
X104709036Y-171411805D01*
X106211805Y-171411805D01*
X106284379Y-171651066D01*
X106444361Y-171973257D01*
X106664125Y-172258046D01*
X106935226Y-172494489D01*
X107247246Y-172673500D01*
X107588194Y-172788199D01*
X107873000Y-172671854D01*
X107873000Y-171127000D01*
X108127000Y-171127000D01*
X108127000Y-172671854D01*
X108411806Y-172788199D01*
X108752754Y-172673500D01*
X109064774Y-172494489D01*
X109335875Y-172258046D01*
X109555639Y-171973257D01*
X109715621Y-171651066D01*
X109788195Y-171411805D01*
X110211805Y-171411805D01*
X110284379Y-171651066D01*
X110444361Y-171973257D01*
X110664125Y-172258046D01*
X110935226Y-172494489D01*
X111247246Y-172673500D01*
X111588194Y-172788199D01*
X111873000Y-172671854D01*
X111873000Y-171127000D01*
X112127000Y-171127000D01*
X112127000Y-172671854D01*
X112411806Y-172788199D01*
X112752754Y-172673500D01*
X113064774Y-172494489D01*
X113335875Y-172258046D01*
X113555639Y-171973257D01*
X113715621Y-171651066D01*
X113788195Y-171411805D01*
X113671432Y-171127000D01*
X112127000Y-171127000D01*
X111873000Y-171127000D01*
X110328568Y-171127000D01*
X110211805Y-171411805D01*
X109788195Y-171411805D01*
X109671432Y-171127000D01*
X108127000Y-171127000D01*
X107873000Y-171127000D01*
X106328568Y-171127000D01*
X106211805Y-171411805D01*
X104709036Y-171411805D01*
X104755000Y-171180732D01*
X104755000Y-170819268D01*
X104709037Y-170588195D01*
X106211805Y-170588195D01*
X106328568Y-170873000D01*
X107873000Y-170873000D01*
X107873000Y-169328146D01*
X108127000Y-169328146D01*
X108127000Y-170873000D01*
X109671432Y-170873000D01*
X109788195Y-170588195D01*
X110211805Y-170588195D01*
X110328568Y-170873000D01*
X111873000Y-170873000D01*
X111873000Y-169328146D01*
X112127000Y-169328146D01*
X112127000Y-170873000D01*
X113671432Y-170873000D01*
X113693460Y-170819268D01*
X115245000Y-170819268D01*
X115245000Y-171180732D01*
X115315518Y-171535250D01*
X115453844Y-171869199D01*
X115654662Y-172169744D01*
X115910256Y-172425338D01*
X116210801Y-172626156D01*
X116544750Y-172764482D01*
X116899268Y-172835000D01*
X117260732Y-172835000D01*
X117615250Y-172764482D01*
X117949199Y-172626156D01*
X118249744Y-172425338D01*
X118505338Y-172169744D01*
X118706156Y-171869199D01*
X118844482Y-171535250D01*
X118915000Y-171180732D01*
X118915000Y-170819268D01*
X118844482Y-170464750D01*
X118706156Y-170130801D01*
X118505338Y-169830256D01*
X118249744Y-169574662D01*
X117949199Y-169373844D01*
X117615250Y-169235518D01*
X117260732Y-169165000D01*
X116899268Y-169165000D01*
X116544750Y-169235518D01*
X116210801Y-169373844D01*
X115910256Y-169574662D01*
X115654662Y-169830256D01*
X115453844Y-170130801D01*
X115315518Y-170464750D01*
X115245000Y-170819268D01*
X113693460Y-170819268D01*
X113788195Y-170588195D01*
X113715621Y-170348934D01*
X113555639Y-170026743D01*
X113335875Y-169741954D01*
X113064774Y-169505511D01*
X112752754Y-169326500D01*
X112411806Y-169211801D01*
X112127000Y-169328146D01*
X111873000Y-169328146D01*
X111588194Y-169211801D01*
X111247246Y-169326500D01*
X110935226Y-169505511D01*
X110664125Y-169741954D01*
X110444361Y-170026743D01*
X110284379Y-170348934D01*
X110211805Y-170588195D01*
X109788195Y-170588195D01*
X109715621Y-170348934D01*
X109555639Y-170026743D01*
X109335875Y-169741954D01*
X109064774Y-169505511D01*
X108752754Y-169326500D01*
X108411806Y-169211801D01*
X108127000Y-169328146D01*
X107873000Y-169328146D01*
X107588194Y-169211801D01*
X107247246Y-169326500D01*
X106935226Y-169505511D01*
X106664125Y-169741954D01*
X106444361Y-170026743D01*
X106284379Y-170348934D01*
X106211805Y-170588195D01*
X104709037Y-170588195D01*
X104684482Y-170464750D01*
X104546156Y-170130801D01*
X104345338Y-169830256D01*
X104089744Y-169574662D01*
X103789199Y-169373844D01*
X103455250Y-169235518D01*
X103100732Y-169165000D01*
X102739268Y-169165000D01*
X102384750Y-169235518D01*
X102050801Y-169373844D01*
X101750256Y-169574662D01*
X101494662Y-169830256D01*
X101293844Y-170130801D01*
X101155518Y-170464750D01*
X101104979Y-170718827D01*
X101104979Y-164734994D01*
X101267688Y-164978505D01*
X101481495Y-165192312D01*
X101732905Y-165360299D01*
X102012257Y-165476011D01*
X102308816Y-165535000D01*
X102611184Y-165535000D01*
X102907743Y-165476011D01*
X103187095Y-165360299D01*
X103438505Y-165192312D01*
X103504944Y-165125873D01*
X103510498Y-165144180D01*
X103569463Y-165254494D01*
X103648815Y-165351185D01*
X103745506Y-165430537D01*
X103855820Y-165489502D01*
X103975518Y-165525812D01*
X104100000Y-165538072D01*
X105900000Y-165538072D01*
X106024482Y-165525812D01*
X106144180Y-165489502D01*
X106254494Y-165430537D01*
X106351185Y-165351185D01*
X106430537Y-165254494D01*
X106489502Y-165144180D01*
X106525812Y-165024482D01*
X106538072Y-164900000D01*
X106538072Y-163848816D01*
X113425000Y-163848816D01*
X113425000Y-164151184D01*
X113483989Y-164447743D01*
X113599701Y-164727095D01*
X113767688Y-164978505D01*
X113981495Y-165192312D01*
X114232905Y-165360299D01*
X114512257Y-165476011D01*
X114808816Y-165535000D01*
X115111184Y-165535000D01*
X115407743Y-165476011D01*
X115687095Y-165360299D01*
X115938505Y-165192312D01*
X116004944Y-165125873D01*
X116010498Y-165144180D01*
X116069463Y-165254494D01*
X116148815Y-165351185D01*
X116245506Y-165430537D01*
X116355820Y-165489502D01*
X116475518Y-165525812D01*
X116600000Y-165538072D01*
X118400000Y-165538072D01*
X118524482Y-165525812D01*
X118644180Y-165489502D01*
X118754494Y-165430537D01*
X118851185Y-165351185D01*
X118930537Y-165254494D01*
X118989502Y-165144180D01*
X119025812Y-165024482D01*
X119038072Y-164900000D01*
X119038072Y-163419679D01*
X123265000Y-163419679D01*
X123265000Y-164580322D01*
X123288657Y-164820516D01*
X123382148Y-165128715D01*
X123533970Y-165412752D01*
X123738287Y-165661714D01*
X123987249Y-165866031D01*
X124271286Y-166017852D01*
X124579485Y-166111343D01*
X124900000Y-166142911D01*
X125220516Y-166111343D01*
X125528715Y-166017852D01*
X125812752Y-165866031D01*
X126061714Y-165661714D01*
X126266031Y-165412752D01*
X126417852Y-165128715D01*
X126511343Y-164820516D01*
X126535000Y-164580322D01*
X126535000Y-163419678D01*
X126511343Y-163179484D01*
X126417852Y-162871285D01*
X126266031Y-162587248D01*
X126061714Y-162338286D01*
X125812751Y-162133969D01*
X125528714Y-161982148D01*
X125220515Y-161888657D01*
X124900000Y-161857089D01*
X124579484Y-161888657D01*
X124271285Y-161982148D01*
X123987248Y-162133969D01*
X123738286Y-162338286D01*
X123533969Y-162587249D01*
X123382148Y-162871286D01*
X123288657Y-163179485D01*
X123265000Y-163419679D01*
X119038072Y-163419679D01*
X119038072Y-163100000D01*
X119025812Y-162975518D01*
X118989502Y-162855820D01*
X118930537Y-162745506D01*
X118851185Y-162648815D01*
X118754494Y-162569463D01*
X118644180Y-162510498D01*
X118524482Y-162474188D01*
X118400000Y-162461928D01*
X116600000Y-162461928D01*
X116475518Y-162474188D01*
X116355820Y-162510498D01*
X116245506Y-162569463D01*
X116148815Y-162648815D01*
X116069463Y-162745506D01*
X116010498Y-162855820D01*
X116004944Y-162874127D01*
X115938505Y-162807688D01*
X115687095Y-162639701D01*
X115407743Y-162523989D01*
X115111184Y-162465000D01*
X114808816Y-162465000D01*
X114512257Y-162523989D01*
X114232905Y-162639701D01*
X113981495Y-162807688D01*
X113767688Y-163021495D01*
X113599701Y-163272905D01*
X113483989Y-163552257D01*
X113425000Y-163848816D01*
X106538072Y-163848816D01*
X106538072Y-163100000D01*
X106525812Y-162975518D01*
X106489502Y-162855820D01*
X106430537Y-162745506D01*
X106351185Y-162648815D01*
X106254494Y-162569463D01*
X106144180Y-162510498D01*
X106024482Y-162474188D01*
X105900000Y-162461928D01*
X105760000Y-162461928D01*
X105760000Y-159117322D01*
X105763676Y-159079999D01*
X105760000Y-159042676D01*
X105760000Y-159042667D01*
X105749003Y-158931014D01*
X105705546Y-158787753D01*
X105634974Y-158655724D01*
X105540001Y-158539999D01*
X105511003Y-158516201D01*
X104639250Y-157644449D01*
X104684482Y-157535250D01*
X104709036Y-157411805D01*
X106211805Y-157411805D01*
X106284379Y-157651066D01*
X106444361Y-157973257D01*
X106664125Y-158258046D01*
X106935226Y-158494489D01*
X107247246Y-158673500D01*
X107588194Y-158788199D01*
X107873000Y-158671854D01*
X107873000Y-157127000D01*
X108127000Y-157127000D01*
X108127000Y-158671854D01*
X108411806Y-158788199D01*
X108752754Y-158673500D01*
X109064774Y-158494489D01*
X109335875Y-158258046D01*
X109555639Y-157973257D01*
X109715621Y-157651066D01*
X109788195Y-157411805D01*
X110211805Y-157411805D01*
X110284379Y-157651066D01*
X110444361Y-157973257D01*
X110664125Y-158258046D01*
X110935226Y-158494489D01*
X111247246Y-158673500D01*
X111588194Y-158788199D01*
X111873000Y-158671854D01*
X111873000Y-157127000D01*
X112127000Y-157127000D01*
X112127000Y-158671854D01*
X112411806Y-158788199D01*
X112752754Y-158673500D01*
X113064774Y-158494489D01*
X113335875Y-158258046D01*
X113555639Y-157973257D01*
X113715621Y-157651066D01*
X113788195Y-157411805D01*
X113671432Y-157127000D01*
X112127000Y-157127000D01*
X111873000Y-157127000D01*
X110328568Y-157127000D01*
X110211805Y-157411805D01*
X109788195Y-157411805D01*
X109671432Y-157127000D01*
X108127000Y-157127000D01*
X107873000Y-157127000D01*
X106328568Y-157127000D01*
X106211805Y-157411805D01*
X104709036Y-157411805D01*
X104755000Y-157180732D01*
X104755000Y-156819268D01*
X104709037Y-156588195D01*
X106211805Y-156588195D01*
X106328568Y-156873000D01*
X107873000Y-156873000D01*
X107873000Y-155328146D01*
X108127000Y-155328146D01*
X108127000Y-156873000D01*
X109671432Y-156873000D01*
X109788195Y-156588195D01*
X110211805Y-156588195D01*
X110328568Y-156873000D01*
X111873000Y-156873000D01*
X111873000Y-155328146D01*
X112127000Y-155328146D01*
X112127000Y-156873000D01*
X113671432Y-156873000D01*
X113693460Y-156819268D01*
X115245000Y-156819268D01*
X115245000Y-157180732D01*
X115315518Y-157535250D01*
X115453844Y-157869199D01*
X115654662Y-158169744D01*
X115910256Y-158425338D01*
X116210801Y-158626156D01*
X116544750Y-158764482D01*
X116899268Y-158835000D01*
X117260732Y-158835000D01*
X117615250Y-158764482D01*
X117949199Y-158626156D01*
X118249744Y-158425338D01*
X118505338Y-158169744D01*
X118706156Y-157869199D01*
X118844482Y-157535250D01*
X118915000Y-157180732D01*
X118915000Y-156819268D01*
X118844482Y-156464750D01*
X118706156Y-156130801D01*
X118505338Y-155830256D01*
X118249744Y-155574662D01*
X117949199Y-155373844D01*
X117615250Y-155235518D01*
X117260732Y-155165000D01*
X116899268Y-155165000D01*
X116544750Y-155235518D01*
X116210801Y-155373844D01*
X115910256Y-155574662D01*
X115654662Y-155830256D01*
X115453844Y-156130801D01*
X115315518Y-156464750D01*
X115245000Y-156819268D01*
X113693460Y-156819268D01*
X113788195Y-156588195D01*
X113715621Y-156348934D01*
X113555639Y-156026743D01*
X113335875Y-155741954D01*
X113064774Y-155505511D01*
X112752754Y-155326500D01*
X112411806Y-155211801D01*
X112127000Y-155328146D01*
X111873000Y-155328146D01*
X111588194Y-155211801D01*
X111247246Y-155326500D01*
X110935226Y-155505511D01*
X110664125Y-155741954D01*
X110444361Y-156026743D01*
X110284379Y-156348934D01*
X110211805Y-156588195D01*
X109788195Y-156588195D01*
X109715621Y-156348934D01*
X109555639Y-156026743D01*
X109335875Y-155741954D01*
X109064774Y-155505511D01*
X108752754Y-155326500D01*
X108411806Y-155211801D01*
X108127000Y-155328146D01*
X107873000Y-155328146D01*
X107588194Y-155211801D01*
X107247246Y-155326500D01*
X106935226Y-155505511D01*
X106664125Y-155741954D01*
X106444361Y-156026743D01*
X106284379Y-156348934D01*
X106211805Y-156588195D01*
X104709037Y-156588195D01*
X104684482Y-156464750D01*
X104546156Y-156130801D01*
X104345338Y-155830256D01*
X104089744Y-155574662D01*
X103789199Y-155373844D01*
X103455250Y-155235518D01*
X103100732Y-155165000D01*
X102739268Y-155165000D01*
X102384750Y-155235518D01*
X102050801Y-155373844D01*
X101750256Y-155574662D01*
X101604989Y-155719929D01*
X101604989Y-151274828D01*
X101732905Y-151360299D01*
X102012257Y-151476011D01*
X102308816Y-151535000D01*
X102611184Y-151535000D01*
X102907743Y-151476011D01*
X103187095Y-151360299D01*
X103438505Y-151192312D01*
X103504944Y-151125873D01*
X103510498Y-151144180D01*
X103569463Y-151254494D01*
X103648815Y-151351185D01*
X103745506Y-151430537D01*
X103855820Y-151489502D01*
X103975518Y-151525812D01*
X104100000Y-151538072D01*
X105900000Y-151538072D01*
X106024482Y-151525812D01*
X106144180Y-151489502D01*
X106254494Y-151430537D01*
X106351185Y-151351185D01*
X106430537Y-151254494D01*
X106489502Y-151144180D01*
X106525812Y-151024482D01*
X106538072Y-150900000D01*
X106538072Y-149848816D01*
X113425000Y-149848816D01*
X113425000Y-150151184D01*
X113483989Y-150447743D01*
X113599701Y-150727095D01*
X113767688Y-150978505D01*
X113981495Y-151192312D01*
X114232905Y-151360299D01*
X114512257Y-151476011D01*
X114808816Y-151535000D01*
X115111184Y-151535000D01*
X115407743Y-151476011D01*
X115687095Y-151360299D01*
X115938505Y-151192312D01*
X116004944Y-151125873D01*
X116010498Y-151144180D01*
X116069463Y-151254494D01*
X116148815Y-151351185D01*
X116245506Y-151430537D01*
X116355820Y-151489502D01*
X116475518Y-151525812D01*
X116600000Y-151538072D01*
X118400000Y-151538072D01*
X118524482Y-151525812D01*
X118644180Y-151489502D01*
X118754494Y-151430537D01*
X118851185Y-151351185D01*
X118930537Y-151254494D01*
X118989502Y-151144180D01*
X119025812Y-151024482D01*
X119038072Y-150900000D01*
X119038072Y-149419679D01*
X123265000Y-149419679D01*
X123265000Y-150580322D01*
X123288657Y-150820516D01*
X123382148Y-151128715D01*
X123533970Y-151412752D01*
X123738287Y-151661714D01*
X123987249Y-151866031D01*
X124271286Y-152017852D01*
X124579485Y-152111343D01*
X124900000Y-152142911D01*
X125220516Y-152111343D01*
X125528715Y-152017852D01*
X125812752Y-151866031D01*
X126061714Y-151661714D01*
X126266031Y-151412752D01*
X126417852Y-151128715D01*
X126511343Y-150820516D01*
X126535000Y-150580322D01*
X126535000Y-149419678D01*
X126511343Y-149179484D01*
X126417852Y-148871285D01*
X126266031Y-148587248D01*
X126061714Y-148338286D01*
X125812751Y-148133969D01*
X125528714Y-147982148D01*
X125220515Y-147888657D01*
X124900000Y-147857089D01*
X124579484Y-147888657D01*
X124271285Y-147982148D01*
X123987248Y-148133969D01*
X123738286Y-148338286D01*
X123533969Y-148587249D01*
X123382148Y-148871286D01*
X123288657Y-149179485D01*
X123265000Y-149419679D01*
X119038072Y-149419679D01*
X119038072Y-149100000D01*
X119025812Y-148975518D01*
X118989502Y-148855820D01*
X118930537Y-148745506D01*
X118851185Y-148648815D01*
X118754494Y-148569463D01*
X118644180Y-148510498D01*
X118524482Y-148474188D01*
X118400000Y-148461928D01*
X116600000Y-148461928D01*
X116475518Y-148474188D01*
X116355820Y-148510498D01*
X116245506Y-148569463D01*
X116148815Y-148648815D01*
X116069463Y-148745506D01*
X116010498Y-148855820D01*
X116004944Y-148874127D01*
X115938505Y-148807688D01*
X115687095Y-148639701D01*
X115407743Y-148523989D01*
X115111184Y-148465000D01*
X114808816Y-148465000D01*
X114512257Y-148523989D01*
X114232905Y-148639701D01*
X113981495Y-148807688D01*
X113767688Y-149021495D01*
X113599701Y-149272905D01*
X113483989Y-149552257D01*
X113425000Y-149848816D01*
X106538072Y-149848816D01*
X106538072Y-149100000D01*
X106525812Y-148975518D01*
X106489502Y-148855820D01*
X106430537Y-148745506D01*
X106351185Y-148648815D01*
X106254494Y-148569463D01*
X106144180Y-148510498D01*
X106024482Y-148474188D01*
X105900000Y-148461928D01*
X105760000Y-148461928D01*
X105760000Y-145117322D01*
X105763676Y-145079999D01*
X105760000Y-145042676D01*
X105760000Y-145042667D01*
X105749003Y-144931014D01*
X105705546Y-144787753D01*
X105634974Y-144655724D01*
X105540001Y-144539999D01*
X105511003Y-144516201D01*
X104639250Y-143644449D01*
X104684482Y-143535250D01*
X104709036Y-143411805D01*
X106211805Y-143411805D01*
X106284379Y-143651066D01*
X106444361Y-143973257D01*
X106664125Y-144258046D01*
X106935226Y-144494489D01*
X107247246Y-144673500D01*
X107588194Y-144788199D01*
X107873000Y-144671854D01*
X107873000Y-143127000D01*
X108127000Y-143127000D01*
X108127000Y-144671854D01*
X108411806Y-144788199D01*
X108752754Y-144673500D01*
X109064774Y-144494489D01*
X109335875Y-144258046D01*
X109555639Y-143973257D01*
X109715621Y-143651066D01*
X109788195Y-143411805D01*
X110211805Y-143411805D01*
X110284379Y-143651066D01*
X110444361Y-143973257D01*
X110664125Y-144258046D01*
X110935226Y-144494489D01*
X111247246Y-144673500D01*
X111588194Y-144788199D01*
X111873000Y-144671854D01*
X111873000Y-143127000D01*
X112127000Y-143127000D01*
X112127000Y-144671854D01*
X112411806Y-144788199D01*
X112752754Y-144673500D01*
X113064774Y-144494489D01*
X113335875Y-144258046D01*
X113555639Y-143973257D01*
X113715621Y-143651066D01*
X113788195Y-143411805D01*
X113671432Y-143127000D01*
X112127000Y-143127000D01*
X111873000Y-143127000D01*
X110328568Y-143127000D01*
X110211805Y-143411805D01*
X109788195Y-143411805D01*
X109671432Y-143127000D01*
X108127000Y-143127000D01*
X107873000Y-143127000D01*
X106328568Y-143127000D01*
X106211805Y-143411805D01*
X104709036Y-143411805D01*
X104755000Y-143180732D01*
X104755000Y-142819268D01*
X104709037Y-142588195D01*
X106211805Y-142588195D01*
X106328568Y-142873000D01*
X107873000Y-142873000D01*
X107873000Y-141328146D01*
X108127000Y-141328146D01*
X108127000Y-142873000D01*
X109671432Y-142873000D01*
X109788195Y-142588195D01*
X110211805Y-142588195D01*
X110328568Y-142873000D01*
X111873000Y-142873000D01*
X111873000Y-141328146D01*
X112127000Y-141328146D01*
X112127000Y-142873000D01*
X113671432Y-142873000D01*
X113693460Y-142819268D01*
X115245000Y-142819268D01*
X115245000Y-143180732D01*
X115315518Y-143535250D01*
X115453844Y-143869199D01*
X115654662Y-144169744D01*
X115910256Y-144425338D01*
X116210801Y-144626156D01*
X116544750Y-144764482D01*
X116899268Y-144835000D01*
X117260732Y-144835000D01*
X117615250Y-144764482D01*
X117949199Y-144626156D01*
X118249744Y-144425338D01*
X118505338Y-144169744D01*
X118706156Y-143869199D01*
X118844482Y-143535250D01*
X118915000Y-143180732D01*
X118915000Y-142819268D01*
X118844482Y-142464750D01*
X118706156Y-142130801D01*
X118505338Y-141830256D01*
X118249744Y-141574662D01*
X117949199Y-141373844D01*
X117615250Y-141235518D01*
X117260732Y-141165000D01*
X116899268Y-141165000D01*
X116544750Y-141235518D01*
X116210801Y-141373844D01*
X115910256Y-141574662D01*
X115654662Y-141830256D01*
X115453844Y-142130801D01*
X115315518Y-142464750D01*
X115245000Y-142819268D01*
X113693460Y-142819268D01*
X113788195Y-142588195D01*
X113715621Y-142348934D01*
X113555639Y-142026743D01*
X113335875Y-141741954D01*
X113064774Y-141505511D01*
X112752754Y-141326500D01*
X112411806Y-141211801D01*
X112127000Y-141328146D01*
X111873000Y-141328146D01*
X111588194Y-141211801D01*
X111247246Y-141326500D01*
X110935226Y-141505511D01*
X110664125Y-141741954D01*
X110444361Y-142026743D01*
X110284379Y-142348934D01*
X110211805Y-142588195D01*
X109788195Y-142588195D01*
X109715621Y-142348934D01*
X109555639Y-142026743D01*
X109335875Y-141741954D01*
X109064774Y-141505511D01*
X108752754Y-141326500D01*
X108411806Y-141211801D01*
X108127000Y-141328146D01*
X107873000Y-141328146D01*
X107588194Y-141211801D01*
X107247246Y-141326500D01*
X106935226Y-141505511D01*
X106664125Y-141741954D01*
X106444361Y-142026743D01*
X106284379Y-142348934D01*
X106211805Y-142588195D01*
X104709037Y-142588195D01*
X104684482Y-142464750D01*
X104546156Y-142130801D01*
X104345338Y-141830256D01*
X104089744Y-141574662D01*
X103789199Y-141373844D01*
X103455250Y-141235518D01*
X103100732Y-141165000D01*
X102739268Y-141165000D01*
X102384750Y-141235518D01*
X102104999Y-141351394D01*
X102104999Y-121384868D01*
X125010467Y-98564238D01*
X125011002Y-98563799D01*
X125036394Y-98538407D01*
X125062850Y-98512049D01*
X125063308Y-98511493D01*
X127131003Y-96443799D01*
X127160001Y-96420001D01*
X127254974Y-96304276D01*
X127325546Y-96172247D01*
X127369003Y-96028986D01*
X127380000Y-95917333D01*
X127380000Y-95917325D01*
X127383676Y-95880000D01*
X127380000Y-95842675D01*
X127380000Y-90238072D01*
X127420000Y-90238072D01*
X127544482Y-90225812D01*
X127664180Y-90189502D01*
X127740000Y-90148975D01*
X127740001Y-101462668D01*
X127736324Y-101500000D01*
X127740001Y-101537333D01*
X127748713Y-101625781D01*
X127750998Y-101648985D01*
X127794454Y-101792246D01*
X127865026Y-101924276D01*
X127931002Y-102004667D01*
X127960000Y-102040001D01*
X127988998Y-102063799D01*
X129615000Y-103689803D01*
X129615001Y-146685197D01*
X128989002Y-147311197D01*
X128959999Y-147334999D01*
X128904871Y-147402174D01*
X128865026Y-147450724D01*
X128832806Y-147511003D01*
X128794454Y-147582754D01*
X128750997Y-147726015D01*
X128740000Y-147837668D01*
X128740000Y-147837678D01*
X128736324Y-147875000D01*
X128740000Y-147912323D01*
X128740000Y-148052321D01*
X128587248Y-148133969D01*
X128338286Y-148338286D01*
X128133969Y-148587249D01*
X127982148Y-148871286D01*
X127888657Y-149179485D01*
X127865000Y-149419679D01*
X127865000Y-150580322D01*
X127888657Y-150820516D01*
X127982148Y-151128715D01*
X128133970Y-151412752D01*
X128338287Y-151661714D01*
X128587249Y-151866031D01*
X128871286Y-152017852D01*
X129179485Y-152111343D01*
X129500000Y-152142911D01*
X129820516Y-152111343D01*
X130115010Y-152022009D01*
X130115010Y-160310188D01*
X128988998Y-161436201D01*
X128960000Y-161459999D01*
X128936202Y-161488997D01*
X128936201Y-161488998D01*
X128865026Y-161575724D01*
X128794454Y-161707754D01*
X128781635Y-161750015D01*
X128750998Y-161851014D01*
X128740193Y-161960713D01*
X128736324Y-162000000D01*
X128740001Y-162037332D01*
X128740001Y-162052321D01*
X128587248Y-162133969D01*
X128338286Y-162338286D01*
X128133969Y-162587249D01*
X127982148Y-162871286D01*
X127888657Y-163179485D01*
X127865000Y-163419679D01*
X127865000Y-164580322D01*
X127888657Y-164820516D01*
X127982148Y-165128715D01*
X128133970Y-165412752D01*
X128338287Y-165661714D01*
X128587249Y-165866031D01*
X128871286Y-166017852D01*
X129179485Y-166111343D01*
X129500000Y-166142911D01*
X129820516Y-166111343D01*
X130128715Y-166017852D01*
X130412752Y-165866031D01*
X130615020Y-165700035D01*
X130615020Y-173810178D01*
X128988998Y-175436201D01*
X128960000Y-175459999D01*
X128936202Y-175488997D01*
X128936201Y-175488998D01*
X128865026Y-175575724D01*
X128794454Y-175707754D01*
X128785888Y-175735994D01*
X128750998Y-175851014D01*
X128743976Y-175922312D01*
X128736324Y-176000000D01*
X128740001Y-176037332D01*
X128740001Y-176052321D01*
X128587248Y-176133969D01*
X128338286Y-176338286D01*
X128133969Y-176587249D01*
X127982148Y-176871286D01*
X127888657Y-177179485D01*
X127865000Y-177419679D01*
X127865000Y-178580322D01*
X127888657Y-178820516D01*
X127982148Y-179128715D01*
X128133970Y-179412752D01*
X128338287Y-179661714D01*
X128587249Y-179866031D01*
X128871286Y-180017852D01*
X129179485Y-180111343D01*
X129500000Y-180142911D01*
X129820516Y-180111343D01*
X130128715Y-180017852D01*
X130412752Y-179866031D01*
X130661714Y-179661714D01*
X130866031Y-179412752D01*
X131017852Y-179128715D01*
X131111343Y-178820516D01*
X131115031Y-178783071D01*
X131115031Y-179810167D01*
X128989003Y-181936196D01*
X128959999Y-181959999D01*
X128904871Y-182027174D01*
X128865026Y-182075724D01*
X128794455Y-182207753D01*
X128794454Y-182207754D01*
X128750997Y-182351015D01*
X128740000Y-182462668D01*
X128740000Y-182462678D01*
X128736324Y-182500000D01*
X128740000Y-182537322D01*
X128740001Y-190052321D01*
X128587248Y-190133969D01*
X128338286Y-190338286D01*
X128133969Y-190587249D01*
X127982148Y-190871286D01*
X127888657Y-191179485D01*
X127865000Y-191419679D01*
X127865000Y-192580322D01*
X127888657Y-192820516D01*
X127982148Y-193128715D01*
X128133970Y-193412752D01*
X128338287Y-193661714D01*
X128587249Y-193866031D01*
X128871286Y-194017852D01*
X129179485Y-194111343D01*
X129500000Y-194142911D01*
X129820516Y-194111343D01*
X130128715Y-194017852D01*
X130412752Y-193866031D01*
X130661714Y-193661714D01*
X130866031Y-193412752D01*
X131017852Y-193128715D01*
X131111343Y-192820516D01*
X131135000Y-192580322D01*
X131135000Y-191419679D01*
X132465000Y-191419679D01*
X132465000Y-192580322D01*
X132488657Y-192820516D01*
X132582148Y-193128715D01*
X132733970Y-193412752D01*
X132938287Y-193661714D01*
X133187249Y-193866031D01*
X133471286Y-194017852D01*
X133779485Y-194111343D01*
X134100000Y-194142911D01*
X134420516Y-194111343D01*
X134728715Y-194017852D01*
X135012752Y-193866031D01*
X135261714Y-193661714D01*
X135466031Y-193412752D01*
X135617852Y-193128715D01*
X135711343Y-192820516D01*
X135735000Y-192580322D01*
X135735000Y-191419678D01*
X135711343Y-191179484D01*
X135617852Y-190871285D01*
X135466031Y-190587248D01*
X135261714Y-190338286D01*
X135012751Y-190133969D01*
X134728714Y-189982148D01*
X134420515Y-189888657D01*
X134100000Y-189857089D01*
X133779484Y-189888657D01*
X133471285Y-189982148D01*
X133187248Y-190133969D01*
X132938286Y-190338286D01*
X132733969Y-190587249D01*
X132582148Y-190871286D01*
X132488657Y-191179485D01*
X132465000Y-191419679D01*
X131135000Y-191419679D01*
X131135000Y-191419678D01*
X131111343Y-191179484D01*
X131017852Y-190871285D01*
X130866031Y-190587248D01*
X130661714Y-190338286D01*
X130412751Y-190133969D01*
X130260000Y-190052322D01*
X130260000Y-185911482D01*
X130356931Y-186145494D01*
X130621585Y-186541576D01*
X130958424Y-186878415D01*
X131354506Y-187143069D01*
X131794608Y-187325365D01*
X132261818Y-187418299D01*
X132738182Y-187418299D01*
X133205392Y-187325365D01*
X133645494Y-187143069D01*
X134041576Y-186878415D01*
X134378415Y-186541576D01*
X134643069Y-186145494D01*
X134825365Y-185705392D01*
X134918299Y-185238182D01*
X134918299Y-184761818D01*
X134825365Y-184294608D01*
X134643069Y-183854506D01*
X134378415Y-183458424D01*
X134041576Y-183121585D01*
X133645494Y-182856931D01*
X133205392Y-182674635D01*
X132738182Y-182581701D01*
X132261818Y-182581701D01*
X131794608Y-182674635D01*
X131354506Y-182856931D01*
X130958424Y-183121585D01*
X130621585Y-183458424D01*
X130356931Y-183854506D01*
X130260000Y-184088518D01*
X130260000Y-182814801D01*
X132386033Y-180688769D01*
X132415031Y-180664971D01*
X132510004Y-180549246D01*
X132580576Y-180417217D01*
X132624033Y-180273956D01*
X132635030Y-180162303D01*
X132635030Y-180162295D01*
X132638706Y-180124970D01*
X132635030Y-180087645D01*
X132635030Y-179227650D01*
X132733970Y-179412752D01*
X132938287Y-179661714D01*
X133187249Y-179866031D01*
X133471286Y-180017852D01*
X133779485Y-180111343D01*
X134100000Y-180142911D01*
X134420516Y-180111343D01*
X134728715Y-180017852D01*
X135012752Y-179866031D01*
X135261714Y-179661714D01*
X135466031Y-179412752D01*
X135617852Y-179128715D01*
X135711343Y-178820516D01*
X135735000Y-178580322D01*
X135735000Y-177419678D01*
X135711343Y-177179484D01*
X135617852Y-176871285D01*
X135466031Y-176587248D01*
X135261714Y-176338286D01*
X135012751Y-176133969D01*
X134728714Y-175982148D01*
X134420515Y-175888657D01*
X134100000Y-175857089D01*
X133779484Y-175888657D01*
X133471285Y-175982148D01*
X133187248Y-176133969D01*
X132938286Y-176338286D01*
X132733969Y-176587249D01*
X132635030Y-176772351D01*
X132635030Y-165227650D01*
X132733970Y-165412752D01*
X132938287Y-165661714D01*
X133187249Y-165866031D01*
X133471286Y-166017852D01*
X133779485Y-166111343D01*
X134100000Y-166142911D01*
X134420516Y-166111343D01*
X134728715Y-166017852D01*
X135012752Y-165866031D01*
X135261714Y-165661714D01*
X135466031Y-165412752D01*
X135617852Y-165128715D01*
X135711343Y-164820516D01*
X135735000Y-164580322D01*
X135735000Y-163419678D01*
X135711343Y-163179484D01*
X135617852Y-162871285D01*
X135466031Y-162587248D01*
X135261714Y-162338286D01*
X135012751Y-162133969D01*
X134728714Y-161982148D01*
X134420515Y-161888657D01*
X134100000Y-161857089D01*
X133779484Y-161888657D01*
X133471285Y-161982148D01*
X133187248Y-162133969D01*
X132938286Y-162338286D01*
X132733969Y-162587249D01*
X132635030Y-162772351D01*
X132635030Y-151227650D01*
X132733970Y-151412752D01*
X132938287Y-151661714D01*
X133187249Y-151866031D01*
X133471286Y-152017852D01*
X133779485Y-152111343D01*
X134100000Y-152142911D01*
X134420516Y-152111343D01*
X134728715Y-152017852D01*
X135012752Y-151866031D01*
X135261714Y-151661714D01*
X135466031Y-151412752D01*
X135617852Y-151128715D01*
X135711343Y-150820516D01*
X135735000Y-150580322D01*
X135735000Y-149419678D01*
X135711343Y-149179484D01*
X135617852Y-148871285D01*
X135466031Y-148587248D01*
X135261714Y-148338286D01*
X135012751Y-148133969D01*
X134728714Y-147982148D01*
X134420515Y-147888657D01*
X134100000Y-147857089D01*
X133779484Y-147888657D01*
X133471285Y-147982148D01*
X133187248Y-148133969D01*
X132938286Y-148338286D01*
X132733969Y-148587249D01*
X132635030Y-148772351D01*
X132635030Y-102790992D01*
X132638706Y-102753669D01*
X132635030Y-102716346D01*
X132635030Y-102716337D01*
X132624033Y-102604684D01*
X132580576Y-102461423D01*
X132510004Y-102329394D01*
X132496841Y-102313355D01*
X132438829Y-102242666D01*
X132438825Y-102242662D01*
X132415031Y-102213669D01*
X132386039Y-102189876D01*
X130760030Y-100563869D01*
X130760030Y-96680021D01*
X130958424Y-96878415D01*
X131354506Y-97143069D01*
X131794608Y-97325365D01*
X132261818Y-97418299D01*
X132738182Y-97418299D01*
X133205392Y-97325365D01*
X133645494Y-97143069D01*
X134041576Y-96878415D01*
X134378415Y-96541576D01*
X134643069Y-96145494D01*
X134825365Y-95705392D01*
X134918299Y-95238182D01*
X134918299Y-94761818D01*
X134825365Y-94294608D01*
X134643069Y-93854506D01*
X134378415Y-93458424D01*
X134041576Y-93121585D01*
X133645494Y-92856931D01*
X133205392Y-92674635D01*
X132738182Y-92581701D01*
X132261818Y-92581701D01*
X131794608Y-92674635D01*
X131354506Y-92856931D01*
X130958424Y-93121585D01*
X130760030Y-93319979D01*
X130760030Y-88240475D01*
X130915000Y-88240475D01*
X130915000Y-88759525D01*
X131016261Y-89268601D01*
X131214893Y-89748141D01*
X131503262Y-90179715D01*
X131870285Y-90546738D01*
X132301859Y-90835107D01*
X132781399Y-91033739D01*
X133290475Y-91135000D01*
X133809525Y-91135000D01*
X134318601Y-91033739D01*
X134798141Y-90835107D01*
X135229715Y-90546738D01*
X135596738Y-90179715D01*
X135885107Y-89748141D01*
X136083739Y-89268601D01*
X136185000Y-88759525D01*
X136185000Y-88240475D01*
X136083739Y-87731399D01*
X135885107Y-87251859D01*
X135596738Y-86820285D01*
X135229715Y-86453262D01*
X134798141Y-86164893D01*
X134318601Y-85966261D01*
X133809525Y-85865000D01*
X133290475Y-85865000D01*
X132781399Y-85966261D01*
X132301859Y-86164893D01*
X131870285Y-86453262D01*
X131503262Y-86820285D01*
X131214893Y-87251859D01*
X131016261Y-87731399D01*
X130915000Y-88240475D01*
X130760030Y-88240475D01*
X130760030Y-86501990D01*
X130763706Y-86464667D01*
X130760030Y-86427344D01*
X130760030Y-86427335D01*
X130749033Y-86315682D01*
X130705576Y-86172421D01*
X130635004Y-86040392D01*
X130540031Y-85924667D01*
X130511034Y-85900870D01*
X126599142Y-81988979D01*
X126575339Y-81959975D01*
X126459614Y-81865002D01*
X126327585Y-81794430D01*
X126184324Y-81750973D01*
X126072671Y-81739976D01*
X126072660Y-81739976D01*
X126035338Y-81736300D01*
X125998016Y-81739976D01*
X108210976Y-81739976D01*
X108173653Y-81736300D01*
X108136330Y-81739976D01*
X108136321Y-81739976D01*
X108024668Y-81750973D01*
X107904269Y-81787495D01*
X107881407Y-81794430D01*
X107749377Y-81865002D01*
X107677196Y-81924240D01*
X107633653Y-81959975D01*
X107609855Y-81988973D01*
X105333998Y-84264831D01*
X105305000Y-84288629D01*
X105281202Y-84317627D01*
X105281201Y-84317628D01*
X105210026Y-84404354D01*
X105139454Y-84536384D01*
X105109548Y-84634974D01*
X105095998Y-84679644D01*
X105093447Y-84705546D01*
X105090203Y-84738480D01*
X104930241Y-84845363D01*
X104730363Y-85045241D01*
X104573320Y-85280273D01*
X104465147Y-85541426D01*
X104460000Y-85567301D01*
X104454853Y-85541426D01*
X104346680Y-85280273D01*
X104189637Y-85045241D01*
X103989759Y-84845363D01*
X103754727Y-84688320D01*
X103493574Y-84580147D01*
X103216335Y-84525000D01*
X102933665Y-84525000D01*
X102656426Y-84580147D01*
X102395273Y-84688320D01*
X102160241Y-84845363D01*
X101960363Y-85045241D01*
X101803320Y-85280273D01*
X101695147Y-85541426D01*
X101690000Y-85567301D01*
X101684853Y-85541426D01*
X101576680Y-85280273D01*
X101419637Y-85045241D01*
X101219759Y-84845363D01*
X100984727Y-84688320D01*
X100723574Y-84580147D01*
X100446335Y-84525000D01*
X100163665Y-84525000D01*
X99886426Y-84580147D01*
X99625273Y-84688320D01*
X99390241Y-84845363D01*
X99190363Y-85045241D01*
X99033320Y-85280273D01*
X98925147Y-85541426D01*
X98920000Y-85567301D01*
X98914853Y-85541426D01*
X98806680Y-85280273D01*
X98649637Y-85045241D01*
X98449759Y-84845363D01*
X98214727Y-84688320D01*
X97953574Y-84580147D01*
X97676335Y-84525000D01*
X97393665Y-84525000D01*
X97116426Y-84580147D01*
X96855273Y-84688320D01*
X96620241Y-84845363D01*
X96420363Y-85045241D01*
X96263320Y-85280273D01*
X96155147Y-85541426D01*
X96149487Y-85569882D01*
X96068603Y-85343708D01*
X96001671Y-85218486D01*
X95757702Y-85146903D01*
X94944605Y-85960000D01*
X95757702Y-86773097D01*
X96001671Y-86701514D01*
X96122571Y-86446004D01*
X96148212Y-86343711D01*
X96155147Y-86378574D01*
X96263320Y-86639727D01*
X96420363Y-86874759D01*
X96620241Y-87074637D01*
X96775001Y-87178044D01*
X96775001Y-87508198D01*
X96636004Y-87442429D01*
X96361816Y-87373700D01*
X96079488Y-87359783D01*
X95799870Y-87401213D01*
X95533708Y-87496397D01*
X95408486Y-87563329D01*
X95336903Y-87807298D01*
X96150000Y-88620395D01*
X96164143Y-88606253D01*
X96343748Y-88785858D01*
X96329605Y-88800000D01*
X96343748Y-88814143D01*
X96164143Y-88993748D01*
X96150000Y-88979605D01*
X95336903Y-89792702D01*
X95408486Y-90036671D01*
X95663996Y-90157571D01*
X95938184Y-90226300D01*
X96220512Y-90240217D01*
X96500130Y-90198787D01*
X96766292Y-90103603D01*
X96775000Y-90098948D01*
X96775000Y-92293078D01*
X84868079Y-104200000D01*
X83528178Y-104200000D01*
X83403475Y-104013368D01*
X83196632Y-103806525D01*
X82953411Y-103644010D01*
X82683158Y-103532068D01*
X82396260Y-103475000D01*
X82103740Y-103475000D01*
X81816842Y-103532068D01*
X81546589Y-103644010D01*
X81303368Y-103806525D01*
X81096525Y-104013368D01*
X80934010Y-104256589D01*
X80822068Y-104526842D01*
X80765000Y-104813740D01*
X80765000Y-105106260D01*
X80822068Y-105393158D01*
X80934010Y-105663411D01*
X81096525Y-105906632D01*
X81228380Y-106038487D01*
X81155820Y-106060498D01*
X81045506Y-106119463D01*
X80948815Y-106198815D01*
X80869463Y-106295506D01*
X80810498Y-106405820D01*
X80774188Y-106525518D01*
X80761928Y-106650000D01*
X78160000Y-106650000D01*
X78160000Y-94761818D01*
X85081701Y-94761818D01*
X85081701Y-95238182D01*
X85174635Y-95705392D01*
X85356931Y-96145494D01*
X85621585Y-96541576D01*
X85958424Y-96878415D01*
X86354506Y-97143069D01*
X86794608Y-97325365D01*
X87261818Y-97418299D01*
X87738182Y-97418299D01*
X88205392Y-97325365D01*
X88645494Y-97143069D01*
X89041576Y-96878415D01*
X89378415Y-96541576D01*
X89643069Y-96145494D01*
X89825365Y-95705392D01*
X89918299Y-95238182D01*
X89918299Y-94761818D01*
X89825365Y-94294608D01*
X89643069Y-93854506D01*
X89378415Y-93458424D01*
X89041576Y-93121585D01*
X88645494Y-92856931D01*
X88205392Y-92674635D01*
X87738182Y-92581701D01*
X87261818Y-92581701D01*
X86794608Y-92674635D01*
X86354506Y-92856931D01*
X85958424Y-93121585D01*
X85621585Y-93458424D01*
X85356931Y-93854506D01*
X85174635Y-94294608D01*
X85081701Y-94761818D01*
X78160000Y-94761818D01*
X78160000Y-88240475D01*
X83815000Y-88240475D01*
X83815000Y-88759525D01*
X83916261Y-89268601D01*
X84114893Y-89748141D01*
X84403262Y-90179715D01*
X84770285Y-90546738D01*
X85201859Y-90835107D01*
X85681399Y-91033739D01*
X86190475Y-91135000D01*
X86709525Y-91135000D01*
X87218601Y-91033739D01*
X87698141Y-90835107D01*
X88129715Y-90546738D01*
X88496738Y-90179715D01*
X88755332Y-89792702D01*
X92566903Y-89792702D01*
X92638486Y-90036671D01*
X92893996Y-90157571D01*
X93168184Y-90226300D01*
X93450512Y-90240217D01*
X93730130Y-90198787D01*
X93996292Y-90103603D01*
X94121514Y-90036671D01*
X94193097Y-89792702D01*
X93380000Y-88979605D01*
X92566903Y-89792702D01*
X88755332Y-89792702D01*
X88785107Y-89748141D01*
X88983739Y-89268601D01*
X89062923Y-88870512D01*
X91939783Y-88870512D01*
X91981213Y-89150130D01*
X92076397Y-89416292D01*
X92143329Y-89541514D01*
X92387298Y-89613097D01*
X93200395Y-88800000D01*
X93559605Y-88800000D01*
X94372702Y-89613097D01*
X94616671Y-89541514D01*
X94737571Y-89286004D01*
X94763216Y-89183695D01*
X94846397Y-89416292D01*
X94913329Y-89541514D01*
X95157298Y-89613097D01*
X95970395Y-88800000D01*
X95157298Y-87986903D01*
X94913329Y-88058486D01*
X94792429Y-88313996D01*
X94766784Y-88416305D01*
X94683603Y-88183708D01*
X94616671Y-88058486D01*
X94372702Y-87986903D01*
X93559605Y-88800000D01*
X93200395Y-88800000D01*
X92387298Y-87986903D01*
X92143329Y-88058486D01*
X92022429Y-88313996D01*
X91953700Y-88588184D01*
X91939783Y-88870512D01*
X89062923Y-88870512D01*
X89085000Y-88759525D01*
X89085000Y-88240475D01*
X88998837Y-87807298D01*
X92566903Y-87807298D01*
X93380000Y-88620395D01*
X94193097Y-87807298D01*
X94121514Y-87563329D01*
X93866004Y-87442429D01*
X93591816Y-87373700D01*
X93309488Y-87359783D01*
X93029870Y-87401213D01*
X92763708Y-87496397D01*
X92638486Y-87563329D01*
X92566903Y-87807298D01*
X88998837Y-87807298D01*
X88983739Y-87731399D01*
X88785107Y-87251859D01*
X88585217Y-86952702D01*
X93951903Y-86952702D01*
X94023486Y-87196671D01*
X94278996Y-87317571D01*
X94553184Y-87386300D01*
X94835512Y-87400217D01*
X95115130Y-87358787D01*
X95381292Y-87263603D01*
X95506514Y-87196671D01*
X95578097Y-86952702D01*
X94765000Y-86139605D01*
X93951903Y-86952702D01*
X88585217Y-86952702D01*
X88496738Y-86820285D01*
X88129715Y-86453262D01*
X87698141Y-86164893D01*
X87373717Y-86030512D01*
X93324783Y-86030512D01*
X93366213Y-86310130D01*
X93461397Y-86576292D01*
X93528329Y-86701514D01*
X93772298Y-86773097D01*
X94585395Y-85960000D01*
X93772298Y-85146903D01*
X93528329Y-85218486D01*
X93407429Y-85473996D01*
X93338700Y-85748184D01*
X93324783Y-86030512D01*
X87373717Y-86030512D01*
X87218601Y-85966261D01*
X86709525Y-85865000D01*
X86190475Y-85865000D01*
X85681399Y-85966261D01*
X85201859Y-86164893D01*
X84770285Y-86453262D01*
X84403262Y-86820285D01*
X84114893Y-87251859D01*
X83916261Y-87731399D01*
X83815000Y-88240475D01*
X78160000Y-88240475D01*
X78160000Y-84967298D01*
X93951903Y-84967298D01*
X94765000Y-85780395D01*
X95578097Y-84967298D01*
X95506514Y-84723329D01*
X95251004Y-84602429D01*
X94976816Y-84533700D01*
X94694488Y-84519783D01*
X94414870Y-84561213D01*
X94148708Y-84656397D01*
X94023486Y-84723329D01*
X93951903Y-84967298D01*
X78160000Y-84967298D01*
X78160000Y-83532279D01*
X78169580Y-83434576D01*
X78188580Y-83371644D01*
X78219445Y-83313595D01*
X78260989Y-83262657D01*
X78311644Y-83220752D01*
X78369471Y-83189485D01*
X78432272Y-83170044D01*
X78527835Y-83160000D01*
X80532419Y-83160000D01*
X80560674Y-83157217D01*
X80566801Y-83157260D01*
X80575972Y-83156360D01*
X80770069Y-83135959D01*
X80828658Y-83123932D01*
X80887423Y-83112723D01*
X80896245Y-83110059D01*
X81082683Y-83052347D01*
X81137838Y-83029162D01*
X81193291Y-83006758D01*
X81201427Y-83002432D01*
X81373104Y-82909607D01*
X81422699Y-82876154D01*
X81472753Y-82843400D01*
X81479894Y-82837576D01*
X81630272Y-82713172D01*
X81672411Y-82670737D01*
X81715161Y-82628874D01*
X81721034Y-82621773D01*
X81844384Y-82470531D01*
X81877477Y-82420723D01*
X81911284Y-82371349D01*
X81915667Y-82363243D01*
X82007292Y-82190920D01*
X82030090Y-82135608D01*
X82053652Y-82080634D01*
X82056377Y-82071831D01*
X82112786Y-81884994D01*
X82124405Y-81826314D01*
X82136842Y-81767804D01*
X82137805Y-81758639D01*
X82156850Y-81564406D01*
X82156850Y-81564404D01*
X82169580Y-81434576D01*
X82188580Y-81371644D01*
X82219445Y-81313595D01*
X82260989Y-81262657D01*
X82311644Y-81220752D01*
X82369471Y-81189485D01*
X82432272Y-81170044D01*
X82527835Y-81160000D01*
X137467721Y-81160000D01*
X137565424Y-81169580D01*
M02*
